# MagicaVoxel @ Ephtracy

# group
g chicken

# material
mtllib chicken.mtl
usemtl palette

# normals
vn -1 0 0
vn 1 0 0
vn 0 0 1
vn 0 0 -1
vn 0 -1 0
vn 0 1 0

# texcoords
vt 0.00195313 0.5
vt 0.0136719 0.5
vt 0.0175781 0.5
vt 0.0253906 0.5
vt 0.0410156 0.5
vt 0.0449219 0.5
vt 0.0996094 0.5

# verts
v -5.5 3 0.5
v -5.5 3 -4.5
v -5.5 7 0.5
v -5.5 7 -4.5
v -4.5 0 2.5
v -4.5 0 1.5
v -4.5 1 2.5
v -4.5 1 1.5
v -3.5 0 1.5
v -3.5 0 -1.5
v -3.5 1 1.5
v -3.5 1 0.5
v -3.5 1 -0.5
v -3.5 1 -1.5
v -3.5 2 1.5
v -3.5 2 0.5
v -3.5 2 -0.5
v -3.5 2 -1.5
v -3.5 3 0.5
v -3.5 3 -0.5
v -3.5 4 2.5
v -3.5 4 1.5
v -3.5 4 0.5
v -3.5 4 -1.5
v -3.5 6 2.5
v -3.5 6 0.5
v -3.5 8 3.5
v -3.5 8 -0.5
v -3.5 9 -0.5
v -3.5 9 -1.5
v -3.5 10 3.5
v -3.5 10 2.5
v -3.5 12 -0.5
v -3.5 12 -1.5
v -3.5 13 2.5
v -3.5 13 -0.5
v -2.5 0 2.5
v -2.5 0 1.5
v -2.5 1 2.5
v -2.5 1 1.5
v -2.5 2 -1.5
v -2.5 2 -2.5
v -2.5 3 2.5
v -2.5 3 1.5
v -2.5 3 -2.5
v -2.5 3 -4.5
v -2.5 4 3.5
v -2.5 4 2.5
v -2.5 4 1.5
v -2.5 4 -1.5
v -2.5 4 -3.5
v -2.5 4 -4.5
v -2.5 6 2.5
v -2.5 6 0.5
v -2.5 6 -1.5
v -2.5 6 -3.5
v -2.5 7 3.5
v -2.5 7 1.5
v -2.5 7 0.5
v -2.5 7 -0.5
v -2.5 7 -1.5
v -2.5 7 -3.5
v -2.5 8 1.5
v -2.5 8 -0.5
v -2.5 12 -0.5
v -2.5 12 -1.5
v -2.5 13 -0.5
v -2.5 13 -1.5
v -1.5 4 -3.5
v -1.5 4 -4.5
v -1.5 4 -5.5
v -1.5 5 -5.5
v -1.5 5 -6.5
v -1.5 6 -3.5
v -1.5 6 -6.5
v -1.5 7 -0.5
v -1.5 7 -2.5
v -1.5 8 -1.5
v -1.5 8 -2.5
v -1.5 9 4.5
v -1.5 9 3.5
v -1.5 9 -0.5
v -1.5 9 -1.5
v -1.5 10 4.5
v -1.5 10 3.5
v -1.5 10 -1.5
v -1.5 10 -3.5
v -1.5 13 1.5
v -1.5 13 -1.5
v -1.5 14 1.5
v -1.5 14 -3.5
v 0.5 6 -2.5
v 0.5 6 -3.5
v 0.5 7 -2.5
v 0.5 7 -3.5
v 1.5 0 2.5
v 1.5 0 1.5
v 1.5 1 2.5
v 1.5 1 1.5
v 1.5 2 1.5
v 1.5 2 0.5
v 1.5 2 -0.5
v 1.5 3 1.5
v 1.5 3 0.5
v 1.5 3 -0.5
v 1.5 4 1.5
v 1.5 4 0.5
v 2.5 0 1.5
v 2.5 0 -1.5
v 2.5 1 1.5
v 2.5 1 0.5
v 2.5 1 -0.5
v 2.5 1 -1.5
v 2.5 2 0.5
v 2.5 2 -0.5
v 3.5 0 2.5
v 3.5 0 1.5
v 3.5 1 2.5
v 3.5 1 1.5
v 3.5 6 -1.5
v 3.5 6 -3.5
v 3.5 7 -1.5
v 3.5 7 -3.5
v 4.5 3 0.5
v 4.5 3 -4.5
v 4.5 4 0.5
v 4.5 4 -3.5
v 4.5 7 -3.5
v 4.5 7 -4.5
v -4.5 3 0.5
v -4.5 3 -4.5
v -4.5 4 0.5
v -4.5 4 -3.5
v -4.5 7 -3.5
v -4.5 7 -4.5
v -3.5 0 2.5
v -3.5 0 1.5
v -3.5 1 2.5
v -3.5 1 1.5
v -3.5 6 -1.5
v -3.5 6 -3.5
v -3.5 7 -1.5
v -3.5 7 -3.5
v -2.5 0 1.5
v -2.5 0 -1.5
v -2.5 1 1.5
v -2.5 1 0.5
v -2.5 1 -0.5
v -2.5 1 -1.5
v -2.5 2 0.5
v -2.5 2 -0.5
v -1.5 0 2.5
v -1.5 0 1.5
v -1.5 1 2.5
v -1.5 1 1.5
v -1.5 2 1.5
v -1.5 2 0.5
v -1.5 2 -0.5
v -1.5 3 1.5
v -1.5 3 0.5
v -1.5 3 -0.5
v -1.5 4 1.5
v -1.5 4 0.5
v -0.5 6 -2.5
v -0.5 6 -3.5
v -0.5 7 -2.5
v -0.5 7 -3.5
v 1.5 4 -3.5
v 1.5 4 -4.5
v 1.5 4 -5.5
v 1.5 5 -5.5
v 1.5 5 -6.5
v 1.5 6 -3.5
v 1.5 6 -6.5
v 1.5 7 -0.5
v 1.5 7 -2.5
v 1.5 8 -1.5
v 1.5 8 -2.5
v 1.5 9 4.5
v 1.5 9 3.5
v 1.5 9 -0.5
v 1.5 9 -1.5
v 1.5 10 4.5
v 1.5 10 3.5
v 1.5 10 -1.5
v 1.5 10 -3.5
v 1.5 13 1.5
v 1.5 13 -1.5
v 1.5 14 1.5
v 1.5 14 -3.5
v 2.5 0 2.5
v 2.5 0 1.5
v 2.5 1 2.5
v 2.5 1 1.5
v 2.5 2 -1.5
v 2.5 2 -2.5
v 2.5 3 2.5
v 2.5 3 1.5
v 2.5 3 -2.5
v 2.5 3 -4.5
v 2.5 4 3.5
v 2.5 4 2.5
v 2.5 4 1.5
v 2.5 4 -1.5
v 2.5 4 -3.5
v 2.5 4 -4.5
v 2.5 6 2.5
v 2.5 6 0.5
v 2.5 6 -1.5
v 2.5 6 -3.5
v 2.5 7 3.5
v 2.5 7 1.5
v 2.5 7 0.5
v 2.5 7 -0.5
v 2.5 7 -1.5
v 2.5 7 -3.5
v 2.5 8 1.5
v 2.5 8 -0.5
v 2.5 12 -0.5
v 2.5 12 -1.5
v 2.5 13 -0.5
v 2.5 13 -1.5
v 3.5 0 1.5
v 3.5 0 -1.5
v 3.5 1 1.5
v 3.5 1 0.5
v 3.5 1 -0.5
v 3.5 1 -1.5
v 3.5 2 1.5
v 3.5 2 0.5
v 3.5 2 -0.5
v 3.5 2 -1.5
v 3.5 3 0.5
v 3.5 3 -0.5
v 3.5 4 2.5
v 3.5 4 1.5
v 3.5 4 0.5
v 3.5 4 -1.5
v 3.5 6 2.5
v 3.5 6 0.5
v 3.5 8 3.5
v 3.5 8 -0.5
v 3.5 9 -0.5
v 3.5 9 -1.5
v 3.5 10 3.5
v 3.5 10 2.5
v 3.5 12 -0.5
v 3.5 12 -1.5
v 3.5 13 2.5
v 3.5 13 -0.5
v 4.5 0 2.5
v 4.5 0 1.5
v 4.5 1 2.5
v 4.5 1 1.5
v 5.5 3 0.5
v 5.5 3 -4.5
v 5.5 7 0.5
v 5.5 7 -4.5
v -1.5 9 4.5
v -1.5 10 4.5
v 1.5 9 4.5
v 1.5 10 4.5
v -3.5 8 3.5
v -3.5 10 3.5
v -2.5 4 3.5
v -2.5 7 3.5
v -1.5 8 3.5
v -1.5 9 3.5
v -1.5 10 3.5
v 1.5 8 3.5
v 1.5 9 3.5
v 1.5 10 3.5
v 2.5 4 3.5
v 2.5 7 3.5
v 3.5 8 3.5
v 3.5 10 3.5
v -4.5 0 2.5
v -4.5 1 2.5
v -3.5 0 2.5
v -3.5 1 2.5
v -3.5 4 2.5
v -3.5 6 2.5
v -3.5 10 2.5
v -3.5 13 2.5
v -2.5 0 2.5
v -2.5 1 2.5
v -2.5 3 2.5
v -2.5 4 2.5
v -2.5 6 2.5
v -1.5 0 2.5
v -1.5 1 2.5
v -1.5 10 2.5
v -1.5 11 2.5
v -1.5 12 2.5
v -0.5 11 2.5
v -0.5 12 2.5
v 0.5 11 2.5
v 0.5 12 2.5
v 1.5 0 2.5
v 1.5 1 2.5
v 1.5 10 2.5
v 1.5 11 2.5
v 1.5 12 2.5
v 2.5 0 2.5
v 2.5 1 2.5
v 2.5 3 2.5
v 2.5 4 2.5
v 2.5 6 2.5
v 3.5 0 2.5
v 3.5 1 2.5
v 3.5 4 2.5
v 3.5 6 2.5
v 3.5 10 2.5
v 3.5 13 2.5
v 4.5 0 2.5
v 4.5 1 2.5
v -3.5 0 1.5
v -3.5 1 1.5
v -3.5 2 1.5
v -3.5 4 1.5
v -2.5 0 1.5
v -2.5 1 1.5
v -2.5 3 1.5
v -2.5 4 1.5
v -2.5 7 1.5
v -2.5 8 1.5
v -1.5 2 1.5
v -1.5 3 1.5
v -1.5 13 1.5
v -1.5 14 1.5
v 1.5 2 1.5
v 1.5 3 1.5
v 1.5 13 1.5
v 1.5 14 1.5
v 2.5 0 1.5
v 2.5 1 1.5
v 2.5 3 1.5
v 2.5 4 1.5
v 2.5 7 1.5
v 2.5 8 1.5
v 3.5 0 1.5
v 3.5 1 1.5
v 3.5 2 1.5
v 3.5 4 1.5
v -5.5 3 0.5
v -5.5 7 0.5
v -4.5 3 0.5
v -4.5 4 0.5
v -3.5 1 0.5
v -3.5 2 0.5
v -3.5 4 0.5
v -3.5 6 0.5
v -2.5 1 0.5
v -2.5 2 0.5
v -2.5 6 0.5
v -2.5 7 0.5
v -1.5 3 0.5
v -1.5 4 0.5
v 1.5 3 0.5
v 1.5 4 0.5
v 2.5 1 0.5
v 2.5 2 0.5
v 2.5 6 0.5
v 2.5 7 0.5
v 3.5 1 0.5
v 3.5 2 0.5
v 3.5 4 0.5
v 3.5 6 0.5
v 4.5 3 0.5
v 4.5 4 0.5
v 5.5 3 0.5
v 5.5 7 0.5
v -1.5 2 -0.5
v -1.5 3 -0.5
v 1.5 2 -0.5
v 1.5 3 -0.5
v -4.5 0 1.5
v -4.5 1 1.5
v -3.5 0 1.5
v -3.5 1 1.5
v -2.5 0 1.5
v -2.5 1 1.5
v -1.5 0 1.5
v -1.5 1 1.5
v -1.5 3 1.5
v -1.5 4 1.5
v 1.5 0 1.5
v 1.5 1 1.5
v 1.5 3 1.5
v 1.5 4 1.5
v 2.5 0 1.5
v 2.5 1 1.5
v 3.5 0 1.5
v 3.5 1 1.5
v 4.5 0 1.5
v 4.5 1 1.5
v -3.5 1 -0.5
v -3.5 2 -0.5
v -3.5 8 -0.5
v -3.5 9 -0.5
v -3.5 12 -0.5
v -3.5 13 -0.5
v -2.5 1 -0.5
v -2.5 2 -0.5
v -2.5 7 -0.5
v -2.5 8 -0.5
v -2.5 12 -0.5
v -2.5 13 -0.5
v -1.5 7 -0.5
v -1.5 9 -0.5
v 1.5 7 -0.5
v 1.5 9 -0.5
v 2.5 1 -0.5
v 2.5 2 -0.5
v 2.5 7 -0.5
v 2.5 8 -0.5
v 2.5 12 -0.5
v 2.5 13 -0.5
v 3.5 1 -0.5
v 3.5 2 -0.5
v 3.5 8 -0.5
v 3.5 9 -0.5
v 3.5 12 -0.5
v 3.5 13 -0.5
v -3.5 0 -1.5
v -3.5 1 -1.5
v -3.5 2 -1.5
v -3.5 4 -1.5
v -3.5 6 -1.5
v -3.5 7 -1.5
v -3.5 9 -1.5
v -3.5 12 -1.5
v -2.5 0 -1.5
v -2.5 1 -1.5
v -2.5 2 -1.5
v -2.5 4 -1.5
v -2.5 6 -1.5
v -2.5 7 -1.5
v -2.5 12 -1.5
v -2.5 13 -1.5
v -1.5 8 -1.5
v -1.5 9 -1.5
v -1.5 10 -1.5
v -1.5 13 -1.5
v 1.5 8 -1.5
v 1.5 9 -1.5
v 1.5 10 -1.5
v 1.5 13 -1.5
v 2.5 0 -1.5
v 2.5 1 -1.5
v 2.5 2 -1.5
v 2.5 4 -1.5
v 2.5 6 -1.5
v 2.5 7 -1.5
v 2.5 12 -1.5
v 2.5 13 -1.5
v 3.5 0 -1.5
v 3.5 1 -1.5
v 3.5 2 -1.5
v 3.5 4 -1.5
v 3.5 6 -1.5
v 3.5 7 -1.5
v 3.5 9 -1.5
v 3.5 12 -1.5
v -2.5 2 -2.5
v -2.5 3 -2.5
v -1.5 7 -2.5
v -1.5 8 -2.5
v -0.5 6 -2.5
v -0.5 7 -2.5
v 0.5 6 -2.5
v 0.5 7 -2.5
v 1.5 7 -2.5
v 1.5 8 -2.5
v 2.5 2 -2.5
v 2.5 3 -2.5
v -4.5 4 -3.5
v -4.5 7 -3.5
v -3.5 5 -3.5
v -3.5 6 -3.5
v -3.5 7 -3.5
v -2.5 4 -3.5
v -2.5 5 -3.5
v -2.5 6 -3.5
v -2.5 7 -3.5
v -1.5 4 -3.5
v -1.5 6 -3.5
v -1.5 10 -3.5
v -1.5 14 -3.5
v -0.5 6 -3.5
v -0.5 7 -3.5
v 0.5 6 -3.5
v 0.5 7 -3.5
v 1.5 4 -3.5
v 1.5 6 -3.5
v 1.5 10 -3.5
v 1.5 14 -3.5
v 2.5 4 -3.5
v 2.5 5 -3.5
v 2.5 6 -3.5
v 2.5 7 -3.5
v 3.5 5 -3.5
v 3.5 6 -3.5
v 3.5 7 -3.5
v 4.5 4 -3.5
v 4.5 7 -3.5
v -5.5 3 -4.5
v -5.5 7 -4.5
v -4.5 3 -4.5
v -4.5 7 -4.5
v -2.5 3 -4.5
v -2.5 4 -4.5
v -1.5 4 -4.5
v 1.5 4 -4.5
v 2.5 3 -4.5
v 2.5 4 -4.5
v 4.5 3 -4.5
v 4.5 7 -4.5
v 5.5 3 -4.5
v 5.5 7 -4.5
v -1.5 4 -5.5
v -1.5 5 -5.5
v 1.5 4 -5.5
v 1.5 5 -5.5
v -1.5 5 -6.5
v -1.5 6 -6.5
v 1.5 5 -6.5
v 1.5 6 -6.5
v -4.5 0 2.5
v -3.5 0 2.5
v -2.5 0 2.5
v -1.5 0 2.5
v 1.5 0 2.5
v 2.5 0 2.5
v 3.5 0 2.5
v 4.5 0 2.5
v -4.5 0 1.5
v -3.5 0 1.5
v -2.5 0 1.5
v -1.5 0 1.5
v 1.5 0 1.5
v 2.5 0 1.5
v 3.5 0 1.5
v 4.5 0 1.5
v -3.5 0 -1.5
v -2.5 0 -1.5
v 2.5 0 -1.5
v 3.5 0 -1.5
v -3.5 2 1.5
v -1.5 2 1.5
v 1.5 2 1.5
v 3.5 2 1.5
v -3.5 2 0.5
v -2.5 2 0.5
v -1.5 2 0.5
v 1.5 2 0.5
v 2.5 2 0.5
v 3.5 2 0.5
v -3.5 2 -0.5
v -2.5 2 -0.5
v -1.5 2 -0.5
v 1.5 2 -0.5
v 2.5 2 -0.5
v 3.5 2 -0.5
v -3.5 2 -1.5
v -2.5 2 -1.5
v 2.5 2 -1.5
v 3.5 2 -1.5
v -2.5 2 -2.5
v 2.5 2 -2.5
v -2.5 3 2.5
v 2.5 3 2.5
v -2.5 3 1.5
v -1.5 3 1.5
v 1.5 3 1.5
v 2.5 3 1.5
v -5.5 3 0.5
v -4.5 3 0.5
v -1.5 3 0.5
v 1.5 3 0.5
v 4.5 3 0.5
v 5.5 3 0.5
v -1.5 3 -0.5
v 1.5 3 -0.5
v -2.5 3 -2.5
v 2.5 3 -2.5
v -5.5 3 -4.5
v -4.5 3 -4.5
v -2.5 3 -4.5
v 2.5 3 -4.5
v 4.5 3 -4.5
v 5.5 3 -4.5
v -2.5 4 3.5
v 2.5 4 3.5
v -3.5 4 2.5
v -2.5 4 2.5
v 2.5 4 2.5
v 3.5 4 2.5
v -3.5 4 1.5
v -2.5 4 1.5
v -1.5 4 1.5
v 1.5 4 1.5
v 2.5 4 1.5
v 3.5 4 1.5
v -4.5 4 0.5
v -3.5 4 0.5
v -1.5 4 0.5
v 1.5 4 0.5
v 3.5 4 0.5
v 4.5 4 0.5
v -3.5 4 -1.5
v -2.5 4 -1.5
v 2.5 4 -1.5
v 3.5 4 -1.5
v -4.5 4 -3.5
v -2.5 4 -3.5
v 2.5 4 -3.5
v 4.5 4 -3.5
v -1.5 4 -4.5
v 1.5 4 -4.5
v -1.5 4 -5.5
v 1.5 4 -5.5
v -1.5 5 -5.5
v 1.5 5 -5.5
v -1.5 5 -6.5
v 1.5 5 -6.5
v -3.5 8 3.5
v -1.5 8 3.5
v 1.5 8 3.5
v 3.5 8 3.5
v -1.5 8 2.5
v 1.5 8 2.5
v -2.5 8 1.5
v 2.5 8 1.5
v -3.5 8 -0.5
v -2.5 8 -0.5
v 2.5 8 -0.5
v 3.5 8 -0.5
v -1.5 9 4.5
v 1.5 9 4.5
v -1.5 9 3.5
v 1.5 9 3.5
v -3.5 9 -0.5
v -1.5 9 -0.5
v 1.5 9 -0.5
v 3.5 9 -0.5
v -3.5 9 -1.5
v -1.5 9 -1.5
v 1.5 9 -1.5
v 3.5 9 -1.5
v -1.5 10 -1.5
v 1.5 10 -1.5
v -1.5 10 -3.5
v 1.5 10 -3.5
v -4.5 1 2.5
v -3.5 1 2.5
v -2.5 1 2.5
v -1.5 1 2.5
v 1.5 1 2.5
v 2.5 1 2.5
v 3.5 1 2.5
v 4.5 1 2.5
v -4.5 1 1.5
v -3.5 1 1.5
v -2.5 1 1.5
v -1.5 1 1.5
v 1.5 1 1.5
v 2.5 1 1.5
v 3.5 1 1.5
v 4.5 1 1.5
v -3.5 1 0.5
v -2.5 1 0.5
v 2.5 1 0.5
v 3.5 1 0.5
v -3.5 1 -0.5
v -2.5 1 -0.5
v 2.5 1 -0.5
v 3.5 1 -0.5
v -3.5 1 -1.5
v -2.5 1 -1.5
v 2.5 1 -1.5
v 3.5 1 -1.5
v -2.5 4 -3.5
v -1.5 4 -3.5
v 1.5 4 -3.5
v 2.5 4 -3.5
v -2.5 4 -4.5
v -1.5 4 -4.5
v 1.5 4 -4.5
v 2.5 4 -4.5
v -3.5 6 2.5
v -2.5 6 2.5
v 2.5 6 2.5
v 3.5 6 2.5
v -3.5 6 0.5
v -2.5 6 0.5
v 2.5 6 0.5
v 3.5 6 0.5
v -3.5 6 -1.5
v -2.5 6 -1.5
v 2.5 6 -1.5
v 3.5 6 -1.5
v -0.5 6 -2.5
v 0.5 6 -2.5
v -3.5 6 -3.5
v -2.5 6 -3.5
v -1.5 6 -3.5
v -0.5 6 -3.5
v 0.5 6 -3.5
v 1.5 6 -3.5
v 2.5 6 -3.5
v 3.5 6 -3.5
v -1.5 6 -6.5
v 1.5 6 -6.5
v -2.5 7 3.5
v 2.5 7 3.5
v -2.5 7 1.5
v 2.5 7 1.5
v -5.5 7 0.5
v -2.5 7 0.5
v 2.5 7 0.5
v 5.5 7 0.5
v -2.5 7 -0.5
v -1.5 7 -0.5
v 1.5 7 -0.5
v 2.5 7 -0.5
v -3.5 7 -1.5
v -2.5 7 -1.5
v 2.5 7 -1.5
v 3.5 7 -1.5
v -1.5 7 -2.5
v -0.5 7 -2.5
v 0.5 7 -2.5
v 1.5 7 -2.5
v -4.5 7 -3.5
v -3.5 7 -3.5
v -2.5 7 -3.5
v -0.5 7 -3.5
v 0.5 7 -3.5
v 2.5 7 -3.5
v 3.5 7 -3.5
v 4.5 7 -3.5
v -5.5 7 -4.5
v -4.5 7 -4.5
v 4.5 7 -4.5
v 5.5 7 -4.5
v -1.5 8 -1.5
v 1.5 8 -1.5
v -1.5 8 -2.5
v 1.5 8 -2.5
v -1.5 10 4.5
v 1.5 10 4.5
v -3.5 10 3.5
v -1.5 10 3.5
v 1.5 10 3.5
v 3.5 10 3.5
v -3.5 10 2.5
v -1.5 10 2.5
v 1.5 10 2.5
v 3.5 10 2.5
v -3.5 12 -0.5
v -2.5 12 -0.5
v 2.5 12 -0.5
v 3.5 12 -0.5
v -3.5 12 -1.5
v -2.5 12 -1.5
v 2.5 12 -1.5
v 3.5 12 -1.5
v -3.5 13 2.5
v 3.5 13 2.5
v -1.5 13 1.5
v 1.5 13 1.5
v -3.5 13 -0.5
v -2.5 13 -0.5
v 2.5 13 -0.5
v 3.5 13 -0.5
v -2.5 13 -1.5
v -1.5 13 -1.5
v 1.5 13 -1.5
v 2.5 13 -1.5
v -1.5 14 1.5
v 1.5 14 1.5
v -1.5 14 -3.5
v 1.5 14 -3.5

# faces
f 3/2/1 2/2/1 1/2/1
f 4/2/1 2/2/1 3/2/1
f 7/4/1 6/4/1 5/4/1
f 8/4/1 6/4/1 7/4/1
f 11/4/1 10/4/1 9/4/1
f 12/4/1 10/4/1 11/4/1
f 13/4/1 10/4/1 12/4/1
f 14/4/1 10/4/1 13/4/1
f 16/4/1 13/4/1 12/4/1
f 17/4/1 13/4/1 16/4/1
f 19/3/1 16/3/1 15/3/1
f 19/4/1 17/4/1 16/4/1
f 20/3/1 18/3/1 17/3/1
f 20/4/1 17/4/1 19/4/1
f 22/3/1 19/3/1 15/3/1
f 22/3/1 20/3/1 19/3/1
f 23/3/1 20/3/1 22/3/1
f 24/3/1 18/3/1 20/3/1
f 24/3/1 20/3/1 23/3/1
f 25/2/1 23/2/1 22/2/1
f 25/2/1 22/2/1 21/2/1
f 26/2/1 23/2/1 25/2/1
f 29/2/1 28/2/1 27/2/1
f 31/2/1 29/2/1 27/2/1
f 31/2/1 30/2/1 29/2/1
f 32/2/1 30/2/1 31/2/1
f 33/2/1 30/2/1 32/2/1
f 34/2/1 30/2/1 33/2/1
f 35/2/1 33/2/1 32/2/1
f 36/2/1 33/2/1 35/2/1
f 39/4/1 38/4/1 37/4/1
f 40/4/1 38/4/1 39/4/1
f 45/2/1 42/2/1 41/2/1
f 48/2/1 44/2/1 43/2/1
f 49/2/1 44/2/1 48/2/1
f 50/2/1 46/2/1 45/2/1
f 50/2/1 45/2/1 41/2/1
f 51/2/1 46/2/1 50/2/1
f 52/2/1 46/2/1 51/2/1
f 53/2/1 48/2/1 47/2/1
f 57/2/1 53/2/1 47/2/1
f 57/2/1 54/2/1 53/2/1
f 58/2/1 54/2/1 57/2/1
f 59/2/1 54/2/1 58/2/1
f 61/2/1 56/2/1 55/2/1
f 62/2/1 56/2/1 61/2/1
f 63/2/1 60/2/1 59/2/1
f 63/2/1 59/2/1 58/2/1
f 64/2/1 60/2/1 63/2/1
f 67/2/1 66/2/1 65/2/1
f 68/2/1 66/2/1 67/2/1
f 72/2/1 70/2/1 69/2/1
f 72/2/1 71/2/1 70/2/1
f 74/2/1 72/2/1 69/2/1
f 74/2/1 73/2/1 72/2/1
f 75/2/1 73/2/1 74/2/1
f 78/2/1 77/2/1 76/2/1
f 79/2/1 77/2/1 78/2/1
f 82/2/1 78/2/1 76/2/1
f 83/2/1 78/2/1 82/2/1
f 84/5/1 81/5/1 80/5/1
f 85/5/1 81/5/1 84/5/1
f 89/7/1 87/7/1 86/7/1
f 90/7/1 89/7/1 88/7/1
f 91/7/1 87/7/1 89/7/1
f 91/7/1 89/7/1 90/7/1
f 94/2/1 93/2/1 92/2/1
f 95/2/1 93/2/1 94/2/1
f 98/4/1 97/4/1 96/4/1
f 99/4/1 97/4/1 98/4/1
f 103/3/1 101/3/1 100/3/1
f 104/2/1 102/2/1 101/2/1
f 104/3/1 101/3/1 103/3/1
f 105/2/1 102/2/1 104/2/1
f 106/2/1 104/2/1 103/2/1
f 107/2/1 104/2/1 106/2/1
f 110/4/1 109/4/1 108/4/1
f 111/4/1 109/4/1 110/4/1
f 112/4/1 109/4/1 111/4/1
f 113/4/1 109/4/1 112/4/1
f 114/4/1 112/4/1 111/4/1
f 115/4/1 112/4/1 114/4/1
f 118/4/1 117/4/1 116/4/1
f 119/4/1 117/4/1 118/4/1
f 122/2/1 121/2/1 120/2/1
f 123/2/1 121/2/1 122/2/1
f 126/2/1 125/2/1 124/2/1
f 127/2/1 125/2/1 126/2/1
f 128/2/1 125/2/1 127/2/1
f 129/2/1 125/2/1 128/2/1
f 130/2/2 131/2/2 132/2/2
f 132/2/2 131/2/2 133/2/2
f 133/2/2 131/2/2 134/2/2
f 134/2/2 131/2/2 135/2/2
f 136/4/2 137/4/2 138/4/2
f 138/4/2 137/4/2 139/4/2
f 140/2/2 141/2/2 142/2/2
f 142/2/2 141/2/2 143/2/2
f 144/4/2 145/4/2 146/4/2
f 146/4/2 145/4/2 147/4/2
f 147/4/2 145/4/2 148/4/2
f 148/4/2 145/4/2 149/4/2
f 147/4/2 148/4/2 150/4/2
f 150/4/2 148/4/2 151/4/2
f 152/4/2 153/4/2 154/4/2
f 154/4/2 153/4/2 155/4/2
f 156/3/2 157/3/2 159/3/2
f 157/2/2 158/2/2 160/2/2
f 159/3/2 157/3/2 160/3/2
f 160/2/2 158/2/2 161/2/2
f 159/2/2 160/2/2 162/2/2
f 162/2/2 160/2/2 163/2/2
f 164/2/2 165/2/2 166/2/2
f 166/2/2 165/2/2 167/2/2
f 168/2/2 169/2/2 171/2/2
f 169/2/2 170/2/2 171/2/2
f 168/2/2 171/2/2 173/2/2
f 171/2/2 172/2/2 173/2/2
f 173/2/2 172/2/2 174/2/2
f 175/2/2 176/2/2 177/2/2
f 177/2/2 176/2/2 178/2/2
f 175/2/2 177/2/2 181/2/2
f 181/2/2 177/2/2 182/2/2
f 179/5/2 180/5/2 183/5/2
f 183/5/2 180/5/2 184/5/2
f 185/7/2 186/7/2 188/7/2
f 187/7/2 188/7/2 189/7/2
f 188/7/2 186/7/2 190/7/2
f 189/7/2 188/7/2 190/7/2
f 191/4/2 192/4/2 193/4/2
f 193/4/2 192/4/2 194/4/2
f 195/2/2 196/2/2 199/2/2
f 197/2/2 198/2/2 202/2/2
f 202/2/2 198/2/2 203/2/2
f 199/2/2 200/2/2 204/2/2
f 195/2/2 199/2/2 204/2/2
f 204/2/2 200/2/2 205/2/2
f 205/2/2 200/2/2 206/2/2
f 201/2/2 202/2/2 207/2/2
f 201/2/2 207/2/2 211/2/2
f 207/2/2 208/2/2 211/2/2
f 211/2/2 208/2/2 212/2/2
f 212/2/2 208/2/2 213/2/2
f 209/2/2 210/2/2 215/2/2
f 215/2/2 210/2/2 216/2/2
f 213/2/2 214/2/2 217/2/2
f 212/2/2 213/2/2 217/2/2
f 217/2/2 214/2/2 218/2/2
f 219/2/2 220/2/2 221/2/2
f 221/2/2 220/2/2 222/2/2
f 223/4/2 224/4/2 225/4/2
f 225/4/2 224/4/2 226/4/2
f 226/4/2 224/4/2 227/4/2
f 227/4/2 224/4/2 228/4/2
f 226/4/2 227/4/2 230/4/2
f 230/4/2 227/4/2 231/4/2
f 229/3/2 230/3/2 233/3/2
f 230/4/2 231/4/2 233/4/2
f 231/3/2 232/3/2 234/3/2
f 233/4/2 231/4/2 234/4/2
f 229/3/2 233/3/2 236/3/2
f 233/3/2 234/3/2 236/3/2
f 236/3/2 234/3/2 237/3/2
f 234/3/2 232/3/2 238/3/2
f 237/3/2 234/3/2 238/3/2
f 236/2/2 237/2/2 239/2/2
f 235/2/2 236/2/2 239/2/2
f 239/2/2 237/2/2 240/2/2
f 241/2/2 242/2/2 243/2/2
f 241/2/2 243/2/2 245/2/2
f 243/2/2 244/2/2 245/2/2
f 245/2/2 244/2/2 246/2/2
f 246/2/2 244/2/2 247/2/2
f 247/2/2 244/2/2 248/2/2
f 246/2/2 247/2/2 249/2/2
f 249/2/2 247/2/2 250/2/2
f 251/4/2 252/4/2 253/4/2
f 253/4/2 252/4/2 254/4/2
f 255/2/2 256/2/2 257/2/2
f 257/2/2 256/2/2 258/2/2
f 261/5/3 260/5/3 259/5/3
f 262/5/3 260/5/3 261/5/3
f 267/2/3 264/2/3 263/2/3
f 268/2/3 264/2/3 267/2/3
f 269/2/3 264/2/3 268/2/3
f 270/6/3 268/6/3 267/6/3
f 271/6/3 268/6/3 270/6/3
f 273/2/3 266/2/3 265/2/3
f 274/2/3 266/2/3 273/2/3
f 275/2/3 272/2/3 271/2/3
f 275/2/3 271/2/3 270/2/3
f 276/2/3 272/2/3 275/2/3
f 279/4/3 278/4/3 277/4/3
f 280/4/3 278/4/3 279/4/3
f 288/2/3 282/2/3 281/2/3
f 289/2/3 282/2/3 288/2/3
f 290/4/3 286/4/3 285/4/3
f 291/4/3 286/4/3 290/4/3
f 292/2/3 284/2/3 283/2/3
f 293/2/3 284/2/3 292/2/3
f 294/2/3 284/2/3 293/2/3
f 295/2/3 293/2/3 292/2/3
f 295/1/3 294/1/3 293/1/3
f 296/2/3 284/2/3 294/2/3
f 296/1/3 294/1/3 295/1/3
f 297/2/3 295/2/3 292/2/3
f 297/2/3 296/2/3 295/2/3
f 298/2/3 284/2/3 296/2/3
f 298/2/3 296/2/3 297/2/3
f 301/2/3 297/2/3 292/2/3
f 302/1/3 298/1/3 297/1/3
f 302/2/3 297/2/3 301/2/3
f 303/2/3 284/2/3 298/2/3
f 303/1/3 298/1/3 302/1/3
f 304/4/3 300/4/3 299/4/3
f 305/4/3 300/4/3 304/4/3
f 306/2/3 288/2/3 287/2/3
f 307/2/3 288/2/3 306/2/3
f 311/2/3 308/2/3 307/2/3
f 312/2/3 308/2/3 311/2/3
f 313/2/3 302/2/3 301/2/3
f 313/2/3 303/2/3 302/2/3
f 314/2/3 284/2/3 303/2/3
f 314/2/3 303/2/3 313/2/3
f 315/4/3 310/4/3 309/4/3
f 316/4/3 310/4/3 315/4/3
f 321/4/3 318/4/3 317/4/3
f 322/4/3 318/4/3 321/4/3
f 323/3/3 320/3/3 319/3/3
f 324/3/3 320/3/3 323/3/3
f 327/3/3 323/3/3 319/3/3
f 328/3/3 323/3/3 327/3/3
f 333/7/3 330/7/3 329/7/3
f 334/7/3 330/7/3 333/7/3
f 337/3/3 332/3/3 331/3/3
f 339/2/3 326/2/3 325/2/3
f 340/2/3 326/2/3 339/2/3
f 341/4/3 336/4/3 335/4/3
f 342/4/3 336/4/3 341/4/3
f 343/3/3 338/3/3 337/3/3
f 343/3/3 337/3/3 331/3/3
f 344/3/3 338/3/3 343/3/3
f 347/2/3 346/2/3 345/2/3
f 348/2/3 346/2/3 347/2/3
f 351/2/3 346/2/3 348/2/3
f 352/2/3 346/2/3 351/2/3
f 353/4/3 350/4/3 349/4/3
f 354/4/3 350/4/3 353/4/3
f 355/2/3 346/2/3 352/2/3
f 356/2/3 346/2/3 355/2/3
f 359/2/3 358/2/3 357/2/3
f 360/2/3 358/2/3 359/2/3
f 365/4/3 362/4/3 361/4/3
f 366/4/3 362/4/3 365/4/3
f 368/2/3 364/2/3 363/2/3
f 370/2/3 368/2/3 367/2/3
f 371/2/3 370/2/3 369/2/3
f 372/2/3 364/2/3 368/2/3
f 372/2/3 370/2/3 371/2/3
f 372/2/3 368/2/3 370/2/3
f 375/2/3 374/2/3 373/2/3
f 376/2/3 374/2/3 375/2/3
f 377/4/4 378/4/4 379/4/4
f 379/4/4 378/4/4 380/4/4
f 381/4/4 382/4/4 383/4/4
f 383/4/4 382/4/4 384/4/4
f 385/2/4 386/2/4 389/2/4
f 389/2/4 386/2/4 390/2/4
f 387/4/4 388/4/4 391/4/4
f 391/4/4 388/4/4 392/4/4
f 393/4/4 394/4/4 395/4/4
f 395/4/4 394/4/4 396/4/4
f 397/4/4 398/4/4 403/4/4
f 403/4/4 398/4/4 404/4/4
f 399/2/4 400/2/4 406/2/4
f 401/2/4 402/2/4 407/2/4
f 407/2/4 402/2/4 408/2/4
f 405/2/4 406/2/4 409/2/4
f 406/2/4 400/2/4 410/2/4
f 409/2/4 406/2/4 410/2/4
f 411/2/4 412/2/4 415/2/4
f 415/2/4 412/2/4 416/2/4
f 413/4/4 414/4/4 419/4/4
f 419/4/4 414/4/4 420/4/4
f 416/2/4 412/2/4 421/2/4
f 421/2/4 412/2/4 422/2/4
f 417/2/4 418/2/4 423/2/4
f 423/2/4 418/2/4 424/2/4
f 425/4/4 426/4/4 433/4/4
f 433/4/4 426/4/4 434/4/4
f 427/3/4 428/3/4 435/3/4
f 435/3/4 428/3/4 436/3/4
f 429/2/4 430/2/4 437/2/4
f 437/2/4 430/2/4 438/2/4
f 431/2/4 432/2/4 439/2/4
f 439/2/4 440/2/4 442/2/4
f 431/2/4 439/2/4 442/2/4
f 442/2/4 440/2/4 443/2/4
f 443/2/4 440/2/4 444/2/4
f 441/2/4 442/2/4 445/2/4
f 442/2/4 443/2/4 445/2/4
f 445/2/4 443/2/4 446/2/4
f 446/2/4 443/2/4 447/2/4
f 447/2/4 448/2/4 455/2/4
f 446/2/4 447/2/4 455/2/4
f 455/2/4 448/2/4 456/2/4
f 449/4/4 450/4/4 457/4/4
f 457/4/4 450/4/4 458/4/4
f 451/3/4 452/3/4 459/3/4
f 459/3/4 452/3/4 460/3/4
f 453/2/4 454/2/4 461/2/4
f 461/2/4 454/2/4 462/2/4
f 446/2/4 455/2/4 463/2/4
f 463/2/4 455/2/4 464/2/4
f 467/2/4 468/2/4 470/2/4
f 469/2/4 470/2/4 471/2/4
f 470/2/4 468/2/4 472/2/4
f 471/2/4 470/2/4 472/2/4
f 472/2/4 468/2/4 473/2/4
f 473/2/4 468/2/4 474/2/4
f 465/2/4 466/2/4 475/2/4
f 475/2/4 466/2/4 476/2/4
f 477/2/4 478/2/4 479/2/4
f 479/2/4 478/2/4 480/2/4
f 480/2/4 478/2/4 481/2/4
f 477/2/4 479/2/4 482/2/4
f 479/3/4 480/3/4 483/3/4
f 482/2/4 479/2/4 483/2/4
f 483/3/4 480/3/4 484/3/4
f 482/2/4 483/2/4 486/2/4
f 484/2/4 485/2/4 486/2/4
f 483/2/4 484/2/4 486/2/4
f 486/2/4 485/2/4 487/2/4
f 487/2/4 485/2/4 490/2/4
f 490/2/4 485/2/4 491/2/4
f 492/2/4 493/2/4 495/2/4
f 488/7/4 489/7/4 496/7/4
f 496/7/4 489/7/4 497/7/4
f 494/2/4 495/2/4 498/2/4
f 498/2/4 495/2/4 499/2/4
f 495/2/4 493/2/4 500/2/4
f 499/2/4 495/2/4 500/2/4
f 500/2/4 493/2/4 501/2/4
f 498/2/4 499/2/4 502/2/4
f 499/3/4 500/3/4 502/3/4
f 502/3/4 500/3/4 503/3/4
f 498/2/4 502/2/4 505/2/4
f 503/2/4 504/2/4 505/2/4
f 502/2/4 503/2/4 505/2/4
f 505/2/4 504/2/4 506/2/4
f 507/2/4 508/2/4 509/2/4
f 509/2/4 508/2/4 510/2/4
f 511/2/4 512/2/4 513/2/4
f 511/2/4 513/2/4 514/2/4
f 511/2/4 514/2/4 515/2/4
f 515/2/4 514/2/4 516/2/4
f 517/2/4 518/2/4 519/2/4
f 519/2/4 518/2/4 520/2/4
f 521/2/4 522/2/4 523/2/4
f 523/2/4 522/2/4 524/2/4
f 525/2/4 526/2/4 527/2/4
f 527/2/4 526/2/4 528/2/4
f 537/4/5 530/4/5 529/4/5
f 538/4/5 530/4/5 537/4/5
f 539/4/5 532/4/5 531/4/5
f 540/4/5 532/4/5 539/4/5
f 541/4/5 534/4/5 533/4/5
f 542/4/5 534/4/5 541/4/5
f 543/4/5 536/4/5 535/4/5
f 544/4/5 536/4/5 543/4/5
f 545/4/5 539/4/5 538/4/5
f 546/4/5 539/4/5 545/4/5
f 547/4/5 543/4/5 542/4/5
f 548/4/5 543/4/5 547/4/5
f 553/3/5 550/3/5 549/3/5
f 554/3/5 550/3/5 553/3/5
f 555/3/5 550/3/5 554/3/5
f 556/3/5 552/3/5 551/3/5
f 557/3/5 552/3/5 556/3/5
f 558/3/5 552/3/5 557/3/5
f 560/2/5 555/2/5 554/2/5
f 561/2/5 555/2/5 560/2/5
f 562/2/5 557/2/5 556/2/5
f 563/2/5 557/2/5 562/2/5
f 565/3/5 560/3/5 559/3/5
f 566/2/5 561/2/5 560/2/5
f 566/3/5 560/3/5 565/3/5
f 566/2/5 562/2/5 561/2/5
f 566/2/5 563/2/5 562/2/5
f 567/3/5 564/3/5 563/3/5
f 567/2/5 563/2/5 566/2/5
f 568/3/5 564/3/5 567/3/5
f 569/2/5 567/2/5 566/2/5
f 570/2/5 567/2/5 569/2/5
f 573/2/5 572/2/5 571/2/5
f 574/2/5 572/2/5 573/2/5
f 575/2/5 572/2/5 574/2/5
f 576/2/5 572/2/5 575/2/5
f 583/2/5 580/2/5 579/2/5
f 584/2/5 580/2/5 583/2/5
f 587/2/5 578/2/5 577/2/5
f 588/2/5 578/2/5 587/2/5
f 589/2/5 586/2/5 585/2/5
f 590/2/5 586/2/5 589/2/5
f 591/2/5 582/2/5 581/2/5
f 592/2/5 582/2/5 591/2/5
f 596/2/5 594/2/5 593/2/5
f 597/2/5 594/2/5 596/2/5
f 599/2/5 596/2/5 595/2/5
f 600/2/5 596/2/5 599/2/5
f 603/2/5 598/2/5 597/2/5
f 604/2/5 598/2/5 603/2/5
f 607/2/5 602/2/5 601/2/5
f 608/2/5 602/2/5 607/2/5
f 611/2/5 606/2/5 605/2/5
f 614/2/5 610/2/5 609/2/5
f 615/2/5 612/2/5 611/2/5
f 615/2/5 611/2/5 605/2/5
f 616/2/5 612/2/5 615/2/5
f 617/2/5 614/2/5 613/2/5
f 618/2/5 610/2/5 614/2/5
f 618/2/5 614/2/5 617/2/5
f 621/2/5 620/2/5 619/2/5
f 622/2/5 620/2/5 621/2/5
f 625/2/5 624/2/5 623/2/5
f 626/2/5 624/2/5 625/2/5
f 631/2/5 628/2/5 627/2/5
f 631/6/5 629/6/5 628/6/5
f 632/2/5 630/2/5 629/2/5
f 632/6/5 629/6/5 631/6/5
f 633/2/5 631/2/5 627/2/5
f 633/2/5 632/2/5 631/2/5
f 634/2/5 630/2/5 632/2/5
f 634/2/5 632/2/5 633/2/5
f 635/2/5 633/2/5 627/2/5
f 636/2/5 633/2/5 635/2/5
f 637/2/5 630/2/5 634/2/5
f 638/2/5 630/2/5 637/2/5
f 641/5/5 640/5/5 639/5/5
f 642/5/5 640/5/5 641/5/5
f 647/2/5 644/2/5 643/2/5
f 648/2/5 644/2/5 647/2/5
f 649/2/5 646/2/5 645/2/5
f 650/2/5 646/2/5 649/2/5
f 653/7/5 652/7/5 651/7/5
f 654/7/5 652/7/5 653/7/5
f 655/4/6 656/4/6 663/4/6
f 663/4/6 656/4/6 664/4/6
f 657/4/6 658/4/6 665/4/6
f 665/4/6 658/4/6 666/4/6
f 659/4/6 660/4/6 667/4/6
f 667/4/6 660/4/6 668/4/6
f 661/4/6 662/4/6 669/4/6
f 669/4/6 662/4/6 670/4/6
f 664/4/6 665/4/6 671/4/6
f 671/4/6 665/4/6 672/4/6
f 668/4/6 669/4/6 673/4/6
f 673/4/6 669/4/6 674/4/6
f 675/4/6 676/4/6 679/4/6
f 679/4/6 676/4/6 680/4/6
f 677/4/6 678/4/6 681/4/6
f 681/4/6 678/4/6 682/4/6
f 683/2/6 684/2/6 687/2/6
f 687/2/6 684/2/6 688/2/6
f 685/2/6 686/2/6 689/2/6
f 689/2/6 686/2/6 690/2/6
f 691/2/6 692/2/6 695/2/6
f 695/2/6 692/2/6 696/2/6
f 693/2/6 694/2/6 697/2/6
f 697/2/6 694/2/6 698/2/6
f 699/3/6 700/3/6 705/3/6
f 705/3/6 700/3/6 706/3/6
f 703/3/6 704/3/6 708/3/6
f 708/3/6 704/3/6 709/3/6
f 701/3/6 702/3/6 711/3/6
f 711/3/6 702/3/6 712/3/6
f 709/2/6 710/2/6 713/2/6
f 707/2/6 708/2/6 713/2/6
f 708/2/6 709/2/6 713/2/6
f 713/2/6 710/2/6 714/2/6
f 715/2/6 716/2/6 717/2/6
f 717/2/6 716/2/6 718/2/6
f 719/2/6 720/2/6 723/2/6
f 721/2/6 722/2/6 726/2/6
f 723/2/6 724/2/6 727/2/6
f 719/2/6 723/2/6 727/2/6
f 727/2/6 724/2/6 728/2/6
f 725/2/6 726/2/6 729/2/6
f 726/2/6 722/2/6 729/2/6
f 729/2/6 722/2/6 730/2/6
f 728/2/6 724/2/6 731/2/6
f 725/2/6 729/2/6 734/2/6
f 719/2/6 727/2/6 735/2/6
f 735/2/6 727/2/6 736/2/6
f 731/2/6 732/2/6 737/2/6
f 728/2/6 731/2/6 737/2/6
f 737/2/6 732/2/6 738/2/6
f 733/2/6 734/2/6 739/2/6
f 734/2/6 729/2/6 740/2/6
f 739/2/6 734/2/6 740/2/6
f 730/2/6 722/2/6 741/2/6
f 741/2/6 722/2/6 742/2/6
f 719/2/6 735/2/6 743/2/6
f 743/2/6 735/2/6 744/2/6
f 742/2/6 722/2/6 745/2/6
f 745/2/6 722/2/6 746/2/6
f 747/2/6 748/2/6 749/2/6
f 749/2/6 748/2/6 750/2/6
f 751/5/6 752/5/6 754/5/6
f 754/5/6 752/5/6 755/5/6
f 753/2/6 754/2/6 757/2/6
f 754/5/6 755/5/6 758/5/6
f 757/2/6 754/2/6 758/2/6
f 755/2/6 756/2/6 759/2/6
f 758/5/6 755/5/6 759/5/6
f 759/2/6 756/2/6 760/2/6
f 761/2/6 762/2/6 765/2/6
f 765/2/6 762/2/6 766/2/6
f 763/2/6 764/2/6 767/2/6
f 767/2/6 764/2/6 768/2/6
f 769/2/6 770/2/6 771/2/6
f 771/2/6 770/2/6 772/2/6
f 769/2/6 771/2/6 773/2/6
f 773/2/6 771/2/6 774/2/6
f 772/2/6 770/2/6 775/2/6
f 775/2/6 770/2/6 776/2/6
f 774/2/6 771/2/6 777/2/6
f 777/2/6 771/2/6 778/2/6
f 772/2/6 775/2/6 779/2/6
f 779/2/6 775/2/6 780/2/6
f 781/7/6 782/7/6 783/7/6
f 783/7/6 782/7/6 784/7/6
