# MagicaVoxel @ Ephtracy

# group
g table

# material
mtllib table.mtl
usemtl palette

# normals
vn -1 0 0
vn 1 0 0
vn 0 0 1
vn 0 0 -1
vn 0 -1 0
vn 0 1 0

# texcoords
vt 0.0175781 0.5
vt 0.0214844 0.5
vt 0.0253906 0.5

# verts
v -14.5 6 9.5
v -14.5 6 -9.5
v -14.5 7 9.5
v -14.5 7 -9.5
v -14.5 8 9.5
v -14.5 8 -9.5
v -8.5 0 7.5
v -8.5 0 5.5
v -8.5 0 -5.5
v -8.5 0 -7.5
v -8.5 6 5.5
v -8.5 6 -5.5
v -8.5 7 7.5
v -8.5 7 -7.5
v 6.5 0 7.5
v 6.5 0 5.5
v 6.5 0 -5.5
v 6.5 0 -7.5
v 6.5 6 5.5
v 6.5 6 0.5
v 6.5 6 -0.5
v 6.5 6 -5.5
v 6.5 7 7.5
v 6.5 7 6.5
v 6.5 7 5.5
v 6.5 7 0.5
v 6.5 7 -0.5
v 6.5 7 -5.5
v 6.5 7 -6.5
v 6.5 7 -7.5
v 12.5 6 8.5
v 12.5 6 -8.5
v 12.5 7 8.5
v 12.5 7 3.5
v 12.5 7 2.5
v 12.5 7 -2.5
v 12.5 7 -3.5
v 12.5 7 -8.5
v -12.5 6 8.5
v -12.5 6 -8.5
v -12.5 7 8.5
v -12.5 7 3.5
v -12.5 7 2.5
v -12.5 7 -2.5
v -12.5 7 -3.5
v -12.5 7 -8.5
v -6.5 0 7.5
v -6.5 0 5.5
v -6.5 0 -5.5
v -6.5 0 -7.5
v -6.5 6 5.5
v -6.5 6 0.5
v -6.5 6 -0.5
v -6.5 6 -5.5
v -6.5 7 7.5
v -6.5 7 6.5
v -6.5 7 5.5
v -6.5 7 0.5
v -6.5 7 -0.5
v -6.5 7 -5.5
v -6.5 7 -6.5
v -6.5 7 -7.5
v 8.5 0 7.5
v 8.5 0 5.5
v 8.5 0 -5.5
v 8.5 0 -7.5
v 8.5 6 5.5
v 8.5 6 -5.5
v 8.5 7 7.5
v 8.5 7 -7.5
v 14.5 6 9.5
v 14.5 6 -9.5
v 14.5 7 9.5
v 14.5 7 -9.5
v 14.5 8 9.5
v 14.5 8 -9.5
v -14.5 6 9.5
v -14.5 7 9.5
v -14.5 8 9.5
v 14.5 6 9.5
v 14.5 7 9.5
v 14.5 8 9.5
v -8.5 0 7.5
v -8.5 7 7.5
v -6.5 0 7.5
v -6.5 7 7.5
v 6.5 0 7.5
v 6.5 7 7.5
v 8.5 0 7.5
v 8.5 7 7.5
v -6.5 6 0.5
v -6.5 7 0.5
v -3.5 7 0.5
v -2.5 7 0.5
v 2.5 7 0.5
v 3.5 7 0.5
v 6.5 6 0.5
v 6.5 7 0.5
v -8.5 0 -5.5
v -8.5 6 -5.5
v -6.5 0 -5.5
v -6.5 6 -5.5
v 6.5 0 -5.5
v 6.5 6 -5.5
v 8.5 0 -5.5
v 8.5 6 -5.5
v -12.5 6 -8.5
v -12.5 7 -8.5
v -9.5 7 -8.5
v -8.5 7 -8.5
v -3.5 7 -8.5
v -2.5 7 -8.5
v 2.5 7 -8.5
v 3.5 7 -8.5
v 8.5 7 -8.5
v 9.5 7 -8.5
v 12.5 6 -8.5
v 12.5 7 -8.5
v -12.5 6 8.5
v -12.5 7 8.5
v -9.5 7 8.5
v -8.5 7 8.5
v -3.5 7 8.5
v -2.5 7 8.5
v 2.5 7 8.5
v 3.5 7 8.5
v 8.5 7 8.5
v 9.5 7 8.5
v 12.5 6 8.5
v 12.5 7 8.5
v -8.5 0 5.5
v -8.5 6 5.5
v -6.5 0 5.5
v -6.5 6 5.5
v 6.5 0 5.5
v 6.5 6 5.5
v 8.5 0 5.5
v 8.5 6 5.5
v -6.5 6 -0.5
v -6.5 7 -0.5
v -3.5 7 -0.5
v -2.5 7 -0.5
v 2.5 7 -0.5
v 3.5 7 -0.5
v 6.5 6 -0.5
v 6.5 7 -0.5
v -8.5 0 -7.5
v -8.5 7 -7.5
v -6.5 0 -7.5
v -6.5 7 -7.5
v 6.5 0 -7.5
v 6.5 7 -7.5
v 8.5 0 -7.5
v 8.5 7 -7.5
v -14.5 6 -9.5
v -14.5 7 -9.5
v -14.5 8 -9.5
v 14.5 6 -9.5
v 14.5 7 -9.5
v 14.5 8 -9.5
v -8.5 0 7.5
v -6.5 0 7.5
v 6.5 0 7.5
v 8.5 0 7.5
v -8.5 0 5.5
v -6.5 0 5.5
v 6.5 0 5.5
v 8.5 0 5.5
v -8.5 0 -5.5
v -6.5 0 -5.5
v 6.5 0 -5.5
v 8.5 0 -5.5
v -8.5 0 -7.5
v -6.5 0 -7.5
v 6.5 0 -7.5
v 8.5 0 -7.5
v -14.5 6 9.5
v 14.5 6 9.5
v -12.5 6 8.5
v 12.5 6 8.5
v -8.5 6 5.5
v -6.5 6 5.5
v 6.5 6 5.5
v 8.5 6 5.5
v -6.5 6 0.5
v 6.5 6 0.5
v -6.5 6 -0.5
v 6.5 6 -0.5
v -8.5 6 -5.5
v -6.5 6 -5.5
v 6.5 6 -5.5
v 8.5 6 -5.5
v -12.5 6 -8.5
v 12.5 6 -8.5
v -14.5 6 -9.5
v 14.5 6 -9.5
v -12.5 7 8.5
v -9.5 7 8.5
v -8.5 7 8.5
v -3.5 7 8.5
v -2.5 7 8.5
v 2.5 7 8.5
v 3.5 7 8.5
v 8.5 7 8.5
v 9.5 7 8.5
v 12.5 7 8.5
v -8.5 7 7.5
v -6.5 7 7.5
v 6.5 7 7.5
v 8.5 7 7.5
v -6.5 7 6.5
v -3.5 7 6.5
v 3.5 7 6.5
v 6.5 7 6.5
v -6.5 7 5.5
v -3.5 7 5.5
v 3.5 7 5.5
v 6.5 7 5.5
v -12.5 7 3.5
v -9.5 7 3.5
v -2.5 7 3.5
v 2.5 7 3.5
v 9.5 7 3.5
v 12.5 7 3.5
v -12.5 7 2.5
v -9.5 7 2.5
v -2.5 7 2.5
v 2.5 7 2.5
v 9.5 7 2.5
v 12.5 7 2.5
v -6.5 7 0.5
v -3.5 7 0.5
v -2.5 7 0.5
v 2.5 7 0.5
v 3.5 7 0.5
v 6.5 7 0.5
v -6.5 7 -0.5
v -3.5 7 -0.5
v -2.5 7 -0.5
v 2.5 7 -0.5
v 3.5 7 -0.5
v 6.5 7 -0.5
v -12.5 7 -2.5
v -9.5 7 -2.5
v -2.5 7 -2.5
v 2.5 7 -2.5
v 9.5 7 -2.5
v 12.5 7 -2.5
v -12.5 7 -3.5
v -9.5 7 -3.5
v -2.5 7 -3.5
v 2.5 7 -3.5
v 9.5 7 -3.5
v 12.5 7 -3.5
v -6.5 7 -5.5
v -3.5 7 -5.5
v 3.5 7 -5.5
v 6.5 7 -5.5
v -6.5 7 -6.5
v -3.5 7 -6.5
v 3.5 7 -6.5
v 6.5 7 -6.5
v -8.5 7 -7.5
v -6.5 7 -7.5
v 6.5 7 -7.5
v 8.5 7 -7.5
v -12.5 7 -8.5
v -9.5 7 -8.5
v -8.5 7 -8.5
v -3.5 7 -8.5
v -2.5 7 -8.5
v 2.5 7 -8.5
v 3.5 7 -8.5
v 8.5 7 -8.5
v 9.5 7 -8.5
v 12.5 7 -8.5
v -14.5 8 9.5
v 14.5 8 9.5
v -13.5 8 8.5
v -9.5 8 8.5
v -8.5 8 8.5
v -3.5 8 8.5
v -2.5 8 8.5
v 2.5 8 8.5
v 3.5 8 8.5
v 8.5 8 8.5
v 9.5 8 8.5
v 13.5 8 8.5
v -8.5 8 6.5
v -3.5 8 6.5
v 3.5 8 6.5
v 8.5 8 6.5
v -8.5 8 5.5
v -3.5 8 5.5
v 3.5 8 5.5
v 8.5 8 5.5
v -13.5 8 3.5
v -9.5 8 3.5
v -2.5 8 3.5
v 2.5 8 3.5
v 9.5 8 3.5
v 13.5 8 3.5
v -13.5 8 2.5
v -9.5 8 2.5
v -2.5 8 2.5
v 2.5 8 2.5
v 9.5 8 2.5
v 13.5 8 2.5
v -8.5 8 0.5
v -3.5 8 0.5
v 3.5 8 0.5
v 8.5 8 0.5
v -8.5 8 -0.5
v -3.5 8 -0.5
v 3.5 8 -0.5
v 8.5 8 -0.5
v -13.5 8 -2.5
v -9.5 8 -2.5
v -2.5 8 -2.5
v 2.5 8 -2.5
v 9.5 8 -2.5
v 13.5 8 -2.5
v -13.5 8 -3.5
v -9.5 8 -3.5
v -2.5 8 -3.5
v 2.5 8 -3.5
v 9.5 8 -3.5
v 13.5 8 -3.5
v -8.5 8 -5.5
v -3.5 8 -5.5
v 3.5 8 -5.5
v 8.5 8 -5.5
v -8.5 8 -6.5
v -3.5 8 -6.5
v 3.5 8 -6.5
v 8.5 8 -6.5
v -13.5 8 -8.5
v -9.5 8 -8.5
v -8.5 8 -8.5
v -3.5 8 -8.5
v -2.5 8 -8.5
v 2.5 8 -8.5
v 3.5 8 -8.5
v 8.5 8 -8.5
v 9.5 8 -8.5
v 13.5 8 -8.5
v -14.5 8 -9.5
v 14.5 8 -9.5

# faces
f 3/2/1 2/2/1 1/2/1
f 4/2/1 2/2/1 3/2/1
f 5/3/1 4/3/1 3/3/1
f 6/3/1 4/3/1 5/3/1
f 11/3/1 8/3/1 7/3/1
f 12/3/1 10/3/1 9/3/1
f 13/3/1 11/3/1 7/3/1
f 13/3/1 12/3/1 11/3/1
f 14/3/1 10/3/1 12/3/1
f 14/3/1 12/3/1 13/3/1
f 19/3/1 16/3/1 15/3/1
f 22/3/1 18/3/1 17/3/1
f 23/3/1 20/3/1 19/3/1
f 23/3/1 19/3/1 15/3/1
f 24/3/1 20/3/1 23/3/1
f 25/3/1 20/3/1 24/3/1
f 26/3/1 20/3/1 25/3/1
f 27/3/1 22/3/1 21/3/1
f 28/3/1 18/3/1 22/3/1
f 28/3/1 22/3/1 27/3/1
f 29/3/1 18/3/1 28/3/1
f 30/3/1 18/3/1 29/3/1
f 33/2/1 32/2/1 31/2/1
f 34/2/1 32/2/1 33/2/1
f 35/2/1 32/2/1 34/2/1
f 36/2/1 32/2/1 35/2/1
f 37/2/1 32/2/1 36/2/1
f 38/2/1 32/2/1 37/2/1
f 39/2/2 40/2/2 41/2/2
f 41/2/2 40/2/2 42/2/2
f 42/2/2 40/2/2 43/2/2
f 43/2/2 40/2/2 44/2/2
f 44/2/2 40/2/2 45/2/2
f 45/2/2 40/2/2 46/2/2
f 47/3/2 48/3/2 51/3/2
f 49/3/2 50/3/2 54/3/2
f 51/3/2 52/3/2 55/3/2
f 47/3/2 51/3/2 55/3/2
f 55/3/2 52/3/2 56/3/2
f 56/3/2 52/3/2 57/3/2
f 57/3/2 52/3/2 58/3/2
f 53/3/2 54/3/2 59/3/2
f 54/3/2 50/3/2 60/3/2
f 59/3/2 54/3/2 60/3/2
f 60/3/2 50/3/2 61/3/2
f 61/3/2 50/3/2 62/3/2
f 63/3/2 64/3/2 67/3/2
f 65/3/2 66/3/2 68/3/2
f 63/3/2 67/3/2 69/3/2
f 67/3/2 68/3/2 69/3/2
f 68/3/2 66/3/2 70/3/2
f 69/3/2 68/3/2 70/3/2
f 71/2/2 72/2/2 73/2/2
f 73/2/2 72/2/2 74/2/2
f 73/3/2 74/3/2 75/3/2
f 75/3/2 74/3/2 76/3/2
f 80/2/3 78/2/3 77/2/3
f 81/3/3 79/3/3 78/3/3
f 81/2/3 78/2/3 80/2/3
f 82/3/3 79/3/3 81/3/3
f 85/3/3 84/3/3 83/3/3
f 86/3/3 84/3/3 85/3/3
f 89/3/3 88/3/3 87/3/3
f 90/3/3 88/3/3 89/3/3
f 93/3/3 92/3/3 91/3/3
f 94/3/3 93/3/3 91/3/3
f 95/3/3 94/3/3 91/3/3
f 96/3/3 95/3/3 91/3/3
f 97/3/3 96/3/3 91/3/3
f 98/3/3 96/3/3 97/3/3
f 101/3/3 100/3/3 99/3/3
f 102/3/3 100/3/3 101/3/3
f 105/3/3 104/3/3 103/3/3
f 106/3/3 104/3/3 105/3/3
f 109/2/3 108/2/3 107/2/3
f 110/2/3 109/2/3 107/2/3
f 111/2/3 110/2/3 107/2/3
f 112/2/3 111/2/3 107/2/3
f 113/2/3 112/2/3 107/2/3
f 114/2/3 113/2/3 107/2/3
f 115/2/3 114/2/3 107/2/3
f 116/2/3 115/2/3 107/2/3
f 117/2/3 116/2/3 107/2/3
f 118/2/3 116/2/3 117/2/3
f 119/2/4 120/2/4 121/2/4
f 119/2/4 121/2/4 122/2/4
f 119/2/4 122/2/4 123/2/4
f 119/2/4 123/2/4 124/2/4
f 119/2/4 124/2/4 125/2/4
f 119/2/4 125/2/4 126/2/4
f 119/2/4 126/2/4 127/2/4
f 119/2/4 127/2/4 128/2/4
f 119/2/4 128/2/4 129/2/4
f 129/2/4 128/2/4 130/2/4
f 131/3/4 132/3/4 133/3/4
f 133/3/4 132/3/4 134/3/4
f 135/3/4 136/3/4 137/3/4
f 137/3/4 136/3/4 138/3/4
f 139/3/4 140/3/4 141/3/4
f 139/3/4 141/3/4 142/3/4
f 139/3/4 142/3/4 143/3/4
f 139/3/4 143/3/4 144/3/4
f 139/3/4 144/3/4 145/3/4
f 145/3/4 144/3/4 146/3/4
f 147/3/4 148/3/4 149/3/4
f 149/3/4 148/3/4 150/3/4
f 151/3/4 152/3/4 153/3/4
f 153/3/4 152/3/4 154/3/4
f 155/2/4 156/2/4 158/2/4
f 156/3/4 157/3/4 159/3/4
f 158/2/4 156/2/4 159/2/4
f 159/3/4 157/3/4 160/3/4
f 165/3/5 162/3/5 161/3/5
f 166/3/5 162/3/5 165/3/5
f 167/3/5 164/3/5 163/3/5
f 168/3/5 164/3/5 167/3/5
f 173/3/5 170/3/5 169/3/5
f 174/3/5 170/3/5 173/3/5
f 175/3/5 172/3/5 171/3/5
f 176/3/5 172/3/5 175/3/5
f 179/2/5 178/2/5 177/2/5
f 180/2/5 178/2/5 179/2/5
f 185/3/5 182/3/5 181/3/5
f 186/3/5 184/3/5 183/3/5
f 187/3/5 185/3/5 181/3/5
f 187/3/5 186/3/5 185/3/5
f 188/3/5 184/3/5 186/3/5
f 188/3/5 186/3/5 187/3/5
f 189/3/5 187/3/5 181/3/5
f 190/3/5 187/3/5 189/3/5
f 191/3/5 184/3/5 188/3/5
f 192/3/5 184/3/5 191/3/5
f 193/2/5 179/2/5 177/2/5
f 194/2/5 178/2/5 180/2/5
f 195/2/5 193/2/5 177/2/5
f 195/2/5 194/2/5 193/2/5
f 196/2/5 178/2/5 194/2/5
f 196/2/5 194/2/5 195/2/5
f 207/1/5 199/1/5 198/1/5
f 207/2/5 200/2/5 199/2/5
f 208/2/5 200/2/5 207/2/5
f 209/2/5 204/2/5 203/2/5
f 210/1/5 205/1/5 204/1/5
f 210/2/5 204/2/5 209/2/5
f 211/2/5 200/2/5 208/2/5
f 212/1/5 201/1/5 200/1/5
f 212/2/5 200/2/5 211/2/5
f 213/2/5 209/2/5 203/2/5
f 213/1/5 203/1/5 202/1/5
f 214/2/5 209/2/5 213/2/5
f 215/1/5 212/1/5 211/1/5
f 216/1/5 201/1/5 212/1/5
f 216/1/5 212/1/5 215/1/5
f 217/1/5 213/1/5 202/1/5
f 217/1/5 214/1/5 213/1/5
f 218/1/5 214/1/5 217/1/5
f 219/2/5 198/2/5 197/2/5
f 220/1/5 207/1/5 198/1/5
f 220/2/5 198/2/5 219/2/5
f 221/2/5 202/2/5 201/2/5
f 221/1/5 201/1/5 216/1/5
f 222/1/5 217/1/5 202/1/5
f 222/2/5 202/2/5 221/2/5
f 223/2/5 206/2/5 205/2/5
f 223/1/5 205/1/5 210/1/5
f 224/2/5 206/2/5 223/2/5
f 225/1/5 220/1/5 219/1/5
f 226/1/5 207/1/5 220/1/5
f 226/1/5 220/1/5 225/1/5
f 227/1/5 222/1/5 221/1/5
f 227/1/5 221/1/5 216/1/5
f 228/1/5 217/1/5 222/1/5
f 228/1/5 222/1/5 227/1/5
f 229/1/5 223/1/5 210/1/5
f 229/1/5 224/1/5 223/1/5
f 230/1/5 224/1/5 229/1/5
f 231/2/5 216/2/5 215/2/5
f 232/1/5 227/1/5 216/1/5
f 232/2/5 216/2/5 231/2/5
f 233/2/5 228/2/5 227/2/5
f 233/1/5 227/1/5 232/1/5
f 234/1/5 217/1/5 228/1/5
f 234/2/5 228/2/5 233/2/5
f 235/2/5 218/2/5 217/2/5
f 235/1/5 217/1/5 234/1/5
f 236/2/5 218/2/5 235/2/5
f 243/2/5 226/2/5 225/2/5
f 244/1/5 207/1/5 226/1/5
f 244/2/5 226/2/5 243/2/5
f 245/1/5 239/1/5 238/1/5
f 245/2/5 240/2/5 239/2/5
f 246/1/5 241/1/5 240/1/5
f 246/2/5 240/2/5 245/2/5
f 247/2/5 230/2/5 229/2/5
f 247/1/5 229/1/5 210/1/5
f 248/2/5 230/2/5 247/2/5
f 249/1/5 244/1/5 243/1/5
f 250/1/5 207/1/5 244/1/5
f 250/1/5 244/1/5 249/1/5
f 251/1/5 246/1/5 245/1/5
f 251/1/5 245/1/5 238/1/5
f 252/1/5 241/1/5 246/1/5
f 252/1/5 246/1/5 251/1/5
f 253/1/5 247/1/5 210/1/5
f 253/1/5 248/1/5 247/1/5
f 254/1/5 248/1/5 253/1/5
f 255/2/5 238/2/5 237/2/5
f 256/1/5 251/1/5 238/1/5
f 256/2/5 238/2/5 255/2/5
f 257/2/5 242/2/5 241/2/5
f 257/1/5 241/1/5 252/1/5
f 258/2/5 242/2/5 257/2/5
f 259/1/5 256/1/5 255/1/5
f 260/1/5 251/1/5 256/1/5
f 260/1/5 256/1/5 259/1/5
f 261/1/5 257/1/5 252/1/5
f 261/1/5 258/1/5 257/1/5
f 262/1/5 258/1/5 261/1/5
f 263/1/5 207/1/5 250/1/5
f 264/2/5 260/2/5 259/2/5
f 265/2/5 262/2/5 261/2/5
f 266/1/5 253/1/5 210/1/5
f 267/2/5 250/2/5 249/2/5
f 268/1/5 263/1/5 250/1/5
f 268/2/5 250/2/5 267/2/5
f 269/2/5 264/2/5 263/2/5
f 269/1/5 263/1/5 268/1/5
f 270/2/5 260/2/5 264/2/5
f 270/2/5 264/2/5 269/2/5
f 270/1/5 251/1/5 260/1/5
f 271/2/5 252/2/5 251/2/5
f 271/1/5 251/1/5 270/1/5
f 272/1/5 261/1/5 252/1/5
f 272/2/5 252/2/5 271/2/5
f 273/2/5 265/2/5 261/2/5
f 273/1/5 261/1/5 272/1/5
f 273/2/5 266/2/5 265/2/5
f 274/1/5 253/1/5 266/1/5
f 274/2/5 266/2/5 273/2/5
f 275/2/5 254/2/5 253/2/5
f 275/1/5 253/1/5 274/1/5
f 276/2/5 254/2/5 275/2/5
f 277/3/6 278/3/6 279/3/6
f 279/3/6 278/3/6 280/3/6
f 280/3/6 278/3/6 281/3/6
f 281/3/6 278/3/6 282/3/6
f 282/3/6 278/3/6 283/3/6
f 283/3/6 278/3/6 284/3/6
f 284/3/6 278/3/6 285/3/6
f 285/3/6 278/3/6 286/3/6
f 286/3/6 278/3/6 287/3/6
f 287/3/6 278/3/6 288/3/6
f 280/1/6 281/1/6 289/1/6
f 281/2/6 282/2/6 289/2/6
f 282/1/6 283/1/6 290/1/6
f 289/2/6 282/2/6 290/2/6
f 284/1/6 285/1/6 291/1/6
f 285/2/6 286/2/6 291/2/6
f 286/1/6 287/1/6 292/1/6
f 291/2/6 286/2/6 292/2/6
f 280/1/6 289/1/6 293/1/6
f 289/1/6 290/1/6 293/1/6
f 290/1/6 283/1/6 294/1/6
f 293/1/6 290/1/6 294/1/6
f 291/1/6 292/1/6 295/1/6
f 284/1/6 291/1/6 295/1/6
f 292/1/6 287/1/6 296/1/6
f 295/1/6 292/1/6 296/1/6
f 277/3/6 279/3/6 297/3/6
f 279/2/6 280/2/6 297/2/6
f 280/1/6 293/1/6 298/1/6
f 297/2/6 280/2/6 298/2/6
f 283/2/6 284/2/6 299/2/6
f 294/1/6 283/1/6 299/1/6
f 284/1/6 295/1/6 300/1/6
f 299/2/6 284/2/6 300/2/6
f 296/1/6 287/1/6 301/1/6
f 287/2/6 288/2/6 301/2/6
f 288/3/6 278/3/6 302/3/6
f 301/2/6 288/2/6 302/2/6
f 277/3/6 297/3/6 303/3/6
f 297/1/6 298/1/6 303/1/6
f 298/1/6 293/1/6 304/1/6
f 303/1/6 298/1/6 304/1/6
f 299/1/6 300/1/6 305/1/6
f 294/1/6 299/1/6 305/1/6
f 300/1/6 295/1/6 306/1/6
f 305/1/6 300/1/6 306/1/6
f 296/1/6 301/1/6 307/1/6
f 301/1/6 302/1/6 307/1/6
f 302/3/6 278/3/6 308/3/6
f 307/1/6 302/1/6 308/1/6
f 304/1/6 293/1/6 309/1/6
f 293/2/6 294/2/6 309/2/6
f 294/1/6 305/1/6 310/1/6
f 309/2/6 294/2/6 310/2/6
f 295/2/6 296/2/6 311/2/6
f 306/1/6 295/1/6 311/1/6
f 296/1/6 307/1/6 312/1/6
f 311/2/6 296/2/6 312/2/6
f 304/1/6 309/1/6 313/1/6
f 309/1/6 310/1/6 313/1/6
f 310/1/6 305/1/6 314/1/6
f 313/1/6 310/1/6 314/1/6
f 311/1/6 312/1/6 315/1/6
f 306/1/6 311/1/6 315/1/6
f 312/1/6 307/1/6 316/1/6
f 315/1/6 312/1/6 316/1/6
f 303/2/6 304/2/6 317/2/6
f 277/3/6 303/3/6 317/3/6
f 304/1/6 313/1/6 318/1/6
f 317/2/6 304/2/6 318/2/6
f 314/1/6 305/1/6 319/1/6
f 305/2/6 306/2/6 319/2/6
f 306/1/6 315/1/6 320/1/6
f 319/2/6 306/2/6 320/2/6
f 316/1/6 307/1/6 321/1/6
f 307/2/6 308/2/6 321/2/6
f 308/3/6 278/3/6 322/3/6
f 321/2/6 308/2/6 322/2/6
f 277/3/6 317/3/6 323/3/6
f 317/1/6 318/1/6 323/1/6
f 318/1/6 313/1/6 324/1/6
f 323/1/6 318/1/6 324/1/6
f 314/1/6 319/1/6 325/1/6
f 319/1/6 320/1/6 325/1/6
f 320/1/6 315/1/6 326/1/6
f 325/1/6 320/1/6 326/1/6
f 316/1/6 321/1/6 327/1/6
f 321/1/6 322/1/6 327/1/6
f 322/3/6 278/3/6 328/3/6
f 327/1/6 322/1/6 328/1/6
f 324/1/6 313/1/6 329/1/6
f 313/2/6 314/2/6 329/2/6
f 314/1/6 325/1/6 330/1/6
f 329/2/6 314/2/6 330/2/6
f 326/1/6 315/1/6 331/1/6
f 315/2/6 316/2/6 331/2/6
f 316/1/6 327/1/6 332/1/6
f 331/2/6 316/2/6 332/2/6
f 324/1/6 329/1/6 333/1/6
f 329/1/6 330/1/6 333/1/6
f 330/1/6 325/1/6 334/1/6
f 333/1/6 330/1/6 334/1/6
f 326/1/6 331/1/6 335/1/6
f 331/1/6 332/1/6 335/1/6
f 332/1/6 327/1/6 336/1/6
f 335/1/6 332/1/6 336/1/6
f 277/3/6 323/3/6 337/3/6
f 323/2/6 324/2/6 337/2/6
f 324/1/6 333/1/6 338/1/6
f 337/2/6 324/2/6 338/2/6
f 333/2/6 334/2/6 339/2/6
f 338/1/6 333/1/6 339/1/6
f 334/1/6 325/1/6 340/1/6
f 339/2/6 334/2/6 340/2/6
f 325/2/6 326/2/6 341/2/6
f 340/1/6 325/1/6 341/1/6
f 326/1/6 335/1/6 342/1/6
f 341/2/6 326/2/6 342/2/6
f 335/2/6 336/2/6 343/2/6
f 342/1/6 335/1/6 343/1/6
f 336/1/6 327/1/6 344/1/6
f 343/2/6 336/2/6 344/2/6
f 327/2/6 328/2/6 345/2/6
f 344/1/6 327/1/6 345/1/6
f 328/3/6 278/3/6 346/3/6
f 345/2/6 328/2/6 346/2/6
f 344/3/6 345/3/6 347/3/6
f 338/3/6 339/3/6 347/3/6
f 345/3/6 346/3/6 347/3/6
f 341/3/6 342/3/6 347/3/6
f 339/3/6 340/3/6 347/3/6
f 343/3/6 344/3/6 347/3/6
f 337/3/6 338/3/6 347/3/6
f 340/3/6 341/3/6 347/3/6
f 277/3/6 337/3/6 347/3/6
f 342/3/6 343/3/6 347/3/6
f 346/3/6 278/3/6 348/3/6
f 347/3/6 346/3/6 348/3/6
