# MagicaVoxel @ Ephtracy

# group
g skele_archer

# material
mtllib skele_archer.mtl
usemtl palette

# normals
vn -1 0 0
vn 1 0 0
vn 0 0 1
vn 0 0 -1
vn 0 -1 0
vn 0 1 0

# texcoords
vt 0.00195313 0.5
vt 0.0253906 0.5
vt 0.0800781 0.5
vt 0.0878906 0.5
vt 0.0996094 0.5
vt 0.123047 0.5

# verts
v -5 1 1.5
v -5 1 -1.5
v -5 3 1.5
v -5 3 -1.5
v -5 8 2.5
v -5 8 -2.5
v -5 9 2.5
v -5 9 1.5
v -5 9 -1.5
v -5 9 -2.5
v -5 10 1.5
v -5 10 -1.5
v -4 0 1.5
v -4 0 -1.5
v -4 1 1.5
v -4 1 -1.5
v -4 3 1.5
v -4 3 -1.5
v -4 4 1.5
v -4 4 -1.5
v -4 6 1.5
v -4 6 -1.5
v -4 7 2.5
v -4 7 1.5
v -4 7 -1.5
v -4 7 -2.5
v -4 8 2.5
v -4 8 -2.5
v -4 9 2.5
v -4 9 1.5
v -4 9 -1.5
v -4 9 -2.5
v -4 10 1.5
v -4 10 -1.5
v -4 11 2.5
v -4 11 1.5
v -4 11 -1.5
v -4 11 -2.5
v -4 12 1.5
v -4 12 -1.5
v -3 3 2.5
v -3 3 1.5
v -3 3 -1.5
v -3 3 -2.5
v -3 4 2.5
v -3 4 1.5
v -3 4 -1.5
v -3 4 -2.5
v -3 5 2.5
v -3 5 1.5
v -3 5 -1.5
v -3 5 -2.5
v -3 6 2.5
v -3 6 1.5
v -3 6 -1.5
v -3 6 -2.5
v -3 7 2.5
v -3 7 1.5
v -3 7 -1.5
v -3 7 -2.5
v -3 11 2.5
v -3 11 1.5
v -3 11 -1.5
v -3 11 -2.5
v -3 12 2.5
v -3 12 1.5
v -3 12 -1.5
v -3 12 -2.5
v -3 13 1.5
v -3 13 -1.5
v -2 0 2.5
v -2 0 1.5
v -2 0 -1.5
v -2 0 -2.5
v -2 2 2.5
v -2 2 1.5
v -2 2 -1.5
v -2 2 -2.5
v -1 2 2.5
v -1 2 1.5
v -1 2 -1.5
v -1 2 -2.5
v -1 3 2.5
v -1 3 1.5
v -1 3 -1.5
v -1 3 -2.5
v 1 5 2.5
v 1 5 1.5
v 1 5 -1.5
v 1 5 -2.5
v 1 6 2.5
v 1 6 1.5
v 1 6 -1.5
v 1 6 -2.5
v -1 5 2.5
v -1 5 1.5
v -1 5 -1.5
v -1 5 -2.5
v -1 6 2.5
v -1 6 1.5
v -1 6 -1.5
v -1 6 -2.5
v 1 2 2.5
v 1 2 1.5
v 1 2 -1.5
v 1 2 -2.5
v 1 3 2.5
v 1 3 1.5
v 1 3 -1.5
v 1 3 -2.5
v 2 0 2.5
v 2 0 1.5
v 2 0 -1.5
v 2 0 -2.5
v 2 2 2.5
v 2 2 1.5
v 2 2 -1.5
v 2 2 -2.5
v 3 3 2.5
v 3 3 1.5
v 3 3 -1.5
v 3 3 -2.5
v 3 4 2.5
v 3 4 1.5
v 3 4 -1.5
v 3 4 -2.5
v 3 5 2.5
v 3 5 1.5
v 3 5 -1.5
v 3 5 -2.5
v 3 6 2.5
v 3 6 1.5
v 3 6 -1.5
v 3 6 -2.5
v 3 7 2.5
v 3 7 1.5
v 3 7 -1.5
v 3 7 -2.5
v 3 11 2.5
v 3 11 1.5
v 3 11 -1.5
v 3 11 -2.5
v 3 12 2.5
v 3 12 1.5
v 3 12 -1.5
v 3 12 -2.5
v 3 13 1.5
v 3 13 -1.5
v 4 0 1.5
v 4 0 -1.5
v 4 1 1.5
v 4 1 -1.5
v 4 3 1.5
v 4 3 -1.5
v 4 4 1.5
v 4 4 -1.5
v 4 6 1.5
v 4 6 -1.5
v 4 7 2.5
v 4 7 1.5
v 4 7 -1.5
v 4 7 -2.5
v 4 8 2.5
v 4 8 -2.5
v 4 9 2.5
v 4 9 1.5
v 4 9 -1.5
v 4 9 -2.5
v 4 10 1.5
v 4 10 -1.5
v 4 11 2.5
v 4 11 1.5
v 4 11 -1.5
v 4 11 -2.5
v 4 12 1.5
v 4 12 -1.5
v 5 1 1.5
v 5 1 -1.5
v 5 3 1.5
v 5 3 -1.5
v 5 8 2.5
v 5 8 -2.5
v 5 9 2.5
v 5 9 1.5
v 5 9 -1.5
v 5 9 -2.5
v 5 10 1.5
v 5 10 -1.5
v -5 8 2.5
v -5 9 2.5
v -4 7 2.5
v -4 8 2.5
v -4 9 2.5
v -4 11 2.5
v -3 3 2.5
v -3 4 2.5
v -3 5 2.5
v -3 6 2.5
v -3 7 2.5
v -3 8 2.5
v -3 9 2.5
v -3 11 2.5
v -3 12 2.5
v -2 0 2.5
v -2 2 2.5
v -2 3 2.5
v -2 4 2.5
v -2 5 2.5
v -2 6 2.5
v -2 7 2.5
v -2 8 2.5
v -1 0 2.5
v -1 1 2.5
v -1 2 2.5
v -1 3 2.5
v -1 5 2.5
v -1 6 2.5
v -1 7 2.5
v -1 8 2.5
v -1 9 2.5
v -1 11 2.5
v 1 0 2.5
v 1 1 2.5
v 1 2 2.5
v 1 3 2.5
v 1 5 2.5
v 1 6 2.5
v 1 7 2.5
v 1 8 2.5
v 1 9 2.5
v 1 11 2.5
v 2 0 2.5
v 2 2 2.5
v 2 3 2.5
v 2 4 2.5
v 2 5 2.5
v 2 6 2.5
v 2 7 2.5
v 2 8 2.5
v 3 3 2.5
v 3 4 2.5
v 3 5 2.5
v 3 6 2.5
v 3 7 2.5
v 3 8 2.5
v 3 9 2.5
v 3 11 2.5
v 3 12 2.5
v 4 7 2.5
v 4 8 2.5
v 4 9 2.5
v 4 11 2.5
v 5 8 2.5
v 5 9 2.5
v -5 1 1.5
v -5 3 1.5
v -5 9 1.5
v -5 10 1.5
v -4 0 1.5
v -4 1 1.5
v -4 2 1.5
v -4 3 1.5
v -4 4 1.5
v -4 6 1.5
v -4 7 1.5
v -4 9 1.5
v -4 10 1.5
v -4 11 1.5
v -4 12 1.5
v -3 1 1.5
v -3 2 1.5
v -3 3 1.5
v -3 4 1.5
v -3 5 1.5
v -3 6 1.5
v -3 7 1.5
v -3 11 1.5
v -3 12 1.5
v -3 13 1.5
v -2 0 1.5
v -2 2 1.5
v -2 3 1.5
v -2 4 1.5
v -2 5 1.5
v -2 12 1.5
v -2 13 1.5
v -1 2 1.5
v -1 3 1.5
v -1 5 1.5
v -1 6 1.5
v 1 2 1.5
v 1 3 1.5
v 1 5 1.5
v 1 6 1.5
v 2 0 1.5
v 2 2 1.5
v 2 3 1.5
v 2 4 1.5
v 2 5 1.5
v 2 12 1.5
v 2 13 1.5
v 3 1 1.5
v 3 2 1.5
v 3 3 1.5
v 3 4 1.5
v 3 5 1.5
v 3 6 1.5
v 3 7 1.5
v 3 11 1.5
v 3 12 1.5
v 3 13 1.5
v 4 0 1.5
v 4 1 1.5
v 4 2 1.5
v 4 3 1.5
v 4 4 1.5
v 4 6 1.5
v 4 7 1.5
v 4 9 1.5
v 4 10 1.5
v 4 11 1.5
v 4 12 1.5
v 5 1 1.5
v 5 3 1.5
v 5 9 1.5
v 5 10 1.5
v -5 1 -1.5
v -5 3 -1.5
v -5 9 -1.5
v -5 10 -1.5
v -4 0 -1.5
v -4 1 -1.5
v -4 2 -1.5
v -4 3 -1.5
v -4 4 -1.5
v -4 6 -1.5
v -4 7 -1.5
v -4 9 -1.5
v -4 10 -1.5
v -4 11 -1.5
v -4 12 -1.5
v -3 1 -1.5
v -3 2 -1.5
v -3 3 -1.5
v -3 4 -1.5
v -3 5 -1.5
v -3 6 -1.5
v -3 7 -1.5
v -3 11 -1.5
v -3 12 -1.5
v -3 13 -1.5
v -2 0 -1.5
v -2 2 -1.5
v -2 3 -1.5
v -2 4 -1.5
v -2 5 -1.5
v -2 12 -1.5
v -2 13 -1.5
v -1 2 -1.5
v -1 3 -1.5
v -1 5 -1.5
v -1 6 -1.5
v 1 2 -1.5
v 1 3 -1.5
v 1 5 -1.5
v 1 6 -1.5
v 2 0 -1.5
v 2 2 -1.5
v 2 3 -1.5
v 2 4 -1.5
v 2 5 -1.5
v 2 12 -1.5
v 2 13 -1.5
v 3 1 -1.5
v 3 2 -1.5
v 3 3 -1.5
v 3 4 -1.5
v 3 5 -1.5
v 3 6 -1.5
v 3 7 -1.5
v 3 11 -1.5
v 3 12 -1.5
v 3 13 -1.5
v 4 0 -1.5
v 4 1 -1.5
v 4 2 -1.5
v 4 3 -1.5
v 4 4 -1.5
v 4 6 -1.5
v 4 7 -1.5
v 4 9 -1.5
v 4 10 -1.5
v 4 11 -1.5
v 4 12 -1.5
v 5 1 -1.5
v 5 3 -1.5
v 5 9 -1.5
v 5 10 -1.5
v -5 8 -2.5
v -5 9 -2.5
v -4 7 -2.5
v -4 8 -2.5
v -4 9 -2.5
v -4 11 -2.5
v -3 3 -2.5
v -3 4 -2.5
v -3 5 -2.5
v -3 6 -2.5
v -3 7 -2.5
v -3 8 -2.5
v -3 10 -2.5
v -3 11 -2.5
v -3 12 -2.5
v -2 0 -2.5
v -2 2 -2.5
v -2 3 -2.5
v -2 4 -2.5
v -2 5 -2.5
v -2 6 -2.5
v -2 7 -2.5
v -2 9 -2.5
v -2 10 -2.5
v -1 0 -2.5
v -1 1 -2.5
v -1 2 -2.5
v -1 3 -2.5
v -1 5 -2.5
v -1 6 -2.5
v 1 0 -2.5
v 1 1 -2.5
v 1 2 -2.5
v 1 3 -2.5
v 1 5 -2.5
v 1 6 -2.5
v 2 0 -2.5
v 2 2 -2.5
v 2 3 -2.5
v 2 4 -2.5
v 2 5 -2.5
v 2 6 -2.5
v 2 7 -2.5
v 2 9 -2.5
v 2 10 -2.5
v 3 3 -2.5
v 3 4 -2.5
v 3 5 -2.5
v 3 6 -2.5
v 3 7 -2.5
v 3 8 -2.5
v 3 10 -2.5
v 3 11 -2.5
v 3 12 -2.5
v 4 7 -2.5
v 4 8 -2.5
v 4 9 -2.5
v 4 11 -2.5
v 5 8 -2.5
v 5 9 -2.5
v -2 0 2.5
v -1 0 2.5
v 1 0 2.5
v 2 0 2.5
v -4 0 1.5
v -2 0 1.5
v 2 0 1.5
v 4 0 1.5
v -4 0 -1.5
v -2 0 -1.5
v 2 0 -1.5
v 4 0 -1.5
v -2 0 -2.5
v -1 0 -2.5
v 1 0 -2.5
v 2 0 -2.5
v -5 1 1.5
v -4 1 1.5
v 4 1 1.5
v 5 1 1.5
v -5 1 -1.5
v -4 1 -1.5
v 4 1 -1.5
v 5 1 -1.5
v -3 3 2.5
v -2 3 2.5
v -1 3 2.5
v 1 3 2.5
v 2 3 2.5
v 3 3 2.5
v -3 3 1.5
v -2 3 1.5
v -1 3 1.5
v 1 3 1.5
v 2 3 1.5
v 3 3 1.5
v -3 3 -1.5
v -2 3 -1.5
v -1 3 -1.5
v 1 3 -1.5
v 2 3 -1.5
v 3 3 -1.5
v -3 3 -2.5
v -2 3 -2.5
v -1 3 -2.5
v 1 3 -2.5
v 2 3 -2.5
v 3 3 -2.5
v -3 5 2.5
v -2 5 2.5
v -1 5 2.5
v 1 5 2.5
v 2 5 2.5
v 3 5 2.5
v -3 5 1.5
v -2 5 1.5
v -1 5 1.5
v 1 5 1.5
v 2 5 1.5
v 3 5 1.5
v -3 5 -1.5
v -2 5 -1.5
v -1 5 -1.5
v 1 5 -1.5
v 2 5 -1.5
v 3 5 -1.5
v -3 5 -2.5
v -2 5 -2.5
v -1 5 -2.5
v 1 5 -2.5
v 2 5 -2.5
v 3 5 -2.5
v -1 6 2.5
v 1 6 2.5
v -4 6 1.5
v -3 6 1.5
v -1 6 1.5
v 1 6 1.5
v 3 6 1.5
v 4 6 1.5
v -4 6 -1.5
v -3 6 -1.5
v -1 6 -1.5
v 1 6 -1.5
v 3 6 -1.5
v 4 6 -1.5
v -1 6 -2.5
v 1 6 -2.5
v -4 7 2.5
v -3 7 2.5
v 3 7 2.5
v 4 7 2.5
v -4 7 1.5
v -3 7 1.5
v 3 7 1.5
v 4 7 1.5
v -4 7 -1.5
v -3 7 -1.5
v 3 7 -1.5
v 4 7 -1.5
v -4 7 -2.5
v -3 7 -2.5
v 3 7 -2.5
v 4 7 -2.5
v -5 8 2.5
v -4 8 2.5
v 4 8 2.5
v 5 8 2.5
v -5 8 -2.5
v -4 8 -2.5
v 4 8 -2.5
v 5 8 -2.5
v -2 2 2.5
v -1 2 2.5
v 1 2 2.5
v 2 2 2.5
v -2 2 1.5
v -1 2 1.5
v 1 2 1.5
v 2 2 1.5
v -2 2 -1.5
v -1 2 -1.5
v 1 2 -1.5
v 2 2 -1.5
v -2 2 -2.5
v -1 2 -2.5
v 1 2 -2.5
v 2 2 -2.5
v -5 3 1.5
v -4 3 1.5
v 4 3 1.5
v 5 3 1.5
v -5 3 -1.5
v -4 3 -1.5
v 4 3 -1.5
v 5 3 -1.5
v -3 4 2.5
v -2 4 2.5
v 2 4 2.5
v 3 4 2.5
v -4 4 1.5
v -3 4 1.5
v -2 4 1.5
v 2 4 1.5
v 3 4 1.5
v 4 4 1.5
v -4 4 -1.5
v -3 4 -1.5
v -2 4 -1.5
v 2 4 -1.5
v 3 4 -1.5
v 4 4 -1.5
v -3 4 -2.5
v -2 4 -2.5
v 2 4 -2.5
v 3 4 -2.5
v -5 9 2.5
v -4 9 2.5
v 4 9 2.5
v 5 9 2.5
v -5 9 1.5
v -4 9 1.5
v 4 9 1.5
v 5 9 1.5
v -5 9 -1.5
v -4 9 -1.5
v 4 9 -1.5
v 5 9 -1.5
v -5 9 -2.5
v -4 9 -2.5
v 4 9 -2.5
v 5 9 -2.5
v -5 10 1.5
v -4 10 1.5
v 4 10 1.5
v 5 10 1.5
v -5 10 -1.5
v -4 10 -1.5
v 4 10 -1.5
v 5 10 -1.5
v -4 11 2.5
v -3 11 2.5
v 3 11 2.5
v 4 11 2.5
v -4 11 1.5
v -3 11 1.5
v 3 11 1.5
v 4 11 1.5
v -4 11 -1.5
v -3 11 -1.5
v 3 11 -1.5
v 4 11 -1.5
v -4 11 -2.5
v -3 11 -2.5
v 3 11 -2.5
v 4 11 -2.5
v -3 12 2.5
v 3 12 2.5
v -4 12 1.5
v -3 12 1.5
v -2 12 1.5
v 2 12 1.5
v 3 12 1.5
v 4 12 1.5
v -4 12 -1.5
v -3 12 -1.5
v -2 12 -1.5
v 2 12 -1.5
v 3 12 -1.5
v 4 12 -1.5
v -3 12 -2.5
v 3 12 -2.5
v -3 13 1.5
v -2 13 1.5
v 2 13 1.5
v 3 13 1.5
v -3 13 -1.5
v -2 13 -1.5
v 2 13 -1.5
v 3 13 -1.5

# faces
f 3/3/1 2/3/1 1/3/1
f 4/3/1 2/3/1 3/3/1
f 7/2/1 6/2/1 5/2/1
f 8/2/1 6/2/1 7/2/1
f 9/2/1 6/2/1 8/2/1
f 10/2/1 6/2/1 9/2/1
f 11/2/1 9/2/1 8/2/1
f 12/2/1 9/2/1 11/2/1
f 15/1/1 14/1/1 13/1/1
f 16/1/1 14/1/1 15/1/1
f 19/4/1 18/4/1 17/4/1
f 20/4/1 18/4/1 19/4/1
f 24/2/1 22/2/1 21/2/1
f 25/2/1 22/2/1 24/2/1
f 27/1/1 25/1/1 24/1/1
f 27/1/1 26/1/1 25/1/1
f 27/1/1 24/1/1 23/1/1
f 28/1/1 26/1/1 27/1/1
f 33/2/1 30/2/1 29/2/1
f 34/2/1 32/2/1 31/2/1
f 35/2/1 33/2/1 29/2/1
f 35/2/1 34/2/1 33/2/1
f 36/2/1 34/2/1 35/2/1
f 37/2/1 32/2/1 34/2/1
f 37/2/1 34/2/1 36/2/1
f 38/2/1 32/2/1 37/2/1
f 39/2/1 37/2/1 36/2/1
f 40/2/1 37/2/1 39/2/1
f 45/4/1 42/4/1 41/4/1
f 46/4/1 42/4/1 45/4/1
f 47/4/1 44/4/1 43/4/1
f 48/4/1 44/4/1 47/4/1
f 50/4/1 47/4/1 46/4/1
f 51/4/1 47/4/1 50/4/1
f 53/1/1 50/1/1 49/1/1
f 53/1/1 52/1/1 51/1/1
f 53/1/1 51/1/1 50/1/1
f 54/1/1 52/1/1 53/1/1
f 55/1/1 52/1/1 54/1/1
f 56/1/1 52/1/1 55/1/1
f 57/3/1 54/3/1 53/3/1
f 58/3/1 54/3/1 57/3/1
f 59/2/1 56/2/1 55/2/1
f 60/2/1 56/2/1 59/2/1
f 65/6/1 62/6/1 61/6/1
f 66/6/1 62/6/1 65/6/1
f 67/6/1 64/6/1 63/6/1
f 68/6/1 64/6/1 67/6/1
f 69/2/1 67/2/1 66/2/1
f 70/2/1 67/2/1 69/2/1
f 75/4/1 72/4/1 71/4/1
f 76/4/1 72/4/1 75/4/1
f 77/4/1 74/4/1 73/4/1
f 78/4/1 74/4/1 77/4/1
f 83/4/1 80/4/1 79/4/1
f 84/4/1 80/4/1 83/4/1
f 85/4/1 82/4/1 81/4/1
f 86/4/1 82/4/1 85/4/1
f 91/3/1 88/3/1 87/3/1
f 92/3/1 88/3/1 91/3/1
f 93/2/1 90/2/1 89/2/1
f 94/2/1 90/2/1 93/2/1
f 95/3/2 96/3/2 99/3/2
f 99/3/2 96/3/2 100/3/2
f 97/2/2 98/2/2 101/2/2
f 101/2/2 98/2/2 102/2/2
f 103/4/2 104/4/2 107/4/2
f 107/4/2 104/4/2 108/4/2
f 105/4/2 106/4/2 109/4/2
f 109/4/2 106/4/2 110/4/2
f 111/4/2 112/4/2 115/4/2
f 115/4/2 112/4/2 116/4/2
f 113/4/2 114/4/2 117/4/2
f 117/4/2 114/4/2 118/4/2
f 119/4/2 120/4/2 123/4/2
f 123/4/2 120/4/2 124/4/2
f 121/4/2 122/4/2 125/4/2
f 125/4/2 122/4/2 126/4/2
f 124/4/2 125/4/2 128/4/2
f 128/4/2 125/4/2 129/4/2
f 127/1/2 128/1/2 131/1/2
f 129/1/2 130/1/2 131/1/2
f 128/1/2 129/1/2 131/1/2
f 131/1/2 130/1/2 132/1/2
f 132/1/2 130/1/2 133/1/2
f 133/1/2 130/1/2 134/1/2
f 131/3/2 132/3/2 135/3/2
f 135/3/2 132/3/2 136/3/2
f 133/2/2 134/2/2 137/2/2
f 137/2/2 134/2/2 138/2/2
f 139/6/2 140/6/2 143/6/2
f 143/6/2 140/6/2 144/6/2
f 141/6/2 142/6/2 145/6/2
f 145/6/2 142/6/2 146/6/2
f 144/2/2 145/2/2 147/2/2
f 147/2/2 145/2/2 148/2/2
f 149/1/2 150/1/2 151/1/2
f 151/1/2 150/1/2 152/1/2
f 153/4/2 154/4/2 155/4/2
f 155/4/2 154/4/2 156/4/2
f 157/2/2 158/2/2 160/2/2
f 160/2/2 158/2/2 161/2/2
f 160/1/2 161/1/2 163/1/2
f 161/1/2 162/1/2 163/1/2
f 159/1/2 160/1/2 163/1/2
f 163/1/2 162/1/2 164/1/2
f 165/2/2 166/2/2 169/2/2
f 167/2/2 168/2/2 170/2/2
f 165/2/2 169/2/2 171/2/2
f 169/2/2 170/2/2 171/2/2
f 171/2/2 170/2/2 172/2/2
f 170/2/2 168/2/2 173/2/2
f 172/2/2 170/2/2 173/2/2
f 173/2/2 168/2/2 174/2/2
f 172/2/2 173/2/2 175/2/2
f 175/2/2 173/2/2 176/2/2
f 177/3/2 178/3/2 179/3/2
f 179/3/2 178/3/2 180/3/2
f 181/2/2 182/2/2 183/2/2
f 183/2/2 182/2/2 184/2/2
f 184/2/2 182/2/2 185/2/2
f 185/2/2 182/2/2 186/2/2
f 184/2/2 185/2/2 187/2/2
f 187/2/2 185/2/2 188/2/2
f 192/2/3 190/2/3 189/2/3
f 193/2/3 190/2/3 192/2/3
f 199/1/3 192/1/3 191/1/3
f 200/2/3 193/2/3 192/2/3
f 200/2/3 194/2/3 193/2/3
f 200/1/3 192/1/3 199/1/3
f 201/2/3 194/2/3 200/2/3
f 202/2/3 194/2/3 201/2/3
f 206/4/3 196/4/3 195/4/3
f 207/4/3 196/4/3 206/4/3
f 208/1/3 198/1/3 197/1/3
f 209/3/3 199/3/3 198/3/3
f 209/1/3 198/1/3 208/1/3
f 210/1/3 200/1/3 199/1/3
f 210/3/3 199/3/3 209/3/3
f 210/1/3 201/1/3 200/1/3
f 211/1/3 201/1/3 210/1/3
f 212/4/3 205/4/3 204/4/3
f 213/4/3 205/4/3 212/4/3
f 214/4/3 205/4/3 213/4/3
f 215/3/3 207/3/3 206/3/3
f 216/3/3 209/3/3 208/3/3
f 216/3/3 210/3/3 209/3/3
f 217/3/3 210/3/3 216/3/3
f 218/5/3 211/5/3 210/5/3
f 218/3/3 210/3/3 217/3/3
f 219/1/3 201/1/3 211/1/3
f 219/5/3 211/5/3 218/5/3
f 220/6/3 202/6/3 201/6/3
f 220/1/3 201/1/3 219/1/3
f 220/6/3 203/6/3 202/6/3
f 221/6/3 203/6/3 220/6/3
f 222/1/3 213/1/3 212/1/3
f 223/3/3 214/3/3 213/3/3
f 223/1/3 213/1/3 222/1/3
f 224/4/3 215/4/3 214/4/3
f 224/3/3 214/3/3 223/3/3
f 225/3/3 207/3/3 215/3/3
f 225/4/3 215/4/3 224/4/3
f 227/3/3 218/3/3 217/3/3
f 228/1/3 219/1/3 218/1/3
f 228/3/3 218/3/3 227/3/3
f 229/2/3 221/2/3 220/2/3
f 229/1/3 219/1/3 228/1/3
f 229/2/3 220/2/3 219/2/3
f 230/2/3 221/2/3 229/2/3
f 231/6/3 203/6/3 221/6/3
f 231/2/3 221/2/3 230/2/3
f 232/4/3 223/4/3 222/4/3
f 232/4/3 224/4/3 223/4/3
f 233/4/3 224/4/3 232/4/3
f 234/3/3 207/3/3 225/3/3
f 235/3/3 207/3/3 234/3/3
f 236/3/3 227/3/3 226/3/3
f 236/3/3 228/3/3 227/3/3
f 237/3/3 228/3/3 236/3/3
f 238/5/3 229/5/3 228/5/3
f 238/3/3 228/3/3 237/3/3
f 239/1/3 230/1/3 229/1/3
f 239/5/3 229/5/3 238/5/3
f 240/4/3 235/4/3 234/4/3
f 241/4/3 235/4/3 240/4/3
f 242/1/3 237/1/3 236/1/3
f 243/3/3 238/3/3 237/3/3
f 243/1/3 237/1/3 242/1/3
f 244/1/3 239/1/3 238/1/3
f 244/3/3 238/3/3 243/3/3
f 245/1/3 230/1/3 239/1/3
f 245/1/3 239/1/3 244/1/3
f 246/6/3 231/6/3 230/6/3
f 246/1/3 230/1/3 245/1/3
f 247/6/3 203/6/3 231/6/3
f 247/6/3 231/6/3 246/6/3
f 248/6/3 203/6/3 247/6/3
f 249/1/3 245/1/3 244/1/3
f 250/2/3 246/2/3 245/2/3
f 250/1/3 245/1/3 249/1/3
f 250/2/3 247/2/3 246/2/3
f 251/2/3 247/2/3 250/2/3
f 252/2/3 247/2/3 251/2/3
f 253/2/3 251/2/3 250/2/3
f 254/2/3 251/2/3 253/2/3
f 260/3/3 256/3/3 255/3/3
f 261/3/3 256/3/3 260/3/3
f 262/3/3 256/3/3 261/3/3
f 266/2/3 258/2/3 257/2/3
f 267/2/3 258/2/3 266/2/3
f 270/1/3 260/1/3 259/1/3
f 270/3/3 261/3/3 260/3/3
f 271/4/3 262/4/3 261/4/3
f 271/3/3 261/3/3 270/3/3
f 271/4/3 263/4/3 262/4/3
f 272/4/3 263/4/3 271/4/3
f 273/4/3 263/4/3 272/4/3
f 275/2/3 265/2/3 264/2/3
f 276/2/3 265/2/3 275/2/3
f 277/2/3 269/2/3 268/2/3
f 278/2/3 269/2/3 277/2/3
f 280/1/3 270/1/3 259/1/3
f 280/1/3 271/1/3 270/1/3
f 280/1/3 272/1/3 271/1/3
f 281/1/3 272/1/3 280/1/3
f 282/1/3 272/1/3 281/1/3
f 283/4/3 274/4/3 273/4/3
f 284/4/3 274/4/3 283/4/3
f 285/2/3 279/2/3 278/2/3
f 286/2/3 279/2/3 285/2/3
f 287/1/3 282/1/3 281/1/3
f 288/1/3 282/1/3 287/1/3
f 289/1/3 284/1/3 283/1/3
f 293/1/3 290/1/3 289/1/3
f 293/1/3 289/1/3 283/1/3
f 294/1/3 290/1/3 293/1/3
f 296/1/3 292/1/3 291/1/3
f 297/1/3 292/1/3 296/1/3
f 298/1/3 293/1/3 283/1/3
f 299/1/3 293/1/3 298/1/3
f 300/6/3 286/6/3 285/6/3
f 301/6/3 286/6/3 300/6/3
f 302/1/3 297/1/3 296/1/3
f 302/1/3 296/1/3 295/1/3
f 303/1/3 297/1/3 302/1/3
f 304/1/3 297/1/3 303/1/3
f 305/4/3 299/4/3 298/4/3
f 306/4/3 299/4/3 305/4/3
f 310/2/3 301/2/3 300/2/3
f 311/2/3 301/2/3 310/2/3
f 312/1/3 302/1/3 295/1/3
f 313/3/3 303/3/3 302/3/3
f 313/1/3 302/1/3 312/1/3
f 314/4/3 304/4/3 303/4/3
f 314/3/3 303/3/3 313/3/3
f 314/4/3 305/4/3 304/4/3
f 315/4/3 305/4/3 314/4/3
f 316/4/3 305/4/3 315/4/3
f 317/2/3 308/2/3 307/2/3
f 318/2/3 308/2/3 317/2/3
f 321/2/3 310/2/3 309/2/3
f 322/2/3 310/2/3 321/2/3
f 323/3/3 314/3/3 313/3/3
f 323/3/3 315/3/3 314/3/3
f 324/3/3 315/3/3 323/3/3
f 325/2/3 320/2/3 319/2/3
f 326/2/3 320/2/3 325/2/3
f 327/3/4 328/3/4 332/3/4
f 332/3/4 328/3/4 333/3/4
f 333/3/4 328/3/4 334/3/4
f 329/2/4 330/2/4 338/2/4
f 338/2/4 330/2/4 339/2/4
f 331/1/4 332/1/4 342/1/4
f 332/3/4 333/3/4 342/3/4
f 333/4/4 334/4/4 343/4/4
f 342/3/4 333/3/4 343/3/4
f 334/4/4 335/4/4 343/4/4
f 343/4/4 335/4/4 344/4/4
f 344/4/4 335/4/4 345/4/4
f 336/2/4 337/2/4 347/2/4
f 347/2/4 337/2/4 348/2/4
f 340/2/4 341/2/4 349/2/4
f 349/2/4 341/2/4 350/2/4
f 331/1/4 342/1/4 352/1/4
f 342/1/4 343/1/4 352/1/4
f 343/1/4 344/1/4 352/1/4
f 352/1/4 344/1/4 353/1/4
f 353/1/4 344/1/4 354/1/4
f 345/4/4 346/4/4 355/4/4
f 355/4/4 346/4/4 356/4/4
f 350/2/4 351/2/4 357/2/4
f 357/2/4 351/2/4 358/2/4
f 353/1/4 354/1/4 359/1/4
f 359/1/4 354/1/4 360/1/4
f 355/1/4 356/1/4 361/1/4
f 361/1/4 362/1/4 365/1/4
f 355/1/4 361/1/4 365/1/4
f 365/1/4 362/1/4 366/1/4
f 363/1/4 364/1/4 368/1/4
f 368/1/4 364/1/4 369/1/4
f 355/1/4 365/1/4 370/1/4
f 370/1/4 365/1/4 371/1/4
f 357/6/4 358/6/4 372/6/4
f 372/6/4 358/6/4 373/6/4
f 368/1/4 369/1/4 374/1/4
f 367/1/4 368/1/4 374/1/4
f 374/1/4 369/1/4 375/1/4
f 375/1/4 369/1/4 376/1/4
f 370/4/4 371/4/4 377/4/4
f 377/4/4 371/4/4 378/4/4
f 372/2/4 373/2/4 382/2/4
f 382/2/4 373/2/4 383/2/4
f 367/1/4 374/1/4 384/1/4
f 374/3/4 375/3/4 385/3/4
f 384/1/4 374/1/4 385/1/4
f 375/4/4 376/4/4 386/4/4
f 385/3/4 375/3/4 386/3/4
f 376/4/4 377/4/4 386/4/4
f 386/4/4 377/4/4 387/4/4
f 387/4/4 377/4/4 388/4/4
f 379/2/4 380/2/4 389/2/4
f 389/2/4 380/2/4 390/2/4
f 381/2/4 382/2/4 393/2/4
f 393/2/4 382/2/4 394/2/4
f 385/3/4 386/3/4 395/3/4
f 386/3/4 387/3/4 395/3/4
f 395/3/4 387/3/4 396/3/4
f 391/2/4 392/2/4 397/2/4
f 397/2/4 392/2/4 398/2/4
f 399/2/4 400/2/4 402/2/4
f 402/2/4 400/2/4 403/2/4
f 401/1/4 402/1/4 409/1/4
f 402/2/4 403/2/4 410/2/4
f 403/2/4 404/2/4 410/2/4
f 409/1/4 402/1/4 410/1/4
f 410/2/4 404/2/4 411/2/4
f 411/2/4 404/2/4 412/2/4
f 405/4/4 406/4/4 416/4/4
f 416/4/4 406/4/4 417/4/4
f 407/1/4 408/1/4 418/1/4
f 408/2/4 409/2/4 419/2/4
f 418/1/4 408/1/4 419/1/4
f 409/2/4 410/2/4 419/2/4
f 410/2/4 411/2/4 419/2/4
f 419/2/4 411/2/4 420/2/4
f 420/2/4 411/2/4 421/2/4
f 412/6/4 413/6/4 422/6/4
f 421/2/4 411/2/4 422/2/4
f 411/6/4 412/6/4 422/6/4
f 414/4/4 415/4/4 423/4/4
f 423/4/4 415/4/4 424/4/4
f 424/4/4 415/4/4 425/4/4
f 416/3/4 417/3/4 426/3/4
f 418/2/4 419/2/4 427/2/4
f 419/6/4 420/6/4 428/6/4
f 427/2/4 419/2/4 428/2/4
f 423/1/4 424/1/4 429/1/4
f 424/3/4 425/3/4 430/3/4
f 429/1/4 424/1/4 430/1/4
f 425/4/4 426/4/4 431/4/4
f 430/3/4 425/3/4 431/3/4
f 426/3/4 417/3/4 432/3/4
f 431/4/4 426/4/4 432/4/4
f 428/6/4 420/6/4 434/6/4
f 429/4/4 430/4/4 435/4/4
f 430/4/4 431/4/4 435/4/4
f 435/4/4 431/4/4 436/4/4
f 432/3/4 417/3/4 437/3/4
f 437/3/4 417/3/4 438/3/4
f 433/2/4 434/2/4 439/2/4
f 434/6/4 420/6/4 440/6/4
f 439/2/4 434/2/4 440/2/4
f 420/2/4 421/2/4 441/2/4
f 440/6/4 420/6/4 441/6/4
f 421/6/4 422/6/4 442/6/4
f 441/2/4 421/2/4 442/2/4
f 422/6/4 413/6/4 443/6/4
f 442/6/4 422/6/4 443/6/4
f 437/4/4 438/4/4 444/4/4
f 444/4/4 438/4/4 445/4/4
f 439/1/4 440/1/4 446/1/4
f 441/2/4 442/2/4 447/2/4
f 446/1/4 440/1/4 447/1/4
f 440/2/4 441/2/4 447/2/4
f 442/2/4 443/2/4 447/2/4
f 447/2/4 443/2/4 448/2/4
f 448/2/4 443/2/4 449/2/4
f 443/6/4 413/6/4 450/6/4
f 449/2/4 443/2/4 450/2/4
f 450/6/4 413/6/4 451/6/4
f 451/6/4 413/6/4 452/6/4
f 448/1/4 449/1/4 453/1/4
f 450/2/4 451/2/4 454/2/4
f 453/1/4 449/1/4 454/1/4
f 449/2/4 450/2/4 454/2/4
f 454/2/4 451/2/4 455/2/4
f 455/2/4 451/2/4 456/2/4
f 454/2/4 455/2/4 457/2/4
f 457/2/4 455/2/4 458/2/4
f 464/4/5 460/4/5 459/4/5
f 465/4/5 462/4/5 461/4/5
f 467/1/5 464/1/5 463/1/5
f 468/4/5 460/4/5 464/4/5
f 468/1/5 464/1/5 467/1/5
f 469/1/5 466/1/5 465/1/5
f 469/4/5 465/4/5 461/4/5
f 470/1/5 466/1/5 469/1/5
f 471/4/5 460/4/5 468/4/5
f 472/1/5 461/1/5 460/1/5
f 472/4/5 460/4/5 471/4/5
f 473/4/5 469/4/5 461/4/5
f 473/1/5 461/1/5 472/1/5
f 474/4/5 469/4/5 473/4/5
f 479/3/5 476/3/5 475/3/5
f 480/3/5 476/3/5 479/3/5
f 481/3/5 478/3/5 477/3/5
f 482/3/5 478/3/5 481/3/5
f 489/4/5 484/4/5 483/4/5
f 490/3/5 485/3/5 484/3/5
f 490/4/5 484/4/5 489/4/5
f 491/3/5 485/3/5 490/3/5
f 492/3/5 487/3/5 486/3/5
f 493/4/5 488/4/5 487/4/5
f 493/3/5 487/3/5 492/3/5
f 494/4/5 488/4/5 493/4/5
f 501/4/5 496/4/5 495/4/5
f 502/3/5 497/3/5 496/3/5
f 502/4/5 496/4/5 501/4/5
f 503/3/5 497/3/5 502/3/5
f 504/3/5 499/3/5 498/3/5
f 505/4/5 500/4/5 499/4/5
f 505/3/5 499/3/5 504/3/5
f 506/4/5 500/4/5 505/4/5
f 513/1/5 508/1/5 507/1/5
f 514/3/5 509/3/5 508/3/5
f 514/1/5 508/1/5 513/1/5
f 515/3/5 509/3/5 514/3/5
f 516/3/5 511/3/5 510/3/5
f 517/1/5 512/1/5 511/1/5
f 517/3/5 511/3/5 516/3/5
f 518/1/5 512/1/5 517/1/5
f 525/1/5 520/1/5 519/1/5
f 526/2/5 521/2/5 520/2/5
f 526/1/5 520/1/5 525/1/5
f 527/2/5 521/2/5 526/2/5
f 528/2/5 523/2/5 522/2/5
f 529/1/5 524/1/5 523/1/5
f 529/2/5 523/2/5 528/2/5
f 530/1/5 524/1/5 529/1/5
f 535/3/5 532/3/5 531/3/5
f 536/3/5 532/3/5 535/3/5
f 539/2/5 534/2/5 533/2/5
f 540/2/5 534/2/5 539/2/5
f 543/2/5 538/2/5 537/2/5
f 544/2/5 538/2/5 543/2/5
f 545/6/5 542/6/5 541/6/5
f 546/6/5 542/6/5 545/6/5
f 551/1/5 548/1/5 547/1/5
f 552/1/5 548/1/5 551/1/5
f 553/1/5 550/1/5 549/1/5
f 554/1/5 550/1/5 553/1/5
f 559/1/5 556/1/5 555/1/5
f 560/1/5 556/1/5 559/1/5
f 561/1/5 558/1/5 557/1/5
f 562/1/5 558/1/5 561/1/5
f 567/2/5 564/2/5 563/2/5
f 568/2/5 564/2/5 567/2/5
f 569/2/5 566/2/5 565/2/5
f 570/2/5 566/2/5 569/2/5
f 571/4/6 572/4/6 575/4/6
f 575/4/6 572/4/6 576/4/6
f 573/4/6 574/4/6 577/4/6
f 577/4/6 574/4/6 578/4/6
f 579/4/6 580/4/6 583/4/6
f 583/4/6 580/4/6 584/4/6
f 581/4/6 582/4/6 585/4/6
f 585/4/6 582/4/6 586/4/6
f 587/3/6 588/3/6 591/3/6
f 591/3/6 588/3/6 592/3/6
f 589/3/6 590/3/6 593/3/6
f 593/3/6 590/3/6 594/3/6
f 595/4/6 596/4/6 600/4/6
f 596/3/6 597/3/6 601/3/6
f 600/4/6 596/4/6 601/4/6
f 597/4/6 598/4/6 602/4/6
f 601/3/6 597/3/6 602/3/6
f 602/4/6 598/4/6 603/4/6
f 599/4/6 600/4/6 605/4/6
f 605/4/6 600/4/6 606/4/6
f 603/4/6 604/4/6 609/4/6
f 609/4/6 604/4/6 610/4/6
f 606/4/6 607/4/6 611/4/6
f 607/3/6 608/3/6 612/3/6
f 611/4/6 607/4/6 612/4/6
f 608/4/6 609/4/6 613/4/6
f 612/3/6 608/3/6 613/3/6
f 613/4/6 609/4/6 614/4/6
f 615/2/6 616/2/6 619/2/6
f 619/2/6 616/2/6 620/2/6
f 617/2/6 618/2/6 621/2/6
f 621/2/6 618/2/6 622/2/6
f 623/2/6 624/2/6 627/2/6
f 627/2/6 624/2/6 628/2/6
f 625/2/6 626/2/6 629/2/6
f 629/2/6 626/2/6 630/2/6
f 631/2/6 632/2/6 635/2/6
f 635/2/6 632/2/6 636/2/6
f 633/2/6 634/2/6 637/2/6
f 637/2/6 634/2/6 638/2/6
f 639/2/6 640/2/6 643/2/6
f 643/2/6 640/2/6 644/2/6
f 641/2/6 642/2/6 645/2/6
f 645/2/6 642/2/6 646/2/6
f 647/2/6 648/2/6 651/2/6
f 651/2/6 648/2/6 652/2/6
f 649/2/6 650/2/6 653/2/6
f 653/2/6 650/2/6 654/2/6
f 655/6/6 656/6/6 658/6/6
f 658/6/6 656/6/6 659/6/6
f 659/6/6 656/6/6 660/6/6
f 660/6/6 656/6/6 661/6/6
f 657/2/6 658/2/6 663/2/6
f 663/2/6 658/2/6 664/2/6
f 661/2/6 662/2/6 667/2/6
f 667/2/6 662/2/6 668/2/6
f 665/6/6 666/6/6 669/6/6
f 666/6/6 667/6/6 669/6/6
f 664/6/6 665/6/6 669/6/6
f 669/6/6 667/6/6 670/6/6
f 671/2/6 672/2/6 675/2/6
f 672/6/6 673/6/6 676/6/6
f 675/2/6 672/2/6 676/2/6
f 673/2/6 674/2/6 677/2/6
f 676/6/6 673/6/6 677/6/6
f 677/2/6 674/2/6 678/2/6
