# MagicaVoxel @ Ephtracy

# group
g skele

# material
mtllib skele.mtl
usemtl palette

# normals
vn -1 0 0
vn 1 0 0
vn 0 0 1
vn 0 0 -1
vn 0 -1 0
vn 0 1 0

# texcoords
vt 0.00195313 0.5
vt 0.0800781 0.5
vt 0.0878906 0.5
vt 0.0996094 0.5

# verts
v -5 1 1.5
v -5 1 -1.5
v -5 3 1.5
v -5 3 -1.5
v -5 4 1.5
v -5 4 -1.5
v -4 4 1.5
v -4 4 -1.5
v -4 5 1.5
v -4 5 -1.5
v -4 6 0.5
v -4 6 -0.5
v -4 7 1.5
v -4 7 0.5
v -4 7 -0.5
v -4 7 -1.5
v -4 8 1.5
v -4 8 -1.5
v -4 12 1.5
v -4 12 -1.5
v -3 0 1.5
v -3 0 -1.5
v -3 1 1.5
v -3 1 -1.5
v -3 2 1.5
v -3 2 0.5
v -3 2 -0.5
v -3 2 -1.5
v -3 3 2.5
v -3 3 1.5
v -3 3 0.5
v -3 3 -0.5
v -3 3 -1.5
v -3 3 -2.5
v -3 4 2.5
v -3 4 1.5
v -3 4 -1.5
v -3 4 -2.5
v -3 5 1.5
v -3 5 -1.5
v -3 6 2.5
v -3 6 1.5
v -3 6 0.5
v -3 6 -0.5
v -3 6 -1.5
v -3 6 -2.5
v -3 7 2.5
v -3 7 1.5
v -3 7 0.5
v -3 7 -0.5
v -3 7 -1.5
v -3 8 1.5
v -3 8 -1.5
v -3 9 2.5
v -3 9 1.5
v -3 10 -1.5
v -3 10 -2.5
v -3 12 2.5
v -3 12 1.5
v -3 12 0.5
v -3 12 -0.5
v -3 12 -1.5
v -3 12 -2.5
v -3 13 0.5
v -3 13 -0.5
v -2 0 2.5
v -2 0 1.5
v -2 0 -1.5
v -2 0 -2.5
v -2 2 2.5
v -2 2 1.5
v -2 2 -1.5
v -2 2 -2.5
v -2 5 2.5
v -2 5 1.5
v -2 5 -1.5
v -2 5 -2.5
v -2 6 2.5
v -2 6 1.5
v -2 6 -1.5
v -2 6 -2.5
v -2 12 1.5
v -2 12 0.5
v -2 12 -0.5
v -2 12 -1.5
v -2 13 1.5
v -2 13 0.5
v -2 13 -0.5
v -2 13 -1.5
v -1 2 2.5
v -1 2 1.5
v -1 2 -1.5
v -1 2 -2.5
v -1 3 2.5
v -1 3 1.5
v -1 3 -1.5
v -1 3 -2.5
v 1 0 2.5
v 1 0 1.5
v 1 0 -1.5
v 1 0 -2.5
v 1 1 2.5
v 1 1 1.5
v 1 1 -1.5
v 1 1 -2.5
v 1 5 2.5
v 1 5 1.5
v 1 5 -1.5
v 1 5 -2.5
v 1 6 2.5
v 1 6 1.5
v 1 6 -1.5
v 1 6 -2.5
v -4 2 1.5
v -4 2 0.5
v -4 2 -0.5
v -4 2 -1.5
v -4 3 1.5
v -4 3 0.5
v -4 3 -0.5
v -4 3 -1.5
v -1 0 2.5
v -1 0 1.5
v -1 0 -1.5
v -1 0 -2.5
v -1 1 2.5
v -1 1 1.5
v -1 1 -1.5
v -1 1 -2.5
v -1 5 2.5
v -1 5 1.5
v -1 5 -1.5
v -1 5 -2.5
v -1 6 2.5
v -1 6 1.5
v -1 6 -1.5
v -1 6 -2.5
v 1 2 2.5
v 1 2 1.5
v 1 2 -1.5
v 1 2 -2.5
v 1 3 2.5
v 1 3 1.5
v 1 3 -1.5
v 1 3 -2.5
v 2 0 2.5
v 2 0 1.5
v 2 0 -1.5
v 2 0 -2.5
v 2 2 2.5
v 2 2 1.5
v 2 2 -1.5
v 2 2 -2.5
v 2 5 2.5
v 2 5 1.5
v 2 5 -1.5
v 2 5 -2.5
v 2 6 2.5
v 2 6 1.5
v 2 6 -1.5
v 2 6 -2.5
v 2 12 1.5
v 2 12 0.5
v 2 12 -0.5
v 2 12 -1.5
v 2 13 1.5
v 2 13 0.5
v 2 13 -0.5
v 2 13 -1.5
v 3 0 1.5
v 3 0 -1.5
v 3 1 1.5
v 3 1 -1.5
v 3 3 2.5
v 3 3 1.5
v 3 3 -1.5
v 3 3 -2.5
v 3 4 2.5
v 3 4 1.5
v 3 4 -1.5
v 3 4 -2.5
v 3 5 1.5
v 3 5 -1.5
v 3 6 2.5
v 3 6 1.5
v 3 6 0.5
v 3 6 -0.5
v 3 6 -1.5
v 3 6 -2.5
v 3 7 2.5
v 3 7 1.5
v 3 7 0.5
v 3 7 -0.5
v 3 7 -1.5
v 3 8 1.5
v 3 8 -1.5
v 3 9 2.5
v 3 9 1.5
v 3 10 -1.5
v 3 10 -2.5
v 3 12 2.5
v 3 12 1.5
v 3 12 0.5
v 3 12 -0.5
v 3 12 -1.5
v 3 12 -2.5
v 3 13 0.5
v 3 13 -0.5
v 4 4 1.5
v 4 4 -1.5
v 4 5 1.5
v 4 5 -1.5
v 4 6 0.5
v 4 6 -0.5
v 4 7 1.5
v 4 7 0.5
v 4 7 -0.5
v 4 7 -1.5
v 4 8 1.5
v 4 8 -1.5
v 4 12 1.5
v 4 12 -1.5
v 5 1 1.5
v 5 1 -1.5
v 5 3 1.5
v 5 3 -1.5
v 5 4 1.5
v 5 4 -1.5
v -3 3 2.5
v -3 4 2.5
v -3 6 2.5
v -3 7 2.5
v -3 9 2.5
v -3 12 2.5
v -2 0 2.5
v -2 2 2.5
v -2 3 2.5
v -2 4 2.5
v -2 5 2.5
v -2 6 2.5
v -2 7 2.5
v -2 8 2.5
v -2 10 2.5
v -2 11 2.5
v -1 0 2.5
v -1 1 2.5
v -1 2 2.5
v -1 3 2.5
v -1 5 2.5
v -1 6 2.5
v -1 7 2.5
v -1 8 2.5
v -1 9 2.5
v -1 10 2.5
v 0 7 2.5
v 0 8 2.5
v 1 0 2.5
v 1 1 2.5
v 1 2 2.5
v 1 3 2.5
v 1 5 2.5
v 1 6 2.5
v 1 7 2.5
v 1 8 2.5
v 1 9 2.5
v 1 10 2.5
v 2 0 2.5
v 2 2 2.5
v 2 3 2.5
v 2 4 2.5
v 2 5 2.5
v 2 6 2.5
v 2 7 2.5
v 2 8 2.5
v 2 10 2.5
v 2 11 2.5
v 3 3 2.5
v 3 4 2.5
v 3 6 2.5
v 3 7 2.5
v 3 9 2.5
v 3 12 2.5
v -5 1 1.5
v -5 3 1.5
v -5 4 1.5
v -4 2 1.5
v -4 3 1.5
v -4 4 1.5
v -4 5 1.5
v -4 7 1.5
v -4 8 1.5
v -4 12 1.5
v -3 0 1.5
v -3 1 1.5
v -3 2 1.5
v -3 3 1.5
v -3 4 1.5
v -3 5 1.5
v -3 6 1.5
v -3 7 1.5
v -3 8 1.5
v -3 9 1.5
v -3 12 1.5
v -2 0 1.5
v -2 2 1.5
v -2 3 1.5
v -2 4 1.5
v -2 5 1.5
v -2 6 1.5
v -2 12 1.5
v -2 13 1.5
v -1 0 1.5
v -1 1 1.5
v -1 2 1.5
v -1 3 1.5
v -1 5 1.5
v -1 6 1.5
v 1 0 1.5
v 1 1 1.5
v 1 2 1.5
v 1 3 1.5
v 1 5 1.5
v 1 6 1.5
v 2 0 1.5
v 2 2 1.5
v 2 3 1.5
v 2 4 1.5
v 2 5 1.5
v 2 6 1.5
v 2 12 1.5
v 2 13 1.5
v 3 0 1.5
v 3 1 1.5
v 3 2 1.5
v 3 3 1.5
v 3 4 1.5
v 3 5 1.5
v 3 6 1.5
v 3 7 1.5
v 3 8 1.5
v 3 9 1.5
v 3 12 1.5
v 4 2 1.5
v 4 3 1.5
v 4 4 1.5
v 4 5 1.5
v 4 7 1.5
v 4 8 1.5
v 4 12 1.5
v 5 1 1.5
v 5 3 1.5
v 5 4 1.5
v -4 2 0.5
v -4 3 0.5
v -4 6 0.5
v -4 7 0.5
v -3 2 0.5
v -3 3 0.5
v -3 6 0.5
v -3 7 0.5
v -3 12 0.5
v -3 13 0.5
v -2 12 0.5
v -2 13 0.5
v 2 12 0.5
v 2 13 0.5
v 3 6 0.5
v 3 7 0.5
v 3 12 0.5
v 3 13 0.5
v 4 6 0.5
v 4 7 0.5
v -4 2 -0.5
v -4 3 -0.5
v -4 6 -0.5
v -4 7 -0.5
v -3 2 -0.5
v -3 3 -0.5
v -3 6 -0.5
v -3 7 -0.5
v -3 12 -0.5
v -3 13 -0.5
v -2 12 -0.5
v -2 13 -0.5
v 2 12 -0.5
v 2 13 -0.5
v 3 6 -0.5
v 3 7 -0.5
v 3 12 -0.5
v 3 13 -0.5
v 4 6 -0.5
v 4 7 -0.5
v -5 1 -1.5
v -5 3 -1.5
v -5 4 -1.5
v -4 2 -1.5
v -4 3 -1.5
v -4 4 -1.5
v -4 5 -1.5
v -4 7 -1.5
v -4 8 -1.5
v -4 12 -1.5
v -3 0 -1.5
v -3 1 -1.5
v -3 2 -1.5
v -3 3 -1.5
v -3 4 -1.5
v -3 5 -1.5
v -3 6 -1.5
v -3 7 -1.5
v -3 8 -1.5
v -3 10 -1.5
v -3 12 -1.5
v -2 0 -1.5
v -2 2 -1.5
v -2 3 -1.5
v -2 4 -1.5
v -2 5 -1.5
v -2 6 -1.5
v -2 12 -1.5
v -2 13 -1.5
v -1 0 -1.5
v -1 1 -1.5
v -1 2 -1.5
v -1 3 -1.5
v -1 5 -1.5
v -1 6 -1.5
v 1 0 -1.5
v 1 1 -1.5
v 1 2 -1.5
v 1 3 -1.5
v 1 5 -1.5
v 1 6 -1.5
v 2 0 -1.5
v 2 2 -1.5
v 2 3 -1.5
v 2 4 -1.5
v 2 5 -1.5
v 2 6 -1.5
v 2 12 -1.5
v 2 13 -1.5
v 3 0 -1.5
v 3 1 -1.5
v 3 2 -1.5
v 3 3 -1.5
v 3 4 -1.5
v 3 5 -1.5
v 3 6 -1.5
v 3 7 -1.5
v 3 8 -1.5
v 3 10 -1.5
v 3 12 -1.5
v 4 2 -1.5
v 4 3 -1.5
v 4 4 -1.5
v 4 5 -1.5
v 4 7 -1.5
v 4 8 -1.5
v 4 12 -1.5
v 5 1 -1.5
v 5 3 -1.5
v 5 4 -1.5
v -3 3 -2.5
v -3 4 -2.5
v -3 6 -2.5
v -3 10 -2.5
v -3 12 -2.5
v -2 0 -2.5
v -2 2 -2.5
v -2 3 -2.5
v -2 4 -2.5
v -2 5 -2.5
v -2 6 -2.5
v -2 9 -2.5
v -2 10 -2.5
v -1 0 -2.5
v -1 1 -2.5
v -1 2 -2.5
v -1 3 -2.5
v -1 5 -2.5
v -1 6 -2.5
v -1 7 -2.5
v 1 0 -2.5
v 1 1 -2.5
v 1 2 -2.5
v 1 3 -2.5
v 1 5 -2.5
v 1 6 -2.5
v 1 7 -2.5
v 2 0 -2.5
v 2 2 -2.5
v 2 3 -2.5
v 2 4 -2.5
v 2 5 -2.5
v 2 6 -2.5
v 2 9 -2.5
v 2 10 -2.5
v 3 3 -2.5
v 3 4 -2.5
v 3 6 -2.5
v 3 10 -2.5
v 3 12 -2.5
v -2 0 2.5
v -1 0 2.5
v 1 0 2.5
v 2 0 2.5
v -3 0 1.5
v -2 0 1.5
v -1 0 1.5
v 1 0 1.5
v 2 0 1.5
v 3 0 1.5
v -3 0 -1.5
v -2 0 -1.5
v -1 0 -1.5
v 1 0 -1.5
v 2 0 -1.5
v 3 0 -1.5
v -2 0 -2.5
v -1 0 -2.5
v 1 0 -2.5
v 2 0 -2.5
v -1 1 2.5
v 1 1 2.5
v -5 1 1.5
v -3 1 1.5
v -1 1 1.5
v 1 1 1.5
v 3 1 1.5
v 5 1 1.5
v -5 1 -1.5
v -3 1 -1.5
v -1 1 -1.5
v 1 1 -1.5
v 3 1 -1.5
v 5 1 -1.5
v -1 1 -2.5
v 1 1 -2.5
v -3 3 2.5
v -2 3 2.5
v -1 3 2.5
v 1 3 2.5
v 2 3 2.5
v 3 3 2.5
v -4 3 1.5
v -3 3 1.5
v -2 3 1.5
v -1 3 1.5
v 1 3 1.5
v 2 3 1.5
v 3 3 1.5
v -4 3 0.5
v -3 3 0.5
v -4 3 -0.5
v -3 3 -0.5
v -4 3 -1.5
v -3 3 -1.5
v -2 3 -1.5
v -1 3 -1.5
v 1 3 -1.5
v 2 3 -1.5
v 3 3 -1.5
v -3 3 -2.5
v -2 3 -2.5
v -1 3 -2.5
v 1 3 -2.5
v 2 3 -2.5
v 3 3 -2.5
v -2 5 2.5
v -1 5 2.5
v 1 5 2.5
v 2 5 2.5
v -2 5 1.5
v -1 5 1.5
v 1 5 1.5
v 2 5 1.5
v -2 5 -1.5
v -1 5 -1.5
v 1 5 -1.5
v 2 5 -1.5
v -2 5 -2.5
v -1 5 -2.5
v 1 5 -2.5
v 2 5 -2.5
v -3 6 2.5
v -2 6 2.5
v -1 6 2.5
v 1 6 2.5
v 2 6 2.5
v 3 6 2.5
v -3 6 1.5
v -2 6 1.5
v -1 6 1.5
v 1 6 1.5
v 2 6 1.5
v 3 6 1.5
v -4 6 0.5
v -3 6 0.5
v 3 6 0.5
v 4 6 0.5
v -4 6 -0.5
v -3 6 -0.5
v 3 6 -0.5
v 4 6 -0.5
v -3 6 -1.5
v -2 6 -1.5
v -1 6 -1.5
v 1 6 -1.5
v 2 6 -1.5
v 3 6 -1.5
v -3 6 -2.5
v -2 6 -2.5
v -1 6 -2.5
v 1 6 -2.5
v 2 6 -2.5
v 3 6 -2.5
v -4 7 1.5
v -3 7 1.5
v 3 7 1.5
v 4 7 1.5
v -4 7 0.5
v -3 7 0.5
v 3 7 0.5
v 4 7 0.5
v -4 7 -0.5
v -3 7 -0.5
v 3 7 -0.5
v 4 7 -0.5
v -4 7 -1.5
v -3 7 -1.5
v 3 7 -1.5
v 4 7 -1.5
v -2 2 2.5
v -1 2 2.5
v 1 2 2.5
v 2 2 2.5
v -4 2 1.5
v -3 2 1.5
v -2 2 1.5
v -1 2 1.5
v 1 2 1.5
v 2 2 1.5
v -4 2 0.5
v -3 2 0.5
v -4 2 -0.5
v -3 2 -0.5
v -4 2 -1.5
v -3 2 -1.5
v -2 2 -1.5
v -1 2 -1.5
v 1 2 -1.5
v 2 2 -1.5
v -2 2 -2.5
v -1 2 -2.5
v 1 2 -2.5
v 2 2 -2.5
v -3 4 2.5
v -2 4 2.5
v 2 4 2.5
v 3 4 2.5
v -5 4 1.5
v -4 4 1.5
v -3 4 1.5
v -2 4 1.5
v 2 4 1.5
v 3 4 1.5
v 4 4 1.5
v 5 4 1.5
v -5 4 -1.5
v -4 4 -1.5
v -3 4 -1.5
v -2 4 -1.5
v 2 4 -1.5
v 3 4 -1.5
v 4 4 -1.5
v 5 4 -1.5
v -3 4 -2.5
v -2 4 -2.5
v 2 4 -2.5
v 3 4 -2.5
v -4 5 1.5
v -3 5 1.5
v 3 5 1.5
v 4 5 1.5
v -4 5 -1.5
v -3 5 -1.5
v 3 5 -1.5
v 4 5 -1.5
v -3 12 2.5
v 3 12 2.5
v -4 12 1.5
v -3 12 1.5
v -2 12 1.5
v 2 12 1.5
v 3 12 1.5
v 4 12 1.5
v -3 12 0.5
v -2 12 0.5
v 2 12 0.5
v 3 12 0.5
v -3 12 -0.5
v -2 12 -0.5
v 2 12 -0.5
v 3 12 -0.5
v -4 12 -1.5
v -3 12 -1.5
v -2 12 -1.5
v 2 12 -1.5
v 3 12 -1.5
v 4 12 -1.5
v -3 12 -2.5
v 3 12 -2.5
v -2 13 1.5
v 2 13 1.5
v -3 13 0.5
v -2 13 0.5
v 2 13 0.5
v 3 13 0.5
v -3 13 -0.5
v -2 13 -0.5
v 2 13 -0.5
v 3 13 -0.5
v -2 13 -1.5
v 2 13 -1.5

# faces
f 3/2/1 2/2/1 1/2/1
f 4/2/1 2/2/1 3/2/1
f 5/1/1 4/1/1 3/1/1
f 6/1/1 4/1/1 5/1/1
f 9/1/1 8/1/1 7/1/1
f 10/1/1 8/1/1 9/1/1
f 14/3/1 12/3/1 11/3/1
f 15/3/1 12/3/1 14/3/1
f 17/1/1 14/1/1 13/1/1
f 17/1/1 16/1/1 15/1/1
f 17/1/1 15/1/1 14/1/1
f 18/1/1 16/1/1 17/1/1
f 19/3/1 18/3/1 17/3/1
f 20/3/1 18/3/1 19/3/1
f 23/1/1 22/1/1 21/1/1
f 24/1/1 22/1/1 23/1/1
f 30/1/1 26/1/1 25/1/1
f 31/1/1 26/1/1 30/1/1
f 32/1/1 28/1/1 27/1/1
f 33/1/1 28/1/1 32/1/1
f 35/3/1 30/3/1 29/3/1
f 36/3/1 30/3/1 35/3/1
f 37/3/1 34/3/1 33/3/1
f 38/3/1 34/3/1 37/3/1
f 42/1/1 40/1/1 39/1/1
f 43/1/1 40/1/1 42/1/1
f 44/1/1 40/1/1 43/1/1
f 45/1/1 40/1/1 44/1/1
f 47/2/1 42/2/1 41/2/1
f 48/3/1 43/3/1 42/3/1
f 48/2/1 42/2/1 47/2/1
f 49/3/1 43/3/1 48/3/1
f 50/3/1 46/3/1 45/3/1
f 50/3/1 45/3/1 44/3/1
f 51/3/1 46/3/1 50/3/1
f 52/1/1 48/1/1 47/1/1
f 53/3/1 46/3/1 51/3/1
f 54/1/1 52/1/1 47/1/1
f 55/1/1 52/1/1 54/1/1
f 56/3/1 46/3/1 53/3/1
f 57/3/1 46/3/1 56/3/1
f 58/2/1 55/2/1 54/2/1
f 59/2/1 55/2/1 58/2/1
f 62/2/1 57/2/1 56/2/1
f 63/2/1 57/2/1 62/2/1
f 64/3/1 61/3/1 60/3/1
f 65/3/1 61/3/1 64/3/1
f 70/3/1 67/3/1 66/3/1
f 71/3/1 67/3/1 70/3/1
f 72/3/1 69/3/1 68/3/1
f 73/3/1 69/3/1 72/3/1
f 78/2/1 75/2/1 74/2/1
f 79/2/1 75/2/1 78/2/1
f 80/3/1 77/3/1 76/3/1
f 81/3/1 77/3/1 80/3/1
f 86/2/1 83/2/1 82/2/1
f 87/2/1 83/2/1 86/2/1
f 88/2/1 85/2/1 84/2/1
f 89/2/1 85/2/1 88/2/1
f 94/3/1 91/3/1 90/3/1
f 95/3/1 91/3/1 94/3/1
f 96/3/1 93/3/1 92/3/1
f 97/3/1 93/3/1 96/3/1
f 102/3/1 99/3/1 98/3/1
f 103/3/1 99/3/1 102/3/1
f 104/3/1 101/3/1 100/3/1
f 105/3/1 101/3/1 104/3/1
f 110/2/1 107/2/1 106/2/1
f 111/2/1 107/2/1 110/2/1
f 112/3/1 109/3/1 108/3/1
f 113/3/1 109/3/1 112/3/1
f 114/2/2 115/2/2 118/2/2
f 118/2/2 115/2/2 119/2/2
f 116/2/2 117/2/2 120/2/2
f 120/2/2 117/2/2 121/2/2
f 122/3/2 123/3/2 126/3/2
f 126/3/2 123/3/2 127/3/2
f 124/3/2 125/3/2 128/3/2
f 128/3/2 125/3/2 129/3/2
f 130/2/2 131/2/2 134/2/2
f 134/2/2 131/2/2 135/2/2
f 132/3/2 133/3/2 136/3/2
f 136/3/2 133/3/2 137/3/2
f 138/3/2 139/3/2 142/3/2
f 142/3/2 139/3/2 143/3/2
f 140/3/2 141/3/2 144/3/2
f 144/3/2 141/3/2 145/3/2
f 146/3/2 147/3/2 150/3/2
f 150/3/2 147/3/2 151/3/2
f 148/3/2 149/3/2 152/3/2
f 152/3/2 149/3/2 153/3/2
f 154/2/2 155/2/2 158/2/2
f 158/2/2 155/2/2 159/2/2
f 156/3/2 157/3/2 160/3/2
f 160/3/2 157/3/2 161/3/2
f 162/2/2 163/2/2 166/2/2
f 166/2/2 163/2/2 167/2/2
f 164/2/2 165/2/2 168/2/2
f 168/2/2 165/2/2 169/2/2
f 170/1/2 171/1/2 172/1/2
f 172/1/2 171/1/2 173/1/2
f 174/3/2 175/3/2 178/3/2
f 178/3/2 175/3/2 179/3/2
f 176/3/2 177/3/2 180/3/2
f 180/3/2 177/3/2 181/3/2
f 182/1/2 183/1/2 185/1/2
f 185/1/2 183/1/2 186/1/2
f 186/1/2 183/1/2 187/1/2
f 187/1/2 183/1/2 188/1/2
f 184/2/2 185/2/2 190/2/2
f 185/3/2 186/3/2 191/3/2
f 190/2/2 185/2/2 191/2/2
f 191/3/2 186/3/2 192/3/2
f 188/3/2 189/3/2 193/3/2
f 187/3/2 188/3/2 193/3/2
f 193/3/2 189/3/2 194/3/2
f 190/1/2 191/1/2 195/1/2
f 194/3/2 189/3/2 196/3/2
f 190/1/2 195/1/2 197/1/2
f 197/1/2 195/1/2 198/1/2
f 196/3/2 189/3/2 199/3/2
f 199/3/2 189/3/2 200/3/2
f 197/2/2 198/2/2 201/2/2
f 201/2/2 198/2/2 202/2/2
f 199/2/2 200/2/2 205/2/2
f 205/2/2 200/2/2 206/2/2
f 203/3/2 204/3/2 207/3/2
f 207/3/2 204/3/2 208/3/2
f 209/1/2 210/1/2 211/1/2
f 211/1/2 210/1/2 212/1/2
f 213/3/2 214/3/2 216/3/2
f 216/3/2 214/3/2 217/3/2
f 215/1/2 216/1/2 219/1/2
f 217/1/2 218/1/2 219/1/2
f 216/1/2 217/1/2 219/1/2
f 219/1/2 218/1/2 220/1/2
f 219/3/2 220/3/2 221/3/2
f 221/3/2 220/3/2 222/3/2
f 223/2/2 224/2/2 225/2/2
f 225/2/2 224/2/2 226/2/2
f 225/1/2 226/1/2 227/1/2
f 227/1/2 226/1/2 228/1/2
f 237/3/3 230/3/3 229/3/3
f 238/3/3 230/3/3 237/3/3
f 240/2/3 232/2/3 231/2/3
f 241/1/3 233/1/3 232/1/3
f 241/2/3 232/2/3 240/2/3
f 242/1/3 233/1/3 241/1/3
f 243/2/3 234/2/3 233/2/3
f 244/2/3 234/2/3 243/2/3
f 245/3/3 236/3/3 235/3/3
f 246/3/3 236/3/3 245/3/3
f 247/3/3 236/3/3 246/3/3
f 248/2/3 238/2/3 237/2/3
f 249/2/3 240/2/3 239/2/3
f 249/2/3 241/2/3 240/2/3
f 250/2/3 241/2/3 249/2/3
f 251/4/3 242/4/3 241/4/3
f 251/2/3 241/2/3 250/2/3
f 252/1/3 233/1/3 242/1/3
f 252/4/3 242/4/3 251/4/3
f 253/2/3 243/2/3 233/2/3
f 253/1/3 233/1/3 252/1/3
f 254/3/3 244/3/3 243/3/3
f 254/2/3 243/2/3 253/2/3
f 255/2/3 251/2/3 250/2/3
f 255/3/3 254/3/3 253/3/3
f 255/3/3 252/3/3 251/3/3
f 255/3/3 253/3/3 252/3/3
f 256/3/3 254/3/3 255/3/3
f 258/2/3 247/2/3 246/2/3
f 259/3/3 248/3/3 247/3/3
f 259/2/3 247/2/3 258/2/3
f 260/2/3 238/2/3 248/2/3
f 260/3/3 248/3/3 259/3/3
f 262/2/3 255/2/3 250/2/3
f 263/1/3 256/1/3 255/1/3
f 263/2/3 255/2/3 262/2/3
f 264/3/3 254/3/3 256/3/3
f 264/1/3 256/1/3 263/1/3
f 265/3/3 254/3/3 264/3/3
f 266/3/3 244/3/3 254/3/3
f 266/3/3 254/3/3 265/3/3
f 267/3/3 258/3/3 257/3/3
f 267/3/3 259/3/3 258/3/3
f 268/3/3 259/3/3 267/3/3
f 269/2/3 238/2/3 260/2/3
f 270/2/3 238/2/3 269/2/3
f 271/2/3 263/2/3 262/2/3
f 271/2/3 262/2/3 261/2/3
f 272/2/3 263/2/3 271/2/3
f 273/4/3 264/4/3 263/4/3
f 273/2/3 263/2/3 272/2/3
f 274/1/3 265/1/3 264/1/3
f 274/4/3 264/4/3 273/4/3
f 275/3/3 244/3/3 266/3/3
f 275/2/3 266/2/3 265/2/3
f 276/2/3 234/2/3 244/2/3
f 276/3/3 244/3/3 275/3/3
f 277/3/3 270/3/3 269/3/3
f 278/3/3 270/3/3 277/3/3
f 279/2/3 273/2/3 272/2/3
f 280/1/3 274/1/3 273/1/3
f 280/2/3 273/2/3 279/2/3
f 281/2/3 275/2/3 265/2/3
f 281/1/3 274/1/3 280/1/3
f 281/1/3 265/1/3 274/1/3
f 281/2/3 276/2/3 275/2/3
f 282/2/3 234/2/3 276/2/3
f 282/2/3 276/2/3 281/2/3
f 286/2/3 284/2/3 283/2/3
f 287/1/3 285/1/3 284/1/3
f 287/2/3 284/2/3 286/2/3
f 288/1/3 285/1/3 287/1/3
f 294/2/3 286/2/3 283/2/3
f 295/2/3 286/2/3 294/2/3
f 296/3/3 288/3/3 287/3/3
f 297/1/3 289/1/3 288/1/3
f 297/3/3 288/3/3 296/3/3
f 298/1/3 289/1/3 297/1/3
f 300/1/3 291/1/3 290/1/3
f 301/3/3 292/3/3 291/3/3
f 301/1/3 291/1/3 300/1/3
f 302/3/3 292/3/3 301/3/3
f 303/3/3 292/3/3 302/3/3
f 304/1/3 295/1/3 294/1/3
f 304/1/3 296/1/3 295/1/3
f 304/1/3 294/1/3 293/1/3
f 305/1/3 296/1/3 304/1/3
f 306/1/3 296/1/3 305/1/3
f 307/3/3 298/3/3 297/3/3
f 308/1/3 299/1/3 298/1/3
f 308/3/3 298/3/3 307/3/3
f 309/1/3 299/1/3 308/1/3
f 314/1/3 306/1/3 305/1/3
f 315/1/3 306/1/3 314/1/3
f 316/1/3 308/1/3 307/1/3
f 318/1/3 313/1/3 312/1/3
f 319/1/3 313/1/3 318/1/3
f 322/1/3 317/1/3 316/1/3
f 322/1/3 316/1/3 307/1/3
f 323/1/3 317/1/3 322/1/3
f 325/1/3 321/1/3 320/1/3
f 326/1/3 321/1/3 325/1/3
f 327/1/3 322/1/3 307/1/3
f 328/1/3 322/1/3 327/1/3
f 330/2/3 311/2/3 310/2/3
f 331/2/3 311/2/3 330/2/3
f 332/1/3 326/1/3 325/1/3
f 332/1/3 325/1/3 324/1/3
f 333/1/3 326/1/3 332/1/3
f 334/1/3 326/1/3 333/1/3
f 335/1/3 326/1/3 334/1/3
f 336/3/3 328/3/3 327/3/3
f 337/1/3 329/1/3 328/1/3
f 337/3/3 328/3/3 336/3/3
f 338/1/3 329/1/3 337/1/3
f 343/3/3 336/3/3 335/3/3
f 343/3/3 335/3/3 334/3/3
f 343/2/3 334/2/3 333/2/3
f 344/3/3 336/3/3 343/3/3
f 345/1/3 337/1/3 336/1/3
f 345/3/3 336/3/3 344/3/3
f 346/1/3 337/1/3 345/1/3
f 347/1/3 340/1/3 339/1/3
f 348/3/3 342/3/3 341/3/3
f 348/1/3 340/1/3 347/1/3
f 348/3/3 341/3/3 340/3/3
f 349/3/3 342/3/3 348/3/3
f 350/2/3 344/2/3 343/2/3
f 350/2/3 343/2/3 333/2/3
f 351/1/3 345/1/3 344/1/3
f 351/2/3 344/2/3 350/2/3
f 352/1/3 345/1/3 351/1/3
f 357/3/3 354/3/3 353/3/3
f 358/3/3 354/3/3 357/3/3
f 359/3/3 356/3/3 355/3/3
f 360/3/3 356/3/3 359/3/3
f 363/3/3 362/3/3 361/3/3
f 364/3/3 362/3/3 363/3/3
f 369/3/3 366/3/3 365/3/3
f 370/3/3 366/3/3 369/3/3
f 371/3/3 368/3/3 367/3/3
f 372/3/3 368/3/3 371/3/3
f 373/3/4 374/3/4 377/3/4
f 377/3/4 374/3/4 378/3/4
f 375/3/4 376/3/4 379/3/4
f 379/3/4 376/3/4 380/3/4
f 381/3/4 382/3/4 383/3/4
f 383/3/4 382/3/4 384/3/4
f 385/3/4 386/3/4 389/3/4
f 389/3/4 386/3/4 390/3/4
f 387/3/4 388/3/4 391/3/4
f 391/3/4 388/3/4 392/3/4
f 393/2/4 394/2/4 396/2/4
f 394/1/4 395/1/4 397/1/4
f 396/2/4 394/2/4 397/2/4
f 397/1/4 395/1/4 398/1/4
f 393/2/4 396/2/4 404/2/4
f 404/2/4 396/2/4 405/2/4
f 397/3/4 398/3/4 406/3/4
f 398/1/4 399/1/4 407/1/4
f 406/3/4 398/3/4 407/3/4
f 407/1/4 399/1/4 408/1/4
f 400/1/4 401/1/4 410/1/4
f 401/3/4 402/3/4 411/3/4
f 410/1/4 401/1/4 411/1/4
f 411/3/4 402/3/4 412/3/4
f 412/3/4 402/3/4 413/3/4
f 404/1/4 405/1/4 414/1/4
f 405/1/4 406/1/4 414/1/4
f 403/1/4 404/1/4 414/1/4
f 414/1/4 406/1/4 415/1/4
f 415/1/4 406/1/4 416/1/4
f 407/3/4 408/3/4 417/3/4
f 408/1/4 409/1/4 418/1/4
f 417/3/4 408/3/4 418/3/4
f 418/1/4 409/1/4 419/1/4
f 415/1/4 416/1/4 424/1/4
f 424/1/4 416/1/4 425/1/4
f 417/1/4 418/1/4 426/1/4
f 422/1/4 423/1/4 428/1/4
f 428/1/4 423/1/4 429/1/4
f 426/1/4 427/1/4 432/1/4
f 417/1/4 426/1/4 432/1/4
f 432/1/4 427/1/4 433/1/4
f 430/1/4 431/1/4 435/1/4
f 435/1/4 431/1/4 436/1/4
f 417/1/4 432/1/4 437/1/4
f 437/1/4 432/1/4 438/1/4
f 420/2/4 421/2/4 440/2/4
f 440/2/4 421/2/4 441/2/4
f 435/1/4 436/1/4 442/1/4
f 434/1/4 435/1/4 442/1/4
f 442/1/4 436/1/4 443/1/4
f 443/1/4 436/1/4 444/1/4
f 444/1/4 436/1/4 445/1/4
f 437/3/4 438/3/4 446/3/4
f 438/1/4 439/1/4 447/1/4
f 446/3/4 438/3/4 447/3/4
f 447/1/4 439/1/4 448/1/4
f 445/3/4 446/3/4 453/3/4
f 444/3/4 445/3/4 453/3/4
f 443/2/4 444/2/4 453/2/4
f 453/3/4 446/3/4 454/3/4
f 446/1/4 447/1/4 455/1/4
f 454/3/4 446/3/4 455/3/4
f 455/1/4 447/1/4 456/1/4
f 449/1/4 450/1/4 457/1/4
f 451/3/4 452/3/4 458/3/4
f 457/1/4 450/1/4 458/1/4
f 450/3/4 451/3/4 458/3/4
f 458/3/4 452/3/4 459/3/4
f 453/2/4 454/2/4 460/2/4
f 443/2/4 453/2/4 460/2/4
f 454/1/4 455/1/4 461/1/4
f 460/2/4 454/2/4 461/2/4
f 461/1/4 455/1/4 462/1/4
f 463/3/4 464/3/4 470/3/4
f 470/3/4 464/3/4 471/3/4
f 465/3/4 466/3/4 473/3/4
f 473/3/4 466/3/4 474/3/4
f 466/2/4 467/2/4 475/2/4
f 474/3/4 466/3/4 475/3/4
f 468/3/4 469/3/4 476/3/4
f 476/3/4 469/3/4 477/3/4
f 477/3/4 469/3/4 478/3/4
f 470/2/4 471/2/4 479/2/4
f 473/3/4 474/3/4 480/3/4
f 472/3/4 473/3/4 480/3/4
f 480/3/4 474/3/4 481/3/4
f 481/3/4 474/3/4 482/3/4
f 477/2/4 478/2/4 484/2/4
f 478/3/4 479/3/4 485/3/4
f 484/2/4 478/2/4 485/2/4
f 479/2/4 471/2/4 486/2/4
f 485/3/4 479/3/4 486/3/4
f 481/1/4 482/1/4 488/1/4
f 482/3/4 474/3/4 489/3/4
f 488/1/4 482/1/4 489/1/4
f 483/3/4 484/3/4 490/3/4
f 484/3/4 485/3/4 490/3/4
f 490/3/4 485/3/4 491/3/4
f 486/2/4 471/2/4 492/2/4
f 492/2/4 471/2/4 493/2/4
f 488/3/4 489/3/4 494/3/4
f 487/3/4 488/3/4 494/3/4
f 494/3/4 489/3/4 495/3/4
f 489/3/4 474/3/4 496/3/4
f 495/3/4 489/3/4 496/3/4
f 474/2/4 475/2/4 496/2/4
f 475/2/4 467/2/4 497/2/4
f 496/2/4 475/2/4 497/2/4
f 492/3/4 493/3/4 498/3/4
f 498/3/4 493/3/4 499/3/4
f 495/3/4 496/3/4 500/3/4
f 496/3/4 497/3/4 500/3/4
f 497/2/4 467/2/4 501/2/4
f 500/3/4 497/3/4 501/3/4
f 501/2/4 467/2/4 502/2/4
f 508/3/5 504/3/5 503/3/5
f 509/3/5 504/3/5 508/3/5
f 510/3/5 506/3/5 505/3/5
f 511/3/5 506/3/5 510/3/5
f 513/1/5 508/1/5 507/1/5
f 514/3/5 509/3/5 508/3/5
f 514/1/5 508/1/5 513/1/5
f 515/1/5 510/1/5 509/1/5
f 515/3/5 509/3/5 514/3/5
f 516/3/5 511/3/5 510/3/5
f 516/1/5 510/1/5 515/1/5
f 517/1/5 512/1/5 511/1/5
f 517/3/5 511/3/5 516/3/5
f 518/1/5 512/1/5 517/1/5
f 519/3/5 515/3/5 514/3/5
f 520/3/5 515/3/5 519/3/5
f 521/3/5 517/3/5 516/3/5
f 522/3/5 517/3/5 521/3/5
f 527/2/5 524/2/5 523/2/5
f 528/2/5 524/2/5 527/2/5
f 531/2/5 526/2/5 525/2/5
f 532/2/5 526/2/5 531/2/5
f 535/2/5 530/2/5 529/2/5
f 536/2/5 530/2/5 535/2/5
f 537/2/5 534/2/5 533/2/5
f 538/2/5 534/2/5 537/2/5
f 546/3/5 540/3/5 539/3/5
f 547/2/5 541/2/5 540/2/5
f 547/3/5 540/3/5 546/3/5
f 548/2/5 541/2/5 547/2/5
f 549/2/5 543/2/5 542/2/5
f 550/3/5 544/3/5 543/3/5
f 550/2/5 543/2/5 549/2/5
f 551/3/5 544/3/5 550/3/5
f 552/3/5 546/3/5 545/3/5
f 553/3/5 546/3/5 552/3/5
f 556/3/5 555/3/5 554/3/5
f 557/3/5 555/3/5 556/3/5
f 563/3/5 558/3/5 557/3/5
f 564/2/5 559/2/5 558/2/5
f 564/3/5 558/3/5 563/3/5
f 565/2/5 559/2/5 564/2/5
f 566/2/5 561/2/5 560/2/5
f 567/3/5 562/3/5 561/3/5
f 567/2/5 561/2/5 566/2/5
f 568/3/5 562/3/5 567/3/5
f 573/2/5 570/2/5 569/2/5
f 574/2/5 570/2/5 573/2/5
f 575/2/5 572/2/5 571/2/5
f 576/2/5 572/2/5 575/2/5
f 581/3/5 578/3/5 577/3/5
f 582/3/5 578/3/5 581/3/5
f 583/3/5 580/3/5 579/3/5
f 584/3/5 580/3/5 583/3/5
f 591/2/5 586/2/5 585/2/5
f 592/2/5 586/2/5 591/2/5
f 593/2/5 588/2/5 587/2/5
f 594/2/5 588/2/5 593/2/5
f 595/2/5 590/2/5 589/2/5
f 596/2/5 590/2/5 595/2/5
f 601/3/5 598/3/5 597/3/5
f 602/3/5 598/3/5 601/3/5
f 603/3/5 600/3/5 599/3/5
f 604/3/5 600/3/5 603/3/5
f 611/3/5 606/3/5 605/3/5
f 612/3/5 606/3/5 611/3/5
f 613/1/5 608/1/5 607/1/5
f 614/1/5 608/1/5 613/1/5
f 615/3/5 610/3/5 609/3/5
f 616/3/5 610/3/5 615/3/5
f 621/1/5 618/1/5 617/1/5
f 622/1/5 618/1/5 621/1/5
f 623/1/5 620/1/5 619/1/5
f 624/1/5 620/1/5 623/1/5
f 629/1/5 626/1/5 625/1/5
f 630/1/5 626/1/5 629/1/5
f 631/1/5 628/1/5 627/1/5
f 632/1/5 628/1/5 631/1/5
f 633/3/6 634/3/6 639/3/6
f 639/3/6 634/3/6 640/3/6
f 635/3/6 636/3/6 641/3/6
f 641/3/6 636/3/6 642/3/6
f 637/2/6 638/2/6 643/2/6
f 643/2/6 638/2/6 644/2/6
f 645/2/6 646/2/6 647/2/6
f 647/2/6 646/2/6 648/2/6
f 649/3/6 650/3/6 653/3/6
f 653/3/6 650/3/6 654/3/6
f 651/3/6 652/3/6 655/3/6
f 655/3/6 652/3/6 656/3/6
f 657/3/6 658/3/6 663/3/6
f 658/2/6 659/2/6 664/2/6
f 663/3/6 658/3/6 664/3/6
f 659/3/6 660/3/6 665/3/6
f 664/2/6 659/2/6 665/2/6
f 665/3/6 660/3/6 666/3/6
f 661/1/6 662/1/6 669/1/6
f 669/1/6 662/1/6 670/1/6
f 667/1/6 668/1/6 675/1/6
f 675/1/6 668/1/6 676/1/6
f 671/3/6 672/3/6 677/3/6
f 672/2/6 673/2/6 678/2/6
f 677/3/6 672/3/6 678/3/6
f 673/3/6 674/3/6 679/3/6
f 678/2/6 673/2/6 679/2/6
f 679/3/6 674/3/6 680/3/6
f 681/1/6 682/1/6 685/1/6
f 685/1/6 682/1/6 686/1/6
f 683/1/6 684/1/6 687/1/6
f 687/1/6 684/1/6 688/1/6
f 689/2/6 690/2/6 692/2/6
f 692/2/6 690/2/6 693/2/6
f 693/2/6 690/2/6 694/2/6
f 694/2/6 690/2/6 695/2/6
f 691/3/6 692/3/6 697/3/6
f 692/2/6 693/2/6 697/2/6
f 697/2/6 693/2/6 698/2/6
f 694/2/6 695/2/6 699/2/6
f 695/3/6 696/3/6 700/3/6
f 699/2/6 695/2/6 700/2/6
f 691/3/6 697/3/6 701/3/6
f 700/3/6 696/3/6 704/3/6
f 691/3/6 701/3/6 705/3/6
f 701/2/6 702/2/6 706/2/6
f 705/3/6 701/3/6 706/3/6
f 706/2/6 702/2/6 707/2/6
f 703/2/6 704/2/6 708/2/6
f 704/3/6 696/3/6 709/3/6
f 708/2/6 704/2/6 709/2/6
f 709/3/6 696/3/6 710/3/6
f 706/2/6 707/2/6 711/2/6
f 707/2/6 708/2/6 711/2/6
f 708/2/6 709/2/6 711/2/6
f 711/2/6 709/2/6 712/2/6
f 713/2/6 714/2/6 716/2/6
f 716/2/6 714/2/6 717/2/6
f 715/3/6 716/3/6 719/3/6
f 716/2/6 717/2/6 720/2/6
f 719/3/6 716/3/6 720/3/6
f 717/3/6 718/3/6 721/3/6
f 720/2/6 717/2/6 721/2/6
f 721/3/6 718/3/6 722/3/6
f 720/2/6 721/2/6 723/2/6
f 723/2/6 721/2/6 724/2/6
