# MagicaVoxel @ Ephtracy

# group
g skele_mage

# material
mtllib skele_mage.mtl
usemtl palette

# normals
vn -1 0 0
vn 1 0 0
vn 0 0 1
vn 0 0 -1
vn 0 -1 0
vn 0 1 0

# texcoords
vt 0.00195313 0.5
vt 0.0253906 0.5
vt 0.0410156 0.5
vt 0.0488281 0.5
vt 0.0800781 0.5
vt 0.0878906 0.5
vt 0.0996094 0.5

# verts
v -5 1 1.5
v -5 1 -1.5
v -5 3 1.5
v -5 3 -1.5
v -5 4 1.5
v -5 4 -1.5
v -5 5 1.5
v -5 5 0.5
v -5 5 -0.5
v -5 5 -1.5
v -5 6 0.5
v -5 6 -0.5
v -4 0 1.5
v -4 0 -1.5
v -4 1 1.5
v -4 1 -1.5
v -4 3 2.5
v -4 3 1.5
v -4 3 -1.5
v -4 3 -2.5
v -4 4 1.5
v -4 4 -1.5
v -4 5 2.5
v -4 5 1.5
v -4 5 0.5
v -4 5 -0.5
v -4 5 -1.5
v -4 5 -2.5
v -4 6 2.5
v -4 6 1.5
v -4 6 0.5
v -4 6 -0.5
v -4 6 -1.5
v -4 6 -2.5
v -4 7 2.5
v -4 7 -2.5
v -4 8 2.5
v -4 8 1.5
v -4 8 -1.5
v -4 8 -2.5
v -4 11 1.5
v -4 11 0.5
v -4 11 -0.5
v -4 11 -1.5
v -4 12 0.5
v -4 12 -0.5
v -3 0 2.5
v -3 0 1.5
v -3 0 -1.5
v -3 0 -2.5
v -3 1 2.5
v -3 1 1.5
v -3 1 -1.5
v -3 1 -2.5
v -3 8 2.5
v -3 8 1.5
v -3 8 -1.5
v -3 8 -2.5
v -3 9 2.5
v -3 9 1.5
v -3 10 -1.5
v -3 10 -2.5
v -3 11 1.5
v -3 11 0.5
v -3 11 -0.5
v -3 11 -1.5
v -3 12 2.5
v -3 12 1.5
v -3 12 0.5
v -3 12 -0.5
v -3 12 -1.5
v -3 12 -2.5
v -3 13 1.5
v -3 13 -1.5
v -2 1 2.5
v -2 1 1.5
v -2 1 -1.5
v -2 1 -2.5
v -2 4 2.5
v -2 4 1.5
v -2 4 -1.5
v -2 4 -2.5
v -2 5 2.5
v -2 5 1.5
v -2 5 -1.5
v -2 5 -2.5
v -2 6 2.5
v -2 6 1.5
v -2 6 -1.5
v -2 6 -2.5
v 1 5 2.5
v 1 5 1.5
v 1 5 -1.5
v 1 5 -2.5
v 1 6 2.5
v 1 6 1.5
v 1 6 -1.5
v 1 6 -2.5
v 3 3 2.5
v 3 3 1.5
v 3 3 -1.5
v 3 3 -2.5
v 3 5 2.5
v 3 5 1.5
v 3 5 -1.5
v 3 5 -2.5
v -3 3 2.5
v -3 3 1.5
v -3 3 -1.5
v -3 3 -2.5
v -3 5 2.5
v -3 5 1.5
v -3 5 -1.5
v -3 5 -2.5
v -1 5 2.5
v -1 5 1.5
v -1 5 -1.5
v -1 5 -2.5
v -1 6 2.5
v -1 6 1.5
v -1 6 -1.5
v -1 6 -2.5
v 2 1 2.5
v 2 1 1.5
v 2 1 -1.5
v 2 1 -2.5
v 2 4 2.5
v 2 4 1.5
v 2 4 -1.5
v 2 4 -2.5
v 2 5 2.5
v 2 5 1.5
v 2 5 -1.5
v 2 5 -2.5
v 2 6 2.5
v 2 6 1.5
v 2 6 -1.5
v 2 6 -2.5
v 3 0 2.5
v 3 0 1.5
v 3 0 -1.5
v 3 0 -2.5
v 3 1 2.5
v 3 1 1.5
v 3 1 -1.5
v 3 1 -2.5
v 3 8 2.5
v 3 8 1.5
v 3 8 -1.5
v 3 8 -2.5
v 3 9 2.5
v 3 9 1.5
v 3 10 -1.5
v 3 10 -2.5
v 3 12 2.5
v 3 12 1.5
v 3 12 -1.5
v 3 12 -2.5
v 3 13 1.5
v 3 13 -1.5
v 4 0 1.5
v 4 0 -1.5
v 4 1 1.5
v 4 1 -1.5
v 4 3 2.5
v 4 3 1.5
v 4 3 -1.5
v 4 3 -2.5
v 4 4 1.5
v 4 4 -1.5
v 4 5 2.5
v 4 5 1.5
v 4 5 0.5
v 4 5 -0.5
v 4 5 -1.5
v 4 5 -2.5
v 4 6 2.5
v 4 6 1.5
v 4 6 0.5
v 4 6 -0.5
v 4 6 -1.5
v 4 6 -2.5
v 4 7 2.5
v 4 7 -2.5
v 4 8 2.5
v 4 8 1.5
v 4 8 -1.5
v 4 8 -2.5
v 4 12 1.5
v 4 12 -1.5
v 5 1 1.5
v 5 1 -1.5
v 5 3 1.5
v 5 3 -1.5
v 5 4 1.5
v 5 4 -1.5
v 5 5 1.5
v 5 5 0.5
v 5 5 -0.5
v 5 5 -1.5
v 5 6 0.5
v 5 6 -0.5
v -4 3 2.5
v -4 5 2.5
v -4 6 2.5
v -4 7 2.5
v -4 8 2.5
v -3 0 2.5
v -3 1 2.5
v -3 3 2.5
v -3 5 2.5
v -3 6 2.5
v -3 7 2.5
v -3 8 2.5
v -3 9 2.5
v -3 12 2.5
v -2 0 2.5
v -2 1 2.5
v -2 4 2.5
v -2 5 2.5
v -2 6 2.5
v -2 7 2.5
v -2 8 2.5
v -2 10 2.5
v -2 11 2.5
v -1 0 2.5
v -1 2 2.5
v -1 3 2.5
v -1 4 2.5
v -1 5 2.5
v -1 6 2.5
v -1 7 2.5
v -1 8 2.5
v -1 9 2.5
v -1 10 2.5
v 0 7 2.5
v 0 8 2.5
v 1 0 2.5
v 1 2 2.5
v 1 3 2.5
v 1 4 2.5
v 1 5 2.5
v 1 6 2.5
v 1 7 2.5
v 1 8 2.5
v 1 9 2.5
v 1 10 2.5
v 2 0 2.5
v 2 1 2.5
v 2 4 2.5
v 2 5 2.5
v 2 6 2.5
v 2 7 2.5
v 2 8 2.5
v 2 10 2.5
v 2 11 2.5
v 3 0 2.5
v 3 1 2.5
v 3 3 2.5
v 3 5 2.5
v 3 6 2.5
v 3 7 2.5
v 3 8 2.5
v 3 9 2.5
v 3 12 2.5
v 4 3 2.5
v 4 5 2.5
v 4 6 2.5
v 4 7 2.5
v 4 8 2.5
v -5 1 1.5
v -5 3 1.5
v -5 4 1.5
v -5 5 1.5
v -4 0 1.5
v -4 1 1.5
v -4 2 1.5
v -4 3 1.5
v -4 4 1.5
v -4 5 1.5
v -4 6 1.5
v -4 8 1.5
v -4 11 1.5
v -3 0 1.5
v -3 1 1.5
v -3 2 1.5
v -3 3 1.5
v -3 5 1.5
v -3 6 1.5
v -3 8 1.5
v -3 9 1.5
v -3 11 1.5
v -3 12 1.5
v -3 13 1.5
v -2 1 1.5
v -2 4 1.5
v -2 5 1.5
v -2 6 1.5
v -2 12 1.5
v -2 13 1.5
v -1 4 1.5
v -1 5 1.5
v -1 6 1.5
v 1 4 1.5
v 1 5 1.5
v 1 6 1.5
v 2 1 1.5
v 2 4 1.5
v 2 5 1.5
v 2 6 1.5
v 2 12 1.5
v 2 13 1.5
v 3 0 1.5
v 3 1 1.5
v 3 2 1.5
v 3 3 1.5
v 3 5 1.5
v 3 6 1.5
v 3 8 1.5
v 3 9 1.5
v 3 12 1.5
v 3 13 1.5
v 4 0 1.5
v 4 1 1.5
v 4 2 1.5
v 4 3 1.5
v 4 4 1.5
v 4 5 1.5
v 4 6 1.5
v 4 8 1.5
v 4 12 1.5
v 5 1 1.5
v 5 3 1.5
v 5 4 1.5
v 5 5 1.5
v -5 5 0.5
v -5 6 0.5
v -4 5 0.5
v -4 6 0.5
v -4 11 0.5
v -4 12 0.5
v -3 11 0.5
v -3 12 0.5
v 4 5 0.5
v 4 6 0.5
v 5 5 0.5
v 5 6 0.5
v -5 5 -0.5
v -5 6 -0.5
v -4 5 -0.5
v -4 6 -0.5
v -4 11 -0.5
v -4 12 -0.5
v -3 11 -0.5
v -3 12 -0.5
v 4 5 -0.5
v 4 6 -0.5
v 5 5 -0.5
v 5 6 -0.5
v -5 1 -1.5
v -5 3 -1.5
v -5 4 -1.5
v -5 5 -1.5
v -4 0 -1.5
v -4 1 -1.5
v -4 2 -1.5
v -4 3 -1.5
v -4 4 -1.5
v -4 5 -1.5
v -4 6 -1.5
v -4 8 -1.5
v -4 11 -1.5
v -3 0 -1.5
v -3 1 -1.5
v -3 2 -1.5
v -3 3 -1.5
v -3 5 -1.5
v -3 8 -1.5
v -3 10 -1.5
v -3 11 -1.5
v -3 12 -1.5
v -3 13 -1.5
v -2 1 -1.5
v -2 4 -1.5
v -2 5 -1.5
v -2 6 -1.5
v -2 12 -1.5
v -2 13 -1.5
v -1 4 -1.5
v -1 5 -1.5
v -1 6 -1.5
v 1 4 -1.5
v 1 5 -1.5
v 1 6 -1.5
v 2 1 -1.5
v 2 4 -1.5
v 2 5 -1.5
v 2 6 -1.5
v 2 12 -1.5
v 2 13 -1.5
v 3 0 -1.5
v 3 1 -1.5
v 3 2 -1.5
v 3 3 -1.5
v 3 5 -1.5
v 3 8 -1.5
v 3 10 -1.5
v 3 12 -1.5
v 3 13 -1.5
v 4 0 -1.5
v 4 1 -1.5
v 4 2 -1.5
v 4 3 -1.5
v 4 4 -1.5
v 4 5 -1.5
v 4 6 -1.5
v 4 8 -1.5
v 4 12 -1.5
v 5 1 -1.5
v 5 3 -1.5
v 5 4 -1.5
v 5 5 -1.5
v -4 3 -2.5
v -4 5 -2.5
v -4 6 -2.5
v -4 7 -2.5
v -4 8 -2.5
v -3 0 -2.5
v -3 1 -2.5
v -3 3 -2.5
v -3 5 -2.5
v -3 7 -2.5
v -3 8 -2.5
v -3 10 -2.5
v -3 12 -2.5
v -2 0 -2.5
v -2 1 -2.5
v -2 4 -2.5
v -2 5 -2.5
v -2 6 -2.5
v -2 9 -2.5
v -2 10 -2.5
v -1 0 -2.5
v -1 2 -2.5
v -1 3 -2.5
v -1 4 -2.5
v -1 5 -2.5
v -1 6 -2.5
v -1 7 -2.5
v 1 0 -2.5
v 1 2 -2.5
v 1 3 -2.5
v 1 4 -2.5
v 1 5 -2.5
v 1 6 -2.5
v 1 7 -2.5
v 2 0 -2.5
v 2 1 -2.5
v 2 4 -2.5
v 2 5 -2.5
v 2 6 -2.5
v 2 9 -2.5
v 2 10 -2.5
v 3 0 -2.5
v 3 1 -2.5
v 3 3 -2.5
v 3 5 -2.5
v 3 7 -2.5
v 3 8 -2.5
v 3 10 -2.5
v 3 12 -2.5
v 4 3 -2.5
v 4 5 -2.5
v 4 6 -2.5
v 4 7 -2.5
v 4 8 -2.5
v -3 0 2.5
v -2 0 2.5
v -1 0 2.5
v 1 0 2.5
v 2 0 2.5
v 3 0 2.5
v -4 0 1.5
v -3 0 1.5
v 3 0 1.5
v 4 0 1.5
v -4 0 -1.5
v -3 0 -1.5
v 3 0 -1.5
v 4 0 -1.5
v -3 0 -2.5
v -2 0 -2.5
v -1 0 -2.5
v 1 0 -2.5
v 2 0 -2.5
v 3 0 -2.5
v -5 1 1.5
v -4 1 1.5
v 4 1 1.5
v 5 1 1.5
v -5 1 -1.5
v -4 1 -1.5
v 4 1 -1.5
v 5 1 -1.5
v -4 3 2.5
v -3 3 2.5
v 3 3 2.5
v 4 3 2.5
v -4 3 1.5
v -3 3 1.5
v 3 3 1.5
v 4 3 1.5
v -4 3 -1.5
v -3 3 -1.5
v 3 3 -1.5
v 4 3 -1.5
v -4 3 -2.5
v -3 3 -2.5
v 3 3 -2.5
v 4 3 -2.5
v -2 5 2.5
v -1 5 2.5
v 1 5 2.5
v 2 5 2.5
v -2 5 1.5
v -1 5 1.5
v 1 5 1.5
v 2 5 1.5
v -2 5 -1.5
v -1 5 -1.5
v 1 5 -1.5
v 2 5 -1.5
v -2 5 -2.5
v -1 5 -2.5
v 1 5 -2.5
v 2 5 -2.5
v -4 6 2.5
v -3 6 2.5
v -2 6 2.5
v -1 6 2.5
v 1 6 2.5
v 2 6 2.5
v 3 6 2.5
v 4 6 2.5
v -4 6 1.5
v -3 6 1.5
v -2 6 1.5
v -1 6 1.5
v 1 6 1.5
v 2 6 1.5
v 3 6 1.5
v 4 6 1.5
v -4 6 -1.5
v -2 6 -1.5
v -1 6 -1.5
v 1 6 -1.5
v 2 6 -1.5
v 4 6 -1.5
v -4 6 -2.5
v -2 6 -2.5
v -1 6 -2.5
v 1 6 -2.5
v 2 6 -2.5
v 4 6 -2.5
v -3 1 2.5
v -2 1 2.5
v 2 1 2.5
v 3 1 2.5
v -3 1 1.5
v -2 1 1.5
v 2 1 1.5
v 3 1 1.5
v -3 1 -1.5
v -2 1 -1.5
v 2 1 -1.5
v 3 1 -1.5
v -3 1 -2.5
v -2 1 -2.5
v 2 1 -2.5
v 3 1 -2.5
v -2 4 2.5
v -1 4 2.5
v 1 4 2.5
v 2 4 2.5
v -2 4 1.5
v -1 4 1.5
v 1 4 1.5
v 2 4 1.5
v -2 4 -1.5
v -1 4 -1.5
v 1 4 -1.5
v 2 4 -1.5
v -2 4 -2.5
v -1 4 -2.5
v 1 4 -2.5
v 2 4 -2.5
v -4 5 2.5
v -3 5 2.5
v 3 5 2.5
v 4 5 2.5
v -5 5 1.5
v -4 5 1.5
v -3 5 1.5
v 3 5 1.5
v 4 5 1.5
v 5 5 1.5
v -5 5 0.5
v -4 5 0.5
v 4 5 0.5
v 5 5 0.5
v -5 5 -0.5
v -4 5 -0.5
v 4 5 -0.5
v 5 5 -0.5
v -5 5 -1.5
v -4 5 -1.5
v -3 5 -1.5
v 3 5 -1.5
v 4 5 -1.5
v 5 5 -1.5
v -4 5 -2.5
v -3 5 -2.5
v 3 5 -2.5
v 4 5 -2.5
v -5 6 0.5
v -4 6 0.5
v 4 6 0.5
v 5 6 0.5
v -5 6 -0.5
v -4 6 -0.5
v 4 6 -0.5
v 5 6 -0.5
v -4 8 2.5
v -3 8 2.5
v 3 8 2.5
v 4 8 2.5
v -4 8 1.5
v -3 8 1.5
v 3 8 1.5
v 4 8 1.5
v -4 8 -1.5
v -3 8 -1.5
v 3 8 -1.5
v 4 8 -1.5
v -4 8 -2.5
v -3 8 -2.5
v 3 8 -2.5
v 4 8 -2.5
v -4 11 1.5
v -3 11 1.5
v -4 11 0.5
v -3 11 0.5
v -4 11 -0.5
v -3 11 -0.5
v -4 11 -1.5
v -3 11 -1.5
v -3 12 2.5
v 3 12 2.5
v -3 12 1.5
v -2 12 1.5
v 2 12 1.5
v 3 12 1.5
v 4 12 1.5
v -4 12 0.5
v -3 12 0.5
v -4 12 -0.5
v -3 12 -0.5
v -3 12 -1.5
v -2 12 -1.5
v 2 12 -1.5
v 3 12 -1.5
v 4 12 -1.5
v -3 12 -2.5
v 3 12 -2.5
v -3 13 1.5
v -2 13 1.5
v 2 13 1.5
v 3 13 1.5
v -3 13 -1.5
v -2 13 -1.5
v 2 13 -1.5
v 3 13 -1.5

# faces
f 3/5/1 2/5/1 1/5/1
f 4/5/1 2/5/1 3/5/1
f 5/1/1 4/1/1 3/1/1
f 6/1/1 4/1/1 5/1/1
f 7/4/1 6/4/1 5/4/1
f 8/4/1 6/4/1 7/4/1
f 9/4/1 6/4/1 8/4/1
f 10/4/1 6/4/1 9/4/1
f 11/1/1 9/1/1 8/1/1
f 12/1/1 9/1/1 11/1/1
f 15/1/1 14/1/1 13/1/1
f 16/1/1 14/1/1 15/1/1
f 21/3/1 18/3/1 17/3/1
f 22/3/1 20/3/1 19/3/1
f 23/3/1 21/3/1 17/3/1
f 24/3/1 21/3/1 23/3/1
f 27/3/1 20/3/1 22/3/1
f 28/3/1 20/3/1 27/3/1
f 30/1/1 25/1/1 24/1/1
f 31/1/1 25/1/1 30/1/1
f 32/1/1 27/1/1 26/1/1
f 33/1/1 27/1/1 32/1/1
f 35/6/1 31/6/1 30/6/1
f 35/6/1 34/6/1 33/6/1
f 35/6/1 33/6/1 32/6/1
f 35/6/1 32/6/1 31/6/1
f 35/6/1 30/6/1 29/6/1
f 36/6/1 34/6/1 35/6/1
f 37/1/1 36/1/1 35/1/1
f 38/1/1 36/1/1 37/1/1
f 39/1/1 36/1/1 38/1/1
f 40/1/1 36/1/1 39/1/1
f 41/6/1 39/6/1 38/6/1
f 42/6/1 39/6/1 41/6/1
f 43/6/1 39/6/1 42/6/1
f 44/6/1 39/6/1 43/6/1
f 45/6/1 43/6/1 42/6/1
f 46/6/1 43/6/1 45/6/1
f 51/2/1 48/2/1 47/2/1
f 52/2/1 48/2/1 51/2/1
f 53/2/1 50/2/1 49/2/1
f 54/2/1 50/2/1 53/2/1
f 59/1/1 56/1/1 55/1/1
f 60/1/1 56/1/1 59/1/1
f 61/6/1 58/6/1 57/6/1
f 62/6/1 58/6/1 61/6/1
f 63/5/1 60/5/1 59/5/1
f 66/5/1 62/5/1 61/5/1
f 67/5/1 64/5/1 63/5/1
f 67/5/1 63/5/1 59/5/1
f 68/5/1 64/5/1 67/5/1
f 69/5/1 64/5/1 68/5/1
f 70/5/1 66/5/1 65/5/1
f 71/5/1 62/5/1 66/5/1
f 71/5/1 66/5/1 70/5/1
f 72/5/1 62/5/1 71/5/1
f 73/6/1 69/6/1 68/6/1
f 73/6/1 70/6/1 69/6/1
f 73/6/1 71/6/1 70/6/1
f 74/6/1 71/6/1 73/6/1
f 79/7/1 76/7/1 75/7/1
f 80/7/1 76/7/1 79/7/1
f 81/7/1 78/7/1 77/7/1
f 82/7/1 78/7/1 81/7/1
f 87/5/1 84/5/1 83/5/1
f 88/5/1 84/5/1 87/5/1
f 89/6/1 86/6/1 85/6/1
f 90/6/1 86/6/1 89/6/1
f 95/5/1 92/5/1 91/5/1
f 96/5/1 92/5/1 95/5/1
f 97/6/1 94/6/1 93/6/1
f 98/6/1 94/6/1 97/6/1
f 103/3/1 100/3/1 99/3/1
f 104/3/1 100/3/1 103/3/1
f 105/3/1 102/3/1 101/3/1
f 106/3/1 102/3/1 105/3/1
f 107/3/2 108/3/2 111/3/2
f 111/3/2 108/3/2 112/3/2
f 109/3/2 110/3/2 113/3/2
f 113/3/2 110/3/2 114/3/2
f 115/5/2 116/5/2 119/5/2
f 119/5/2 116/5/2 120/5/2
f 117/6/2 118/6/2 121/6/2
f 121/6/2 118/6/2 122/6/2
f 123/7/2 124/7/2 127/7/2
f 127/7/2 124/7/2 128/7/2
f 125/7/2 126/7/2 129/7/2
f 129/7/2 126/7/2 130/7/2
f 131/5/2 132/5/2 135/5/2
f 135/5/2 132/5/2 136/5/2
f 133/6/2 134/6/2 137/6/2
f 137/6/2 134/6/2 138/6/2
f 139/2/2 140/2/2 143/2/2
f 143/2/2 140/2/2 144/2/2
f 141/2/2 142/2/2 145/2/2
f 145/2/2 142/2/2 146/2/2
f 147/1/2 148/1/2 151/1/2
f 151/1/2 148/1/2 152/1/2
f 149/6/2 150/6/2 153/6/2
f 153/6/2 150/6/2 154/6/2
f 151/5/2 152/5/2 155/5/2
f 155/5/2 152/5/2 156/5/2
f 153/5/2 154/5/2 157/5/2
f 157/5/2 154/5/2 158/5/2
f 156/6/2 157/6/2 159/6/2
f 159/6/2 157/6/2 160/6/2
f 161/1/2 162/1/2 163/1/2
f 163/1/2 162/1/2 164/1/2
f 165/3/2 166/3/2 169/3/2
f 167/3/2 168/3/2 170/3/2
f 165/3/2 169/3/2 171/3/2
f 171/3/2 169/3/2 172/3/2
f 170/3/2 168/3/2 175/3/2
f 175/3/2 168/3/2 176/3/2
f 172/1/2 173/1/2 178/1/2
f 178/1/2 173/1/2 179/1/2
f 174/1/2 175/1/2 180/1/2
f 180/1/2 175/1/2 181/1/2
f 178/6/2 179/6/2 183/6/2
f 181/6/2 182/6/2 183/6/2
f 180/6/2 181/6/2 183/6/2
f 179/6/2 180/6/2 183/6/2
f 177/6/2 178/6/2 183/6/2
f 183/6/2 182/6/2 184/6/2
f 183/1/2 184/1/2 185/1/2
f 185/1/2 184/1/2 186/1/2
f 186/1/2 184/1/2 187/1/2
f 187/1/2 184/1/2 188/1/2
f 186/6/2 187/6/2 189/6/2
f 189/6/2 187/6/2 190/6/2
f 191/5/2 192/5/2 193/5/2
f 193/5/2 192/5/2 194/5/2
f 193/1/2 194/1/2 195/1/2
f 195/1/2 194/1/2 196/1/2
f 195/4/2 196/4/2 197/4/2
f 197/4/2 196/4/2 198/4/2
f 198/4/2 196/4/2 199/4/2
f 199/4/2 196/4/2 200/4/2
f 198/1/2 199/1/2 201/1/2
f 201/1/2 199/1/2 202/1/2
f 210/3/3 204/3/3 203/3/3
f 211/3/3 204/3/3 210/3/3
f 212/6/3 206/6/3 205/6/3
f 213/1/3 207/1/3 206/1/3
f 213/6/3 206/6/3 212/6/3
f 214/1/3 207/1/3 213/1/3
f 217/2/3 209/2/3 208/2/3
f 218/2/3 209/2/3 217/2/3
f 221/5/3 213/5/3 212/5/3
f 222/1/3 215/1/3 214/1/3
f 222/1/3 214/1/3 213/1/3
f 222/5/3 213/5/3 221/5/3
f 223/1/3 215/1/3 222/1/3
f 224/5/3 216/5/3 215/5/3
f 225/5/3 216/5/3 224/5/3
f 226/7/3 219/7/3 218/7/3
f 226/7/3 218/7/3 217/7/3
f 227/7/3 219/7/3 226/7/3
f 228/7/3 219/7/3 227/7/3
f 229/7/3 219/7/3 228/7/3
f 230/5/3 221/5/3 220/5/3
f 230/5/3 222/5/3 221/5/3
f 231/5/3 222/5/3 230/5/3
f 232/7/3 223/7/3 222/7/3
f 232/5/3 222/5/3 231/5/3
f 233/1/3 215/1/3 223/1/3
f 233/7/3 223/7/3 232/7/3
f 234/5/3 224/5/3 215/5/3
f 234/1/3 215/1/3 233/1/3
f 235/6/3 225/6/3 224/6/3
f 235/5/3 224/5/3 234/5/3
f 236/5/3 232/5/3 231/5/3
f 236/6/3 234/6/3 233/6/3
f 236/6/3 235/6/3 234/6/3
f 236/6/3 233/6/3 232/6/3
f 237/6/3 235/6/3 236/6/3
f 238/2/3 227/2/3 226/2/3
f 239/7/3 228/7/3 227/7/3
f 239/2/3 227/2/3 238/2/3
f 240/2/3 229/2/3 228/2/3
f 240/7/3 228/7/3 239/7/3
f 241/2/3 229/2/3 240/2/3
f 243/5/3 236/5/3 231/5/3
f 244/1/3 237/1/3 236/1/3
f 244/5/3 236/5/3 243/5/3
f 245/6/3 235/6/3 237/6/3
f 245/1/3 237/1/3 244/1/3
f 246/6/3 235/6/3 245/6/3
f 247/6/3 225/6/3 235/6/3
f 247/6/3 235/6/3 246/6/3
f 248/7/3 239/7/3 238/7/3
f 248/7/3 241/7/3 240/7/3
f 248/7/3 240/7/3 239/7/3
f 249/7/3 241/7/3 248/7/3
f 250/7/3 241/7/3 249/7/3
f 251/5/3 244/5/3 243/5/3
f 251/5/3 243/5/3 242/5/3
f 252/5/3 244/5/3 251/5/3
f 253/7/3 245/7/3 244/7/3
f 253/5/3 244/5/3 252/5/3
f 254/1/3 246/1/3 245/1/3
f 254/7/3 245/7/3 253/7/3
f 255/6/3 225/6/3 247/6/3
f 255/5/3 247/5/3 246/5/3
f 256/5/3 216/5/3 225/5/3
f 256/6/3 225/6/3 255/6/3
f 257/2/3 249/2/3 248/2/3
f 258/2/3 249/2/3 257/2/3
f 261/5/3 253/5/3 252/5/3
f 262/1/3 254/1/3 253/1/3
f 262/5/3 253/5/3 261/5/3
f 263/1/3 246/1/3 254/1/3
f 263/1/3 254/1/3 262/1/3
f 264/5/3 255/5/3 246/5/3
f 264/1/3 246/1/3 263/1/3
f 264/5/3 256/5/3 255/5/3
f 265/5/3 216/5/3 256/5/3
f 265/5/3 256/5/3 264/5/3
f 266/3/3 260/3/3 259/3/3
f 267/3/3 260/3/3 266/3/3
f 268/6/3 262/6/3 261/6/3
f 269/1/3 263/1/3 262/1/3
f 269/6/3 262/6/3 268/6/3
f 270/1/3 263/1/3 269/1/3
f 276/5/3 272/5/3 271/5/3
f 277/5/3 272/5/3 276/5/3
f 278/1/3 273/1/3 272/1/3
f 278/5/3 272/5/3 277/5/3
f 279/4/3 274/4/3 273/4/3
f 279/1/3 273/1/3 278/1/3
f 280/4/3 274/4/3 279/4/3
f 284/1/3 276/1/3 275/1/3
f 285/5/3 277/5/3 276/5/3
f 285/1/3 276/1/3 284/1/3
f 286/6/3 278/6/3 277/6/3
f 286/5/3 277/5/3 285/5/3
f 287/6/3 278/6/3 286/6/3
f 288/1/3 281/1/3 280/1/3
f 289/1/3 281/1/3 288/1/3
f 290/6/3 283/6/3 282/6/3
f 291/6/3 283/6/3 290/6/3
f 292/6/3 283/6/3 291/6/3
f 295/1/3 289/1/3 288/1/3
f 295/1/3 287/1/3 286/1/3
f 295/1/3 288/1/3 287/1/3
f 295/1/3 286/1/3 285/1/3
f 296/1/3 289/1/3 295/1/3
f 297/1/3 289/1/3 296/1/3
f 298/1/3 289/1/3 297/1/3
f 299/6/3 294/6/3 293/6/3
f 300/6/3 294/6/3 299/6/3
f 301/1/3 297/1/3 296/1/3
f 302/1/3 297/1/3 301/1/3
f 304/1/3 302/1/3 301/1/3
f 304/1/3 303/1/3 302/1/3
f 305/1/3 303/1/3 304/1/3
f 306/1/3 303/1/3 305/1/3
f 308/1/3 305/1/3 304/1/3
f 309/1/3 305/1/3 308/1/3
f 311/5/3 300/5/3 299/5/3
f 312/5/3 300/5/3 311/5/3
f 314/1/3 310/1/3 309/1/3
f 314/1/3 309/1/3 308/1/3
f 314/1/3 308/1/3 307/1/3
f 315/1/3 310/1/3 314/1/3
f 316/1/3 310/1/3 315/1/3
f 317/1/3 310/1/3 316/1/3
f 318/1/3 310/1/3 317/1/3
f 321/6/3 312/6/3 311/6/3
f 322/6/3 312/6/3 321/6/3
f 323/1/3 314/1/3 313/1/3
f 324/5/3 315/5/3 314/5/3
f 324/1/3 314/1/3 323/1/3
f 325/6/3 316/6/3 315/6/3
f 325/5/3 315/5/3 324/5/3
f 326/6/3 316/6/3 325/6/3
f 328/1/3 318/1/3 317/1/3
f 329/1/3 318/1/3 328/1/3
f 330/6/3 320/6/3 319/6/3
f 330/6/3 321/6/3 320/6/3
f 331/6/3 321/6/3 330/6/3
f 332/5/3 325/5/3 324/5/3
f 332/5/3 326/5/3 325/5/3
f 333/1/3 327/1/3 326/1/3
f 333/5/3 326/5/3 332/5/3
f 334/4/3 328/4/3 327/4/3
f 334/1/3 327/1/3 333/1/3
f 335/4/3 328/4/3 334/4/3
f 338/1/3 337/1/3 336/1/3
f 339/1/3 337/1/3 338/1/3
f 342/6/3 341/6/3 340/6/3
f 343/6/3 341/6/3 342/6/3
f 346/1/3 345/1/3 344/1/3
f 347/1/3 345/1/3 346/1/3
f 348/1/4 349/1/4 350/1/4
f 350/1/4 349/1/4 351/1/4
f 352/6/4 353/6/4 354/6/4
f 354/6/4 353/6/4 355/6/4
f 356/1/4 357/1/4 358/1/4
f 358/1/4 357/1/4 359/1/4
f 360/5/4 361/5/4 365/5/4
f 365/5/4 361/5/4 366/5/4
f 361/1/4 362/1/4 367/1/4
f 366/5/4 361/5/4 367/5/4
f 362/4/4 363/4/4 368/4/4
f 367/1/4 362/1/4 368/1/4
f 368/4/4 363/4/4 369/4/4
f 364/1/4 365/1/4 373/1/4
f 365/5/4 366/5/4 374/5/4
f 373/1/4 365/1/4 374/1/4
f 366/6/4 367/6/4 375/6/4
f 374/5/4 366/5/4 375/5/4
f 375/6/4 367/6/4 376/6/4
f 369/1/4 370/1/4 377/1/4
f 371/6/4 372/6/4 378/6/4
f 378/6/4 372/6/4 379/6/4
f 379/6/4 372/6/4 380/6/4
f 376/1/4 377/1/4 383/1/4
f 375/1/4 376/1/4 383/1/4
f 374/1/4 375/1/4 383/1/4
f 383/1/4 377/1/4 384/1/4
f 377/1/4 370/1/4 385/1/4
f 384/1/4 377/1/4 385/1/4
f 385/1/4 370/1/4 386/1/4
f 381/6/4 382/6/4 387/6/4
f 387/6/4 382/6/4 388/6/4
f 384/1/4 385/1/4 389/1/4
f 389/1/4 385/1/4 390/1/4
f 389/1/4 390/1/4 392/1/4
f 390/1/4 391/1/4 392/1/4
f 392/1/4 391/1/4 393/1/4
f 393/1/4 391/1/4 394/1/4
f 392/1/4 393/1/4 396/1/4
f 396/1/4 393/1/4 397/1/4
f 387/5/4 388/5/4 399/5/4
f 399/5/4 388/5/4 400/5/4
f 397/1/4 398/1/4 402/1/4
f 396/1/4 397/1/4 402/1/4
f 395/1/4 396/1/4 402/1/4
f 402/1/4 398/1/4 403/1/4
f 403/1/4 398/1/4 404/1/4
f 404/1/4 398/1/4 405/1/4
f 399/6/4 400/6/4 408/6/4
f 408/6/4 400/6/4 409/6/4
f 401/1/4 402/1/4 410/1/4
f 402/5/4 403/5/4 411/5/4
f 410/1/4 402/1/4 411/1/4
f 403/6/4 404/6/4 412/6/4
f 411/5/4 403/5/4 412/5/4
f 412/6/4 404/6/4 413/6/4
f 405/1/4 398/1/4 415/1/4
f 415/1/4 398/1/4 416/1/4
f 406/6/4 407/6/4 417/6/4
f 407/6/4 408/6/4 417/6/4
f 417/6/4 408/6/4 418/6/4
f 411/5/4 412/5/4 419/5/4
f 412/5/4 413/5/4 419/5/4
f 413/1/4 414/1/4 420/1/4
f 419/5/4 413/5/4 420/5/4
f 414/4/4 415/4/4 421/4/4
f 420/1/4 414/1/4 421/1/4
f 421/4/4 415/4/4 422/4/4
f 423/3/4 424/3/4 430/3/4
f 430/3/4 424/3/4 431/3/4
f 425/6/4 426/6/4 432/6/4
f 426/1/4 427/1/4 432/1/4
f 432/1/4 427/1/4 433/1/4
f 428/2/4 429/2/4 436/2/4
f 436/2/4 429/2/4 437/2/4
f 433/6/4 434/6/4 440/6/4
f 425/6/4 432/6/4 440/6/4
f 432/6/4 433/6/4 440/6/4
f 440/6/4 434/6/4 441/6/4
f 434/5/4 435/5/4 442/5/4
f 441/6/4 434/6/4 442/6/4
f 437/7/4 438/7/4 443/7/4
f 436/7/4 437/7/4 443/7/4
f 443/7/4 438/7/4 444/7/4
f 444/7/4 438/7/4 445/7/4
f 445/7/4 438/7/4 446/7/4
f 440/6/4 441/6/4 447/6/4
f 439/6/4 440/6/4 447/6/4
f 447/6/4 441/6/4 448/6/4
f 448/6/4 441/6/4 449/6/4
f 443/2/4 444/2/4 450/2/4
f 444/7/4 445/7/4 451/7/4
f 450/2/4 444/2/4 451/2/4
f 445/2/4 446/2/4 452/2/4
f 451/7/4 445/7/4 452/7/4
f 452/2/4 446/2/4 453/2/4
f 448/1/4 449/1/4 455/1/4
f 449/6/4 441/6/4 456/6/4
f 455/1/4 449/1/4 456/1/4
f 450/7/4 451/7/4 457/7/4
f 452/7/4 453/7/4 457/7/4
f 451/7/4 452/7/4 457/7/4
f 457/7/4 453/7/4 458/7/4
f 458/7/4 453/7/4 459/7/4
f 454/6/4 455/6/4 460/6/4
f 455/6/4 456/6/4 460/6/4
f 460/6/4 456/6/4 461/6/4
f 456/6/4 441/6/4 462/6/4
f 461/6/4 456/6/4 462/6/4
f 441/5/4 442/5/4 462/5/4
f 442/5/4 435/5/4 463/5/4
f 462/5/4 442/5/4 463/5/4
f 457/2/4 458/2/4 464/2/4
f 464/2/4 458/2/4 465/2/4
f 461/6/4 462/6/4 468/6/4
f 462/6/4 463/6/4 468/6/4
f 468/6/4 463/6/4 469/6/4
f 463/5/4 435/5/4 470/5/4
f 469/6/4 463/6/4 470/6/4
f 470/5/4 435/5/4 471/5/4
f 466/3/4 467/3/4 472/3/4
f 472/3/4 467/3/4 473/3/4
f 461/6/4 468/6/4 474/6/4
f 468/1/4 469/1/4 475/1/4
f 474/6/4 468/6/4 475/6/4
f 475/1/4 469/1/4 476/1/4
f 484/2/5 478/2/5 477/2/5
f 485/2/5 482/2/5 481/2/5
f 487/1/5 484/1/5 483/1/5
f 488/2/5 478/2/5 484/2/5
f 488/1/5 484/1/5 487/1/5
f 489/1/5 486/1/5 485/1/5
f 489/2/5 485/2/5 481/2/5
f 490/1/5 486/1/5 489/1/5
f 491/2/5 478/2/5 488/2/5
f 492/7/5 479/7/5 478/7/5
f 492/2/5 478/2/5 491/2/5
f 493/2/5 480/2/5 479/2/5
f 493/7/5 479/7/5 492/7/5
f 494/7/5 481/7/5 480/7/5
f 494/2/5 480/2/5 493/2/5
f 495/2/5 489/2/5 481/2/5
f 495/7/5 481/7/5 494/7/5
f 496/2/5 489/2/5 495/2/5
f 501/5/5 498/5/5 497/5/5
f 502/5/5 498/5/5 501/5/5
f 503/5/5 500/5/5 499/5/5
f 504/5/5 500/5/5 503/5/5
f 509/3/5 506/3/5 505/3/5
f 510/3/5 506/3/5 509/3/5
f 511/3/5 508/3/5 507/3/5
f 512/3/5 508/3/5 511/3/5
f 517/3/5 514/3/5 513/3/5
f 518/3/5 514/3/5 517/3/5
f 519/3/5 516/3/5 515/3/5
f 520/3/5 516/3/5 519/3/5
f 525/5/5 522/5/5 521/5/5
f 526/5/5 522/5/5 525/5/5
f 527/5/5 524/5/5 523/5/5
f 528/5/5 524/5/5 527/5/5
f 533/6/5 530/6/5 529/6/5
f 534/6/5 530/6/5 533/6/5
f 535/6/5 532/6/5 531/6/5
f 536/6/5 532/6/5 535/6/5
f 545/6/5 538/6/5 537/6/5
f 546/5/5 539/5/5 538/5/5
f 546/6/5 538/6/5 545/6/5
f 547/5/5 539/5/5 546/5/5
f 548/5/5 541/5/5 540/5/5
f 549/5/5 541/5/5 548/5/5
f 550/5/5 543/5/5 542/5/5
f 551/6/5 544/6/5 543/6/5
f 551/5/5 543/5/5 550/5/5
f 552/6/5 544/6/5 551/6/5
f 559/6/5 554/6/5 553/6/5
f 560/6/5 554/6/5 559/6/5
f 561/1/5 556/1/5 555/1/5
f 562/1/5 556/1/5 561/1/5
f 563/6/5 558/6/5 557/6/5
f 564/6/5 558/6/5 563/6/5
f 565/2/6 566/2/6 569/2/6
f 569/2/6 566/2/6 570/2/6
f 567/2/6 568/2/6 571/2/6
f 571/2/6 568/2/6 572/2/6
f 573/2/6 574/2/6 577/2/6
f 577/2/6 574/2/6 578/2/6
f 575/2/6 576/2/6 579/2/6
f 579/2/6 576/2/6 580/2/6
f 581/7/6 582/7/6 585/7/6
f 582/2/6 583/2/6 586/2/6
f 585/7/6 582/7/6 586/7/6
f 583/7/6 584/7/6 587/7/6
f 586/2/6 583/2/6 587/2/6
f 587/7/6 584/7/6 588/7/6
f 589/7/6 590/7/6 593/7/6
f 590/2/6 591/2/6 594/2/6
f 593/7/6 590/7/6 594/7/6
f 591/7/6 592/7/6 595/7/6
f 594/2/6 591/2/6 595/2/6
f 595/7/6 592/7/6 596/7/6
f 597/3/6 598/3/6 602/3/6
f 602/3/6 598/3/6 603/3/6
f 599/3/6 600/3/6 604/3/6
f 604/3/6 600/3/6 605/3/6
f 601/4/6 602/4/6 607/4/6
f 607/4/6 602/4/6 608/4/6
f 605/4/6 606/4/6 609/4/6
f 609/4/6 606/4/6 610/4/6
f 611/4/6 612/4/6 615/4/6
f 615/4/6 612/4/6 616/4/6
f 613/4/6 614/4/6 619/4/6
f 619/4/6 614/4/6 620/4/6
f 616/3/6 617/3/6 621/3/6
f 621/3/6 617/3/6 622/3/6
f 618/3/6 619/3/6 623/3/6
f 623/3/6 619/3/6 624/3/6
f 625/1/6 626/1/6 629/1/6
f 629/1/6 626/1/6 630/1/6
f 627/1/6 628/1/6 631/1/6
f 631/1/6 628/1/6 632/1/6
f 633/1/6 634/1/6 637/1/6
f 637/1/6 634/1/6 638/1/6
f 635/1/6 636/1/6 639/1/6
f 639/1/6 636/1/6 640/1/6
f 641/1/6 642/1/6 645/1/6
f 645/1/6 642/1/6 646/1/6
f 643/1/6 644/1/6 647/1/6
f 647/1/6 644/1/6 648/1/6
f 649/6/6 650/6/6 651/6/6
f 651/6/6 650/6/6 652/6/6
f 653/6/6 654/6/6 655/6/6
f 655/6/6 654/6/6 656/6/6
f 657/5/6 658/5/6 659/5/6
f 659/5/6 658/5/6 660/5/6
f 660/5/6 658/5/6 661/5/6
f 661/5/6 658/5/6 662/5/6
f 664/6/6 665/6/6 666/6/6
f 666/6/6 665/6/6 667/6/6
f 662/6/6 663/6/6 671/6/6
f 671/6/6 663/6/6 672/6/6
f 669/5/6 670/5/6 673/5/6
f 668/5/6 669/5/6 673/5/6
f 670/5/6 671/5/6 673/5/6
f 673/5/6 671/5/6 674/5/6
f 675/6/6 676/6/6 679/6/6
f 676/5/6 677/5/6 680/5/6
f 679/6/6 676/6/6 680/6/6
f 677/6/6 678/6/6 681/6/6
f 680/5/6 677/5/6 681/5/6
f 681/6/6 678/6/6 682/6/6
